<svg version="1.1" xmlns="http://www.w3.org/2000/svg" viewBox="0 0 630.1559305218585 284.6953607392302" width="1260.311861043717" height="569.3907214784604">
  <!-- svg-source:excalidraw -->
  
  <defs>
    <style class="style-fonts">
      @font-face {
        font-family: "Virgil";
        src: url("https://excalidraw.com/Virgil.woff2");
      }
      @font-face {
        font-family: "Cascadia";
        src: url("https://excalidraw.com/Cascadia.woff2");
      }
    </style>
  </defs>
  <g stroke-linecap="round" transform="translate(10.212217274073396 200.48793976460956) rotate(333.8252188734021 33.97833610511561 35.055323243374005)"><path d="M46.39 1.67 C52.61 3.65, 60.14 9.97, 63.65 15.92 C67.16 21.87, 67.97 30.34, 67.45 37.37 C66.93 44.41, 64.81 53, 60.52 58.15 C56.23 63.29, 48.34 66.58, 41.71 68.24 C35.08 69.89, 26.96 70.64, 20.74 68.08 C14.51 65.53, 7.94 58.9, 4.36 52.92 C0.78 46.94, -1.43 38.98, -0.76 32.2 C-0.1 25.42, 3.87 17.47, 8.37 12.22 C12.87 6.97, 19.62 2.22, 26.24 0.71 C32.86 -0.8, 44.46 2.65, 48.1 3.16 C51.73 3.67, 48.42 3.41, 48.02 3.79 M31.76 1.14 C38.16 0.23, 45.63 0.89, 51.44 4.59 C57.25 8.29, 64.14 16.82, 66.59 23.35 C69.04 29.88, 68.04 37.32, 66.13 43.78 C64.21 50.24, 60.06 57.59, 55.12 62.11 C50.17 66.62, 42.94 70.5, 36.47 70.87 C29.99 71.25, 21.78 68.34, 16.27 64.37 C10.76 60.39, 5.85 53.35, 3.41 47.04 C0.97 40.73, 0.03 32.79, 1.64 26.51 C3.24 20.23, 7.84 13.65, 13.04 9.37 C18.25 5.1, 29.48 2.13, 32.87 0.84 C36.25 -0.45, 33.4 1.37, 33.33 1.62" stroke="#000000" stroke-width="1" fill="none"></path></g><g stroke-linecap="round" transform="translate(230.12282754751004 91.334699425071) rotate(333.8252188734021 33.9783361051156 35.05532324337378)"><path d="M28.76 1.15 C34.95 -0.17, 43.76 0.63, 49.73 3.87 C55.7 7.1, 61.53 14.36, 64.57 20.55 C67.6 26.75, 69.29 34.46, 67.94 41.04 C66.59 47.62, 61.32 55.36, 56.47 60.03 C51.62 64.69, 45.43 68.19, 38.84 69.02 C32.26 69.84, 22.96 68.06, 16.96 64.97 C10.97 61.88, 5.63 56.47, 2.85 50.49 C0.07 44.5, -0.97 35.87, 0.27 29.07 C1.52 22.26, 4.68 14.65, 10.33 9.64 C15.97 4.64, 29.55 0.62, 34.15 -0.97 C38.74 -2.56, 38.05 -0.6, 37.9 0.13 M19.19 3.33 C24.55 0.05, 31.34 0.42, 37.96 1.39 C44.58 2.36, 53.97 4.62, 58.89 9.14 C63.81 13.67, 66.55 21.58, 67.5 28.53 C68.44 35.48, 67.34 44.52, 64.53 50.85 C61.73 57.18, 56.62 63.21, 50.67 66.53 C44.72 69.85, 35.73 71.73, 28.84 70.77 C21.95 69.81, 14.05 65.61, 9.35 60.77 C4.65 55.94, 1.4 48.47, 0.64 41.78 C-0.12 35.09, 1.75 26.68, 4.79 20.64 C7.84 14.6, 16.47 8.12, 18.89 5.53 C21.3 2.94, 19.35 4.79, 19.29 5.09" stroke="#000000" stroke-width="1" fill="none"></path></g><g stroke-linecap="round"><g transform="translate(28.27415345077719 188.77506841984223) rotate(333.8252188734021 29.84551422762064 -24.830104538458954)"><path d="M0.92 -0.31 C11.06 -8.38, 50.04 -41.41, 59.75 -49.35 M-0.06 -1.51 C9.98 -9.33, 48.28 -39.97, 58.54 -48.01" stroke="#000000" stroke-width="1" fill="none"></path></g></g><mask></mask><g stroke-linecap="round"><g transform="translate(41.563616993317794 190.72241316750933) rotate(333.8252188734021 29.774708289758628 -25.257071115482177)"><path d="M-0.31 -0.48 C9.83 -8.98, 49.6 -41.84, 59.86 -50.03 M1.73 -1.78 C11.76 -10.24, 48.83 -41.23, 58.71 -49.04" stroke="#000000" stroke-width="1" fill="none"></path></g></g><mask></mask><g stroke-linecap="round"><g transform="translate(165.99637338699688 129.23313077985404) rotate(236.9808412703799 30.427950314305107 -24.95130423190608)"><path d="M-0.48 -0.37 C9.23 -8.31, 49.17 -39.76, 59.18 -47.95 M1.46 -1.62 C11.45 -9.84, 51.84 -41.72, 61.34 -49.53" stroke="#000000" stroke-width="1" fill="none"></path></g></g><mask></mask><g stroke-linecap="round"><g transform="translate(172.04048784662183 119.33377073558495) rotate(236.9808412703799 30.444102222577982 -24.311110631130305)"><path d="M-0.37 -1.05 C9.89 -9.24, 51.25 -41.62, 61.26 -49.63 M1.63 1.01 C11.85 -6.99, 51.35 -40.29, 60.86 -48.44" stroke="#000000" stroke-width="1" fill="none"></path></g></g><mask></mask><g stroke-linecap="round"><g transform="translate(66.2583615372543 110.21828122150919) rotate(333.8252188734021 57.50973072647644 -0.5688892449541072)"><path d="M-1.05 1.03 C17.98 0.73, 94.49 -1.82, 113.7 -2.17 M0.6 0.53 C20.07 0.42, 97.27 -0.3, 116.07 -0.9" stroke="#000000" stroke-width="1" fill="none"></path></g></g><mask></mask><g transform="translate(53.39836208704884 110.08062591122552) rotate(333.8252188734021 55.33181954525396 -30.173798029169802)" stroke="none"><path fill="#000000" d="M -2.46,0 Q -2.46,0 -2.47,-1.37 -2.47,-2.75 -2.51,-5.15 -2.55,-7.55 -2.55,-8.93 -2.55,-10.32 -2.37,-11.85 -2.19,-13.38 -1.78,-14.91 -1.36,-16.45 -0.86,-17.89 -0.37,-19.32 0.49,-21.33 1.35,-23.35 1.70,-24.48 2.04,-25.60 2.32,-26.68 2.60,-27.75 2.84,-28.85 3.09,-29.95 3.52,-31.16 3.95,-32.38 4.65,-34.23 5.36,-36.08 6.25,-37.84 7.14,-39.61 8.05,-41.22 8.97,-42.82 9.69,-43.73 10.42,-44.64 11.14,-45.43 11.87,-46.22 12.75,-47.10 13.64,-47.99 14.66,-48.86 15.68,-49.72 16.69,-50.51 17.69,-51.29 18.96,-52.24 20.24,-53.20 21.76,-54.04 23.29,-54.88 24.44,-55.49 25.59,-56.10 26.81,-56.79 28.04,-57.47 29.29,-58.01 30.54,-58.55 31.51,-59.02 32.48,-59.48 34.13,-60.17 35.78,-60.86 37.51,-61.41 39.24,-61.96 40.37,-62.12 41.50,-62.28 43.12,-62.58 44.74,-62.87 46.23,-62.96 47.73,-63.04 49.03,-63.24 50.33,-63.43 51.43,-63.50 52.54,-63.57 53.63,-63.60 54.72,-63.63 56.13,-63.67 57.54,-63.71 59.01,-63.74 60.49,-63.76 61.56,-63.79 62.64,-63.83 63.79,-63.85 64.95,-63.87 66.72,-63.50 68.50,-63.13 70.66,-62.26 72.81,-61.39 74.42,-60.84 76.02,-60.29 77.29,-59.67 78.55,-59.04 79.86,-58.35 81.16,-57.65 82.89,-56.76 84.61,-55.87 86.13,-54.85 87.64,-53.82 88.67,-53.18 89.69,-52.55 90.72,-51.64 91.76,-50.72 92.59,-49.91 93.42,-49.10 94.33,-48.20 95.24,-47.29 96.05,-46.49 96.86,-45.68 97.57,-44.82 98.28,-43.95 98.98,-42.89 99.68,-41.82 100.37,-40.93 101.06,-40.04 101.96,-38.64 102.87,-37.24 103.50,-36.36 104.14,-35.48 105.00,-33.94 105.86,-32.40 106.61,-30.97 107.37,-29.55 107.99,-28.16 108.61,-26.76 109.06,-25.62 109.50,-24.47 109.91,-23.45 110.32,-22.43 110.91,-20.86 111.49,-19.29 111.94,-17.61 112.40,-15.94 112.47,-14.60 112.55,-13.26 112.71,-12.19 112.87,-11.11 113.05,-10.02 113.24,-8.93 113.47,-7.64 113.70,-6.34 114.03,-4.55 114.35,-2.76 114.32,-2.16 114.30,-1.55 114.08,-0.99 113.86,-0.43 113.47,0.02 113.08,0.48 112.56,0.80 112.05,1.11 111.46,1.25 110.87,1.38 110.27,1.32 109.67,1.25 109.12,1.00 108.57,0.75 108.13,0.34 107.69,-0.06 107.40,-0.59 107.12,-1.12 107.02,-1.72 106.92,-2.32 107.01,-2.91 107.10,-3.51 107.38,-4.04 107.66,-4.58 108.10,-4.99 108.54,-5.41 109.08,-5.67 109.63,-5.93 110.23,-5.99 110.83,-6.06 111.42,-5.94 112.01,-5.81 112.53,-5.50 113.05,-5.19 113.44,-4.74 113.83,-4.28 114.06,-3.72 114.29,-3.16 114.32,-2.56 114.36,-1.95 114.20,-1.37 114.04,-0.79 113.71,-0.29 113.37,0.20 112.89,0.57 112.41,0.94 111.84,1.14 111.27,1.33 110.67,1.34 110.06,1.34 109.49,1.15 108.92,0.96 108.43,0.60 107.95,0.23 107.61,-0.25 107.27,-0.75 107.10,-1.33 106.94,-1.91 106.94,-1.91 106.94,-1.91 106.78,-4.15 106.63,-6.38 106.30,-7.63 105.97,-8.88 105.65,-10.30 105.33,-11.72 105.34,-12.90 105.35,-14.08 105.19,-15.31 105.03,-16.54 104.65,-17.69 104.26,-18.85 103.83,-19.95 103.39,-21.06 103.00,-22.13 102.62,-23.19 102.22,-24.21 101.83,-25.24 101.15,-26.52 100.47,-27.80 99.80,-29.05 99.13,-30.31 98.35,-31.47 97.56,-32.64 96.99,-33.64 96.41,-34.63 95.44,-35.82 94.47,-37.02 93.83,-37.95 93.19,-38.88 92.53,-39.80 91.88,-40.72 91.08,-41.52 90.28,-42.33 89.39,-43.22 88.50,-44.11 87.74,-44.86 86.99,-45.61 86.05,-46.45 85.11,-47.29 83.88,-48.10 82.66,-48.92 81.46,-49.74 80.26,-50.57 78.96,-51.14 77.66,-51.72 76.64,-52.27 75.61,-52.83 74.54,-53.38 73.46,-53.93 71.88,-54.43 70.30,-54.93 69.23,-55.29 68.16,-55.65 66.52,-56.23 64.88,-56.81 63.76,-56.84 62.64,-56.86 61.56,-56.89 60.49,-56.92 59.02,-56.95 57.54,-56.98 56.14,-57.01 54.75,-57.05 53.27,-57.08 51.79,-57.11 50.68,-57.09 49.57,-57.08 47.96,-56.95 46.35,-56.82 45.19,-56.78 44.04,-56.75 42.44,-56.53 40.85,-56.31 39.30,-55.91 37.74,-55.51 36.25,-55.02 34.75,-54.54 32.73,-53.70 30.70,-52.86 29.42,-52.09 28.13,-51.32 27.04,-50.74 25.96,-50.17 24.86,-49.52 23.76,-48.88 22.55,-47.79 21.33,-46.70 20.43,-45.97 19.53,-45.24 18.72,-44.53 17.91,-43.82 16.47,-42.30 15.02,-40.78 14.09,-39.56 13.16,-38.34 12.24,-36.72 11.32,-35.11 10.53,-33.61 9.74,-32.12 9.03,-30.41 8.33,-28.69 8.03,-27.50 7.73,-26.31 7.39,-25.17 7.05,-24.04 6.59,-22.59 6.13,-21.14 5.27,-19.40 4.41,-17.67 3.97,-16.38 3.53,-15.10 3.20,-13.92 2.86,-12.75 2.70,-11.53 2.55,-10.32 2.55,-8.93 2.55,-7.55 2.51,-5.15 2.47,-2.75 2.47,-1.37 2.46,0 2.42,0.29 2.39,0.58 2.28,0.86 2.18,1.14 2.01,1.38 1.84,1.63 1.62,1.82 1.39,2.02 1.13,2.16 0.87,2.30 0.58,2.37 0.29,2.44 -0.00,2.44 -0.29,2.44 -0.58,2.37 -0.87,2.30 -1.13,2.16 -1.39,2.02 -1.62,1.82 -1.84,1.63 -2.01,1.38 -2.18,1.14 -2.28,0.86 -2.39,0.58 -2.42,0.29 -2.46,-0.00 -2.46,-0.00 L -2.46,0 Z"></path></g><g stroke-linecap="round"><g transform="translate(263.0559987255547 85.26540108429526) rotate(333.8252188734021 169.13097270618474 -0.44742021423030565)"><path d="M-0.66 -0.51 C56.01 -0.74, 282.19 -0.19, 338.92 -0.36" stroke="#000000" stroke-width="1.5" fill="none" stroke-dasharray="8 9"></path></g></g><mask></mask><g stroke-linecap="round"><g transform="translate(39.199653181353526 139.91737760444494) rotate(333.8252188734021 293.44454295453124 51.07275957003435)"><path d="M-0.51 -0.14 C54.86 1.41, 235.25 -8.87, 333.24 8.62 C431.22 26.11, 545.04 88.5, 587.4 104.8 M1.42 -1.26 C56.6 0, 235.13 -10.96, 332.61 6.85 C430.09 24.66, 543.88 89.37, 586.32 105.6" stroke="#000000" stroke-width="1" fill="none"></path></g></g><mask></mask></svg>