<svg version="1.1" xmlns="http://www.w3.org/2000/svg" viewBox="0 0 568.5765983654201 257.87431620339567" width="1137.1531967308401" height="515.7486324067913">
  <!-- svg-source:excalidraw -->
  
  <defs>
    <style class="style-fonts">
      @font-face {
        font-family: "Virgil";
        src: url("https://excalidraw.com/Virgil.woff2");
      }
      @font-face {
        font-family: "Cascadia";
        src: url("https://excalidraw.com/Cascadia.woff2");
      }
    </style>
  </defs>
  <g stroke-linecap="round" transform="translate(20.401495734077912 176.59545390118183) rotate(0 33.9783361051156 35.05532324337378)"><path d="M47.58 3.02 C53.55 5.29, 60.43 10.96, 63.89 16.82 C67.35 22.69, 69.25 31.44, 68.34 38.23 C67.42 45.01, 63.07 52.36, 58.42 57.54 C53.76 62.72, 46.85 67.56, 40.4 69.32 C33.95 71.08, 25.62 71.01, 19.72 68.09 C13.82 65.17, 8.18 57.75, 5.01 51.78 C1.83 45.81, -0.04 39.05, 0.68 32.27 C1.4 25.48, 4.98 16.26, 9.32 11.08 C13.65 5.91, 19.86 2.5, 26.69 1.21 C33.52 -0.07, 45.83 2.64, 50.3 3.37 C54.76 4.1, 53.71 4.77, 53.47 5.57 M27.23 -0.1 C33.5 -2.14, 42.01 0, 47.95 2.95 C53.89 5.89, 59.55 11.8, 62.87 17.58 C66.19 23.35, 68.2 31.08, 67.85 37.59 C67.51 44.11, 65.34 51.37, 60.82 56.65 C56.29 61.93, 47.32 67.5, 40.68 69.27 C34.04 71.05, 27.01 69.76, 20.98 67.3 C14.95 64.84, 7.83 60.58, 4.49 54.49 C1.14 48.41, 0.35 37.83, 0.93 30.78 C1.51 23.72, 3.92 17.26, 7.97 12.16 C12.01 7.05, 22.04 1.71, 25.18 0.15 C28.32 -1.42, 26.69 2.09, 26.8 2.77" stroke="#000000" stroke-width="1" fill="none"></path></g><g stroke-linecap="round" transform="translate(265.9095293242396 175.64055592323075) rotate(0 33.9783361051156 35.05532324337378)"><path d="M43.58 1.97 C49.84 3.46, 56.29 8.98, 60.29 14.17 C64.3 19.37, 67.45 26.47, 67.6 33.12 C67.75 39.76, 64.88 48.3, 61.18 54.03 C57.49 59.76, 51.4 64.99, 45.43 67.49 C39.47 70, 31.93 70.83, 25.38 69.08 C18.84 67.33, 10.27 62.38, 6.16 56.99 C2.05 51.61, 0.89 43.74, 0.74 36.78 C0.6 29.81, 1.59 21.01, 5.29 15.21 C8.99 9.42, 15.67 3.69, 22.95 2 C30.23 0.3, 43.74 3.92, 48.97 5.05 C54.19 6.18, 54.28 8.5, 54.3 8.78 M28.13 1.27 C34.26 -0.32, 43.94 0.91, 50.14 3.97 C56.33 7.03, 62.44 13.28, 65.28 19.64 C68.13 26, 68.67 35.55, 67.19 42.12 C65.71 48.69, 61.13 54.44, 56.41 59.05 C51.69 63.67, 45.29 68.73, 38.88 69.81 C32.47 70.9, 23.66 68.63, 17.96 65.54 C12.25 62.46, 7.78 57.42, 4.63 51.3 C1.48 45.18, -1.91 35.88, -0.97 28.82 C-0.04 21.76, 5.35 13.62, 10.24 8.97 C15.13 4.31, 25.02 2.39, 28.38 0.89 C31.74 -0.6, 30.23 -0.71, 30.42 -0.01" stroke="#000000" stroke-width="1" fill="none"></path></g><g stroke-linecap="round"><g transform="translate(68.61782633875521 178.3690849349996) rotate(0 30.601207294010877 -24.20100195597456)"><path d="M1 0.68 C11 -7.5, 49.17 -40.92, 59.05 -49.09 M0.06 0 C10.49 -7.99, 51.23 -39.22, 61.14 -47.6" stroke="#000000" stroke-width="1" fill="none"></path></g></g><mask></mask><g stroke-linecap="round"><g transform="translate(79.88109572680753 185.99141255700488) rotate(0 29.85362541141299 -24.048691737079707)"><path d="M0.68 -1.18 C10.7 -9.5, 50.09 -40.83, 60.12 -48.91 M-0.42 0.82 C9.44 -7.38, 48.97 -39.09, 59.12 -47.34" stroke="#000000" stroke-width="1" fill="none"></path></g></g><mask></mask><g stroke-linecap="round"><g transform="translate(218.47532412589652 185.9531346283802) rotate(263.1556223969778 29.55850082124897 -25.093247351251193)"><path d="M-1.18 -0.11 C8.7 -8.27, 50.18 -40.27, 60.3 -48.31 M0.4 -1.21 C10.05 -9.78, 49.71 -41.9, 59.38 -50.08" stroke="#000000" stroke-width="1" fill="none"></path></g></g><mask></mask><g stroke-linecap="round"><g transform="translate(227.98229315714042 179.67652734073272) rotate(263.1556223969778 29.639530461899312 -24.80044216777719)"><path d="M-0.11 0.07 C9.93 -8.02, 50.73 -41.42, 60.9 -49.67 M-1.62 -0.95 C8.26 -8.78, 49.96 -40.6, 60.3 -48.49" stroke="#000000" stroke-width="1" fill="none"></path></g></g><mask></mask><g stroke-linecap="round"><g transform="translate(123.82032748049335 134.33840109824723) rotate(0 57.331091876892074 -1.052961547627092)"><path d="M0.07 0.67 C19.21 0.52, 94.69 -0.43, 113.67 -1 M-1.36 -0.02 C18.28 -0.51, 96.97 -2.45, 116.02 -2.78" stroke="#000000" stroke-width="1" fill="none"></path></g></g><mask></mask><g transform="translate(125.62219508778514 130.61738204384255) rotate(0 55.33181954525395 -30.173798029169802)" stroke="none"><path fill="#000000" d="M -2.46,0 Q -2.46,0 -2.47,-1.37 -2.47,-2.75 -2.51,-5.15 -2.55,-7.55 -2.55,-8.93 -2.55,-10.32 -2.37,-11.85 -2.19,-13.38 -1.78,-14.91 -1.36,-16.45 -0.86,-17.89 -0.37,-19.32 0.49,-21.33 1.35,-23.35 1.70,-24.48 2.04,-25.60 2.32,-26.68 2.60,-27.75 2.84,-28.85 3.09,-29.95 3.52,-31.16 3.95,-32.38 4.65,-34.23 5.36,-36.08 6.25,-37.84 7.14,-39.61 8.05,-41.22 8.97,-42.82 9.69,-43.73 10.42,-44.64 11.14,-45.43 11.87,-46.22 12.75,-47.10 13.64,-47.99 14.66,-48.86 15.68,-49.72 16.69,-50.51 17.69,-51.29 18.96,-52.24 20.24,-53.20 21.76,-54.04 23.29,-54.88 24.44,-55.49 25.59,-56.10 26.81,-56.79 28.04,-57.47 29.29,-58.01 30.54,-58.55 31.51,-59.02 32.48,-59.48 34.13,-60.17 35.78,-60.86 37.51,-61.41 39.24,-61.96 40.37,-62.12 41.50,-62.28 43.12,-62.58 44.74,-62.87 46.23,-62.96 47.73,-63.04 49.03,-63.24 50.33,-63.43 51.43,-63.50 52.54,-63.57 53.63,-63.60 54.72,-63.63 56.13,-63.67 57.54,-63.71 59.01,-63.74 60.49,-63.76 61.56,-63.79 62.64,-63.83 63.79,-63.85 64.95,-63.87 66.72,-63.50 68.50,-63.13 70.66,-62.26 72.81,-61.39 74.42,-60.84 76.02,-60.29 77.29,-59.67 78.55,-59.04 79.86,-58.35 81.16,-57.65 82.89,-56.76 84.61,-55.87 86.13,-54.85 87.64,-53.82 88.67,-53.18 89.69,-52.55 90.72,-51.64 91.76,-50.72 92.59,-49.91 93.42,-49.10 94.33,-48.20 95.24,-47.29 96.05,-46.49 96.86,-45.68 97.57,-44.82 98.28,-43.95 98.98,-42.89 99.68,-41.82 100.37,-40.93 101.06,-40.04 101.96,-38.64 102.87,-37.24 103.50,-36.36 104.14,-35.48 105.00,-33.94 105.86,-32.40 106.61,-30.97 107.37,-29.55 107.99,-28.16 108.61,-26.76 109.06,-25.62 109.50,-24.47 109.91,-23.45 110.32,-22.43 110.91,-20.86 111.49,-19.29 111.94,-17.61 112.40,-15.94 112.47,-14.60 112.55,-13.26 112.71,-12.19 112.87,-11.11 113.05,-10.02 113.24,-8.93 113.47,-7.64 113.70,-6.34 114.03,-4.55 114.35,-2.76 114.32,-2.16 114.30,-1.55 114.08,-0.99 113.86,-0.43 113.47,0.02 113.08,0.48 112.56,0.80 112.05,1.11 111.46,1.25 110.87,1.38 110.27,1.32 109.67,1.25 109.12,1.00 108.57,0.75 108.13,0.34 107.69,-0.06 107.40,-0.59 107.12,-1.12 107.02,-1.72 106.92,-2.32 107.01,-2.91 107.10,-3.51 107.38,-4.04 107.66,-4.58 108.10,-4.99 108.54,-5.41 109.08,-5.67 109.63,-5.93 110.23,-5.99 110.83,-6.06 111.42,-5.94 112.01,-5.81 112.53,-5.50 113.05,-5.19 113.44,-4.74 113.83,-4.28 114.06,-3.72 114.29,-3.16 114.32,-2.56 114.36,-1.95 114.20,-1.37 114.04,-0.79 113.71,-0.29 113.37,0.20 112.89,0.57 112.41,0.94 111.84,1.14 111.27,1.33 110.67,1.34 110.06,1.34 109.49,1.15 108.92,0.96 108.43,0.60 107.95,0.23 107.61,-0.25 107.27,-0.75 107.10,-1.33 106.94,-1.91 106.94,-1.91 106.94,-1.91 106.78,-4.15 106.63,-6.38 106.30,-7.63 105.97,-8.88 105.65,-10.30 105.33,-11.72 105.34,-12.90 105.35,-14.08 105.19,-15.31 105.03,-16.54 104.65,-17.69 104.26,-18.85 103.83,-19.95 103.39,-21.06 103.00,-22.13 102.62,-23.19 102.22,-24.21 101.83,-25.24 101.15,-26.52 100.47,-27.80 99.80,-29.05 99.13,-30.31 98.35,-31.47 97.56,-32.64 96.99,-33.64 96.41,-34.63 95.44,-35.82 94.47,-37.02 93.83,-37.95 93.19,-38.88 92.53,-39.80 91.88,-40.72 91.08,-41.52 90.28,-42.33 89.39,-43.22 88.50,-44.11 87.74,-44.86 86.99,-45.61 86.05,-46.45 85.11,-47.29 83.88,-48.10 82.66,-48.92 81.46,-49.74 80.26,-50.57 78.96,-51.14 77.66,-51.72 76.64,-52.27 75.61,-52.83 74.54,-53.38 73.46,-53.93 71.88,-54.43 70.30,-54.93 69.23,-55.29 68.16,-55.65 66.52,-56.23 64.88,-56.81 63.76,-56.84 62.64,-56.86 61.56,-56.89 60.49,-56.92 59.02,-56.95 57.54,-56.98 56.14,-57.01 54.75,-57.05 53.27,-57.08 51.79,-57.11 50.68,-57.09 49.57,-57.08 47.96,-56.95 46.35,-56.82 45.19,-56.78 44.04,-56.75 42.44,-56.53 40.85,-56.31 39.30,-55.91 37.74,-55.51 36.25,-55.02 34.75,-54.54 32.73,-53.70 30.70,-52.86 29.42,-52.09 28.13,-51.32 27.04,-50.74 25.96,-50.17 24.86,-49.52 23.76,-48.88 22.55,-47.79 21.33,-46.70 20.43,-45.97 19.53,-45.24 18.72,-44.53 17.91,-43.82 16.47,-42.30 15.02,-40.78 14.09,-39.56 13.16,-38.34 12.24,-36.72 11.32,-35.11 10.53,-33.61 9.74,-32.12 9.03,-30.41 8.33,-28.69 8.03,-27.50 7.73,-26.31 7.39,-25.17 7.05,-24.04 6.59,-22.59 6.13,-21.14 5.27,-19.40 4.41,-17.67 3.97,-16.38 3.53,-15.10 3.20,-13.92 2.86,-12.75 2.70,-11.53 2.55,-10.32 2.55,-8.93 2.55,-7.55 2.51,-5.15 2.47,-2.75 2.47,-1.37 2.46,0 2.42,0.29 2.39,0.58 2.28,0.86 2.18,1.14 2.01,1.38 1.84,1.63 1.62,1.82 1.39,2.02 1.13,2.16 0.87,2.30 0.58,2.37 0.29,2.44 -0.00,2.44 -0.29,2.44 -0.58,2.37 -0.87,2.30 -1.13,2.16 -1.39,2.02 -1.62,1.82 -1.84,1.63 -2.01,1.38 -2.18,1.14 -2.28,0.86 -2.39,0.58 -2.42,0.29 -2.46,-0.00 -2.46,-0.00 L -2.46,0 Z"></path></g><g stroke-linecap="round"><g transform="translate(10.687604159489297 247.21469891014203) rotate(0 273.60069502322074 -1.4213839432295572)"><path d="M-0.69 0.66 C90.62 -0.04, 456.56 -2.83, 547.89 -3.5 M1.15 -0.04 C92.26 -0.68, 455.31 -2.12, 546.72 -2.54" stroke="#000000" stroke-width="1" fill="none"></path></g></g><mask></mask><g stroke-linecap="round" transform="translate(365.98748825931506 10) rotate(0 24.758371941522313 117.71770072629033)"><path d="M12.38 0 M12.38 0 C20.5 -1.95, 28.28 -1.7, 37.14 0 M12.38 0 C20.21 -1.17, 27.78 0.49, 37.14 0 M37.14 0 C46.77 -1.25, 49.36 4.96, 49.52 12.38 M37.14 0 C45.27 -2.22, 51.69 1.93, 49.52 12.38 M49.52 12.38 C50.39 79.53, 52.21 143.86, 49.52 223.06 M49.52 12.38 C50.3 88.58, 49.68 165.38, 49.52 223.06 M49.52 223.06 C47.9 229.74, 45.55 235.51, 37.14 235.44 M49.52 223.06 C49.33 230.55, 47.18 236.7, 37.14 235.44 M37.14 235.44 C30.93 234.34, 27.89 236.93, 12.38 235.44 M37.14 235.44 C32.04 235.22, 25.45 236.62, 12.38 235.44 M12.38 235.44 C4.02 233.7, -0.51 230.57, 0 223.06 M12.38 235.44 C3.13 234.12, -0.47 230.54, 0 223.06 M0 223.06 C-0.79 172.97, -0.82 125.35, 0 12.38 M0 223.06 C-1.4 162.85, -0.44 103.99, 0 12.38 M0 12.38 C1.23 4.3, 4.29 0.08, 12.38 0 M0 12.38 C-2.18 1.95, 3.23 0.17, 12.38 0" stroke="#000000" stroke-width="1" fill="none"></path></g><g stroke-linecap="round" transform="translate(377.21309981289824 95.58425198147415) rotate(0 13.479094062486979 15.407558475851374)"><path d="M17.35 1.95 C20.04 2.73, 23.85 4.49, 25.31 7.28 C26.78 10.08, 26.8 15.27, 26.14 18.72 C25.49 22.16, 23.44 25.78, 21.38 27.94 C19.31 30.1, 16.65 31.78, 13.76 31.69 C10.88 31.59, 6.36 29.57, 4.06 27.36 C1.75 25.15, 0.29 21.78, -0.04 18.43 C-0.37 15.08, 0.44 10.04, 2.07 7.26 C3.71 4.48, 6.61 2.43, 9.79 1.75 C12.97 1.06, 18.75 2.39, 21.17 3.16 C23.6 3.94, 24.23 6.27, 24.35 6.4 M10.7 0.58 C13.37 -0.4, 17.18 0.26, 19.88 1.7 C22.59 3.14, 25.7 6.18, 26.94 9.22 C28.18 12.26, 28.62 16.78, 27.3 19.96 C25.98 23.14, 21.94 26.41, 19.03 28.3 C16.13 30.19, 12.48 31.74, 9.85 31.3 C7.21 30.86, 4.79 28.56, 3.22 25.66 C1.65 22.77, 0.26 17.45, 0.43 13.92 C0.6 10.39, 2.61 6.76, 4.26 4.48 C5.92 2.2, 9.34 1.15, 10.36 0.24 C11.38 -0.67, 10.42 -1.09, 10.4 -0.97" stroke="#000000" stroke-width="1" fill="none"></path></g><g stroke-linecap="round"><g transform="translate(377.02309829138926 105.5487006206854) rotate(0 -0.014131047176505263 -7.174567583691669)"><path d="M-1.17 0.8 C-1.4 -1.92, -1.25 -12.81, -0.96 -15.15 M0.42 0.17 C0.51 -1.9, 1.31 -11.53, 1.25 -14.07" stroke="#000000" stroke-width="1" fill="none"></path></g></g><mask></mask><g stroke-linecap="round"><g transform="translate(405.4879457509794 113.12205580613363) rotate(0 0.8277515178377826 -10.694133827417772)"><path d="M-0.44 -0.15 C-0.5 -3.36, -0.49 -16.43, -0.11 -19.67 M1.53 -1.27 C1.82 -4.75, 2.12 -17.89, 2.13 -21.24" stroke="#000000" stroke-width="1" fill="none"></path></g></g><mask></mask><g stroke-linecap="round"><g transform="translate(375.79540269470954 90.17286576503193) rotate(0 14.773397827641844 -1.4309011936773004)"><path d="M0.39 -0.85 C2.99 -1.33, 9.58 -4.21, 14.58 -3.86 C19.59 -3.51, 27.89 0.35, 30.41 1.23 M-0.87 1.31 C1.69 0.62, 8.61 -5.65, 13.74 -5.44 C18.88 -5.22, 27.26 1.23, 29.95 2.58" stroke="#000000" stroke-width="1" fill="none"></path></g></g><mask></mask></svg>