<svg version="1.1" xmlns="http://www.w3.org/2000/svg" viewBox="0 0 598.7618967349921 371.39057981704264" width="1197.5237934699842" height="742.7811596340853">
  <!-- svg-source:excalidraw -->
  
  <defs>
    <style class="style-fonts">
      @font-face {
        font-family: "Virgil";
        src: url("https://excalidraw.com/Virgil.woff2");
      }
      @font-face {
        font-family: "Cascadia";
        src: url("https://excalidraw.com/Cascadia.woff2");
      }
    </style>
  </defs>
  <g stroke-linecap="round" transform="translate(30.173267317844704 41.43460158546168) rotate(30.634454602029265 33.9783361051156 35.055323243374005)"><path d="M36.64 0.79 C43 0.84, 50.91 3.9, 56.04 8.17 C61.17 12.44, 65.99 19.84, 67.43 26.42 C68.87 33, 67.14 41.19, 64.66 47.66 C62.18 54.13, 58.29 61.56, 52.56 65.24 C46.83 68.93, 37.05 70.42, 30.3 69.76 C23.56 69.1, 16.84 65.76, 12.09 61.29 C7.34 56.82, 3.34 49.58, 1.79 42.94 C0.25 36.31, 0.43 27.72, 2.83 21.48 C5.23 15.23, 8.96 8.71, 16.18 5.46 C23.4 2.2, 40.01 1.61, 46.15 1.94 C52.29 2.26, 53.22 6.92, 53.02 7.39 M42.63 1.89 C48.72 3.37, 55.78 8.41, 60.16 13.53 C64.54 18.64, 68.48 25.55, 68.91 32.58 C69.34 39.6, 66.67 49.9, 62.74 55.69 C58.8 61.48, 51.68 65.31, 45.3 67.31 C38.91 69.32, 30.89 69.53, 24.44 67.71 C18 65.89, 10.52 61.65, 6.6 56.4 C2.68 51.15, 1.26 43.28, 0.93 36.23 C0.6 29.17, 1.26 19.8, 4.6 14.09 C7.94 8.37, 14.69 4.08, 20.97 1.95 C27.24 -0.19, 38.31 1.16, 42.23 1.27 C46.16 1.38, 44.7 2.12, 44.51 2.61" stroke="#000000" stroke-width="1" fill="none"></path></g><g stroke-linecap="round" transform="translate(241.90373588202965 165.71378354707485) rotate(30.634454602029265 33.9783361051156 35.05532324337355)"><path d="M29.54 0.25 C35.69 -1.11, 43.54 1.21, 49.23 4.29 C54.93 7.36, 60.83 12.46, 63.71 18.7 C66.59 24.94, 67.46 35, 66.51 41.75 C65.57 48.49, 62.66 54.46, 58.05 59.18 C53.44 63.89, 45.53 68.72, 38.86 70.03 C32.2 71.35, 23.97 70.27, 18.08 67.09 C12.18 63.91, 6.44 57.27, 3.51 50.94 C0.57 44.62, -0.69 35.87, 0.47 29.15 C1.64 22.43, 4.74 15.52, 10.49 10.63 C16.25 5.74, 29.81 1.25, 35.02 -0.17 C40.23 -1.6, 41.83 1.37, 41.73 2.08 M34.76 -0.63 C41.21 -0.76, 49.12 3.54, 54.17 7.82 C59.22 12.11, 62.89 18.75, 65.06 25.09 C67.23 31.44, 69.2 39.49, 67.2 45.89 C65.2 52.28, 58.79 59.51, 53.04 63.45 C47.29 67.4, 39.27 69.42, 32.7 69.54 C26.12 69.66, 18.79 68.36, 13.61 64.17 C8.42 59.98, 3.78 51.33, 1.59 44.39 C-0.61 37.45, -1.66 29.03, 0.42 22.53 C2.5 16.03, 8.45 8.92, 14.07 5.38 C19.68 1.84, 30.68 2.31, 34.13 1.31 C37.58 0.3, 34.87 -0.98, 34.79 -0.66" stroke="#000000" stroke-width="1" fill="none"></path></g><g stroke-linecap="round"><g transform="translate(101.88610882743421 73.56231887988906) rotate(30.634454602029265 29.42621022959551 -24.78906426619369)"><path d="M0.2 -0.36 C10.06 -8.73, 49.86 -41.08, 60 -49.22 M-1.15 -1.6 C8.45 -9.87, 48.63 -40.08, 58.94 -47.8" stroke="#000000" stroke-width="1" fill="none"></path></g></g><mask></mask><g stroke-linecap="round"><g transform="translate(107.77345031983421 86.0954488791258) rotate(30.634454602029265 29.815748562024297 -25.052846186781153)"><path d="M-0.36 -0.23 C9.47 -8.29, 49.93 -39.98, 59.99 -48.18 M1.65 -1.39 C11.22 -9.81, 49.33 -42.06, 58.92 -49.88" stroke="#000000" stroke-width="1" fill="none"></path></g></g><mask></mask><g stroke-linecap="round"><g transform="translate(226.89215342814435 156.53196072703577) rotate(293.790076999007 29.613509088506305 -24.698701538551177)"><path d="M-0.23 -0.24 C9.91 -8.37, 51.03 -41.11, 61.03 -49.16 M-1.81 -1.41 C8.23 -9.32, 50.4 -39.51, 60.51 -47.72" stroke="#000000" stroke-width="1" fill="none"></path></g></g><mask></mask><g stroke-linecap="round"><g transform="translate(238.13855501783428 155.66609851853264) rotate(293.790076999007 29.114330670408293 -24.30286256935051)"><path d="M-0.24 0.8 C9.83 -7.39, 49.9 -40.98, 60.05 -49.41 M-1.82 0.18 C8.11 -7.83, 48.68 -39.93, 59.01 -48.1" stroke="#000000" stroke-width="1" fill="none"></path></g></g><mask></mask><g stroke-linecap="round"><g transform="translate(156.2007456041186 74.54792594565424) rotate(30.634454602029265 56.84647563698297 -1.6456980174325508)"><path d="M0.8 -0.18 C19.83 -0.35, 95.13 -0.85, 113.93 -1.22 M-0.24 -1.32 C18.61 -1.83, 93.37 -3.08, 112.76 -3.11" stroke="#000000" stroke-width="1" fill="none"></path></g></g><mask></mask><g transform="translate(174.39535528447283 75.47408183604512) rotate(30.634454602029265 55.33181954525395 -30.17379802917003)" stroke="none"><path fill="#000000" d="M -2.46,0 Q -2.46,0 -2.47,-1.37 -2.47,-2.75 -2.51,-5.15 -2.55,-7.55 -2.55,-8.93 -2.55,-10.32 -2.37,-11.85 -2.19,-13.38 -1.78,-14.91 -1.36,-16.45 -0.86,-17.89 -0.37,-19.32 0.49,-21.33 1.35,-23.35 1.70,-24.48 2.04,-25.60 2.32,-26.68 2.60,-27.75 2.84,-28.85 3.09,-29.95 3.52,-31.16 3.95,-32.38 4.65,-34.23 5.36,-36.08 6.25,-37.84 7.14,-39.61 8.05,-41.22 8.97,-42.82 9.69,-43.73 10.42,-44.64 11.14,-45.43 11.87,-46.22 12.75,-47.10 13.64,-47.99 14.66,-48.86 15.68,-49.72 16.69,-50.51 17.69,-51.29 18.96,-52.24 20.24,-53.20 21.76,-54.04 23.29,-54.88 24.44,-55.49 25.59,-56.10 26.81,-56.79 28.04,-57.47 29.29,-58.01 30.54,-58.55 31.51,-59.02 32.48,-59.48 34.13,-60.17 35.78,-60.86 37.51,-61.41 39.24,-61.96 40.37,-62.12 41.50,-62.28 43.12,-62.58 44.74,-62.87 46.23,-62.96 47.73,-63.04 49.03,-63.24 50.33,-63.43 51.43,-63.50 52.54,-63.57 53.63,-63.60 54.72,-63.63 56.13,-63.67 57.54,-63.71 59.01,-63.74 60.49,-63.76 61.56,-63.79 62.64,-63.83 63.79,-63.85 64.95,-63.87 66.72,-63.50 68.50,-63.13 70.66,-62.26 72.81,-61.39 74.42,-60.84 76.02,-60.29 77.29,-59.67 78.55,-59.04 79.86,-58.35 81.16,-57.65 82.89,-56.76 84.61,-55.87 86.13,-54.85 87.64,-53.82 88.67,-53.18 89.69,-52.55 90.72,-51.64 91.76,-50.72 92.59,-49.91 93.42,-49.10 94.33,-48.20 95.24,-47.29 96.05,-46.49 96.86,-45.68 97.57,-44.82 98.28,-43.95 98.98,-42.89 99.68,-41.82 100.37,-40.93 101.06,-40.04 101.96,-38.64 102.87,-37.24 103.50,-36.36 104.14,-35.48 105.00,-33.94 105.86,-32.40 106.61,-30.97 107.37,-29.55 107.99,-28.16 108.61,-26.76 109.06,-25.62 109.50,-24.47 109.91,-23.45 110.32,-22.43 110.91,-20.86 111.49,-19.29 111.94,-17.61 112.40,-15.94 112.47,-14.60 112.55,-13.26 112.71,-12.19 112.87,-11.11 113.05,-10.02 113.24,-8.93 113.47,-7.64 113.70,-6.34 114.03,-4.55 114.35,-2.76 114.32,-2.16 114.30,-1.55 114.08,-0.99 113.86,-0.43 113.47,0.02 113.08,0.48 112.56,0.80 112.05,1.11 111.46,1.25 110.87,1.38 110.27,1.32 109.67,1.25 109.12,1.00 108.57,0.75 108.13,0.34 107.69,-0.06 107.40,-0.59 107.12,-1.12 107.02,-1.72 106.92,-2.32 107.01,-2.91 107.10,-3.51 107.38,-4.04 107.66,-4.58 108.10,-4.99 108.54,-5.41 109.08,-5.67 109.63,-5.93 110.23,-5.99 110.83,-6.06 111.42,-5.94 112.01,-5.81 112.53,-5.50 113.05,-5.19 113.44,-4.74 113.83,-4.28 114.06,-3.72 114.29,-3.16 114.32,-2.56 114.36,-1.95 114.20,-1.37 114.04,-0.79 113.71,-0.29 113.37,0.20 112.89,0.57 112.41,0.94 111.84,1.14 111.27,1.33 110.67,1.34 110.06,1.34 109.49,1.15 108.92,0.96 108.43,0.60 107.95,0.23 107.61,-0.25 107.27,-0.75 107.10,-1.33 106.94,-1.91 106.94,-1.91 106.94,-1.91 106.78,-4.15 106.63,-6.38 106.30,-7.63 105.97,-8.88 105.65,-10.30 105.33,-11.72 105.34,-12.90 105.35,-14.08 105.19,-15.31 105.03,-16.54 104.65,-17.69 104.26,-18.85 103.83,-19.95 103.39,-21.06 103.00,-22.13 102.62,-23.19 102.22,-24.21 101.83,-25.24 101.15,-26.52 100.47,-27.80 99.80,-29.05 99.13,-30.31 98.35,-31.47 97.56,-32.64 96.99,-33.64 96.41,-34.63 95.44,-35.82 94.47,-37.02 93.83,-37.95 93.19,-38.88 92.53,-39.80 91.88,-40.72 91.08,-41.52 90.28,-42.33 89.39,-43.22 88.50,-44.11 87.74,-44.86 86.99,-45.61 86.05,-46.45 85.11,-47.29 83.88,-48.10 82.66,-48.92 81.46,-49.74 80.26,-50.57 78.96,-51.14 77.66,-51.72 76.64,-52.27 75.61,-52.83 74.54,-53.38 73.46,-53.93 71.88,-54.43 70.30,-54.93 69.23,-55.29 68.16,-55.65 66.52,-56.23 64.88,-56.81 63.76,-56.84 62.64,-56.86 61.56,-56.89 60.49,-56.92 59.02,-56.95 57.54,-56.98 56.14,-57.01 54.75,-57.05 53.27,-57.08 51.79,-57.11 50.68,-57.09 49.57,-57.08 47.96,-56.95 46.35,-56.82 45.19,-56.78 44.04,-56.75 42.44,-56.53 40.85,-56.31 39.30,-55.91 37.74,-55.51 36.25,-55.02 34.75,-54.54 32.73,-53.70 30.70,-52.86 29.42,-52.09 28.13,-51.32 27.04,-50.74 25.96,-50.17 24.86,-49.52 23.76,-48.88 22.55,-47.79 21.33,-46.70 20.43,-45.97 19.53,-45.24 18.72,-44.53 17.91,-43.82 16.47,-42.30 15.02,-40.78 14.09,-39.56 13.16,-38.34 12.24,-36.72 11.32,-35.11 10.53,-33.61 9.74,-32.12 9.03,-30.41 8.33,-28.69 8.03,-27.50 7.73,-26.31 7.39,-25.17 7.05,-24.04 6.59,-22.59 6.13,-21.14 5.27,-19.40 4.41,-17.67 3.97,-16.38 3.53,-15.10 3.20,-13.92 2.86,-12.75 2.70,-11.53 2.55,-10.32 2.55,-8.93 2.55,-7.55 2.51,-5.15 2.47,-2.75 2.47,-1.37 2.46,0 2.42,0.29 2.39,0.58 2.28,0.86 2.18,1.14 2.01,1.38 1.84,1.63 1.62,1.82 1.39,2.02 1.13,2.16 0.87,2.30 0.58,2.37 0.29,2.44 -0.00,2.44 -0.29,2.44 -0.58,2.37 -0.87,2.30 -1.13,2.16 -1.39,2.02 -1.62,1.82 -1.84,1.63 -2.01,1.38 -2.18,1.14 -2.28,0.86 -2.39,0.58 -2.42,0.29 -2.46,-0.00 -2.46,-0.00 L -2.46,0 Z"></path></g><g stroke-linecap="round"><g transform="translate(-12.30503656843635 206.40635733159525) rotate(30.634454602029265 214.06377031081166 -23.981458289297734)"><path d="M-0.43 -9.85 C55.51 -9.82, 265.32 -5.47, 336.44 -10.33 C407.56 -15.18, 411.08 -33.85, 426.29 -38.98 M1.55 -10.66 C57.8 -10.49, 267.58 -4.18, 338.75 -9.19 C409.92 -14.2, 413.67 -35.47, 428.56 -40.7" stroke="#000000" stroke-width="1" fill="none"></path></g></g><mask></mask><g stroke-linecap="round"><g transform="translate(262.9741437817222 301.91753845851963) rotate(30.634454602029265 113.4916920572889 0.647392841524379)"><path d="M0.44 -0.77 C38.23 -0.35, 188.53 1.35, 226.54 2.06" stroke="#000000" stroke-width="1.5" fill="none" stroke-dasharray="8 9"></path></g></g><mask></mask><g stroke-linecap="round"><g transform="translate(381.05408118162876 277.73209223295635) rotate(360.48585290067365 103.34335493409534 29.86048494571196)"><path d="M-0.77 -0.76 C1.84 0.07, 10.13 -2.95, 15.25 5.45 C20.36 13.85, 17.28 41.27, 29.91 49.64 C42.55 58, 77.29 62.39, 91.04 55.64 C104.78 48.88, 93.22 18.26, 112.39 9.11 C131.57 -0.05, 190.47 2.19, 206.11 0.71 M1.03 1.46 C4.03 1.95, 12.63 -4.21, 17.33 3.95 C22.04 12.12, 16.97 41.61, 29.27 50.44 C41.57 59.27, 76.95 64.28, 91.14 56.94 C105.33 49.6, 95.02 15.93, 114.4 6.4 C133.79 -3.12, 192.04 1.05, 207.46 -0.22" stroke="#000000" stroke-width="1" fill="none"></path></g></g><mask></mask></svg>