<svg version="1.1" xmlns="http://www.w3.org/2000/svg" viewBox="0 0 638.498925411993 303.80527164612863" width="1276.997850823986" height="607.6105432922573">
  <!-- svg-source:excalidraw -->
  
  <defs>
    <style class="style-fonts">
      @font-face {
        font-family: "Virgil";
        src: url("https://excalidraw.com/Virgil.woff2");
      }
      @font-face {
        font-family: "Cascadia";
        src: url("https://excalidraw.com/Cascadia.woff2");
      }
    </style>
  </defs>
  <g stroke-linecap="round" transform="translate(10 116.3256679156791) rotate(0 33.9783361051156 35.05532324337378)"><path d="M22.77 2.39 C28.65 -0.22, 36.84 0.63, 43.31 2.39 C49.78 4.14, 57.5 7.74, 61.59 12.92 C65.69 18.1, 67.79 26.49, 67.86 33.46 C67.94 40.43, 65.79 49.06, 62.04 54.72 C58.29 60.38, 51.84 65.18, 45.37 67.44 C38.91 69.7, 29.58 70.26, 23.25 68.29 C16.91 66.31, 11.18 60.93, 7.36 55.61 C3.55 50.28, 0.6 42.93, 0.36 36.33 C0.13 29.74, 1.67 21.76, 5.95 16.03 C10.22 10.3, 22.34 4.37, 26 1.98 C29.65 -0.41, 27.92 1.4, 27.89 1.7 M23 2.79 C29.2 0.3, 39.6 -0.45, 45.92 1.55 C52.23 3.56, 57.2 9.12, 60.9 14.8 C64.61 20.49, 68.04 28.94, 68.14 35.66 C68.24 42.38, 65.49 49.8, 61.52 55.11 C57.56 60.42, 50.67 65.28, 44.37 67.54 C38.07 69.8, 29.85 70.95, 23.71 68.69 C17.58 66.43, 11.5 59.68, 7.58 53.98 C3.65 48.28, 0.57 41.23, 0.18 34.49 C-0.22 27.76, 1.38 18.86, 5.22 13.57 C9.07 8.29, 20.36 4.89, 23.25 2.78 C26.14 0.67, 22.26 0.56, 22.58 0.92" stroke="#000000" stroke-width="1" fill="none"></path></g><g stroke-linecap="round" transform="translate(255.50803359016174 115.37076993772803) rotate(0 33.9783361051156 35.05532324337378)"><path d="M20.75 2.5 C26.35 -0.46, 35.84 -0.14, 42.12 1.38 C48.41 2.91, 54.3 6.6, 58.44 11.66 C62.59 16.71, 66.21 24.83, 66.97 31.71 C67.73 38.59, 66.35 47.18, 63.01 52.93 C59.66 58.68, 53.03 63.4, 46.92 66.2 C40.82 69, 32.89 70.97, 26.39 69.73 C19.89 68.48, 12.21 63.94, 7.93 58.72 C3.64 53.51, 1.05 45.19, 0.66 38.43 C0.28 31.66, 1.87 24.17, 5.59 18.13 C9.3 12.09, 19.77 4.92, 22.95 2.21 C26.12 -0.5, 24.69 1.44, 24.63 1.88 M27.86 2.03 C33.87 0.17, 41.43 -0.34, 47.36 2.24 C53.3 4.82, 59.99 11.44, 63.45 17.52 C66.92 23.6, 68.95 31.87, 68.15 38.69 C67.35 45.52, 63.26 53.29, 58.63 58.46 C53.99 63.64, 46.64 68.1, 40.33 69.76 C34.01 71.41, 26.92 71.2, 20.72 68.4 C14.53 65.6, 6.66 59.32, 3.18 52.95 C-0.3 46.59, -0.94 37.15, -0.15 30.21 C0.64 23.27, 3.24 16.43, 7.9 11.31 C12.57 6.19, 24.91 1.05, 27.84 -0.52 C30.77 -2.09, 25.54 1.14, 25.45 1.89" stroke="#000000" stroke-width="1" fill="none"></path></g><g stroke-linecap="round"><g transform="translate(58.216330604677296 118.09929894949687) rotate(0 30.267780167715017 -23.937750443420896)"><path d="M-0.81 -0.99 C9.55 -9.1, 51.09 -40.89, 61.34 -48.98 M0.97 1.1 C11.34 -6.77, 51.1 -39.17, 60.98 -47.44" stroke="#000000" stroke-width="1" fill="none"></path></g></g><mask></mask><g stroke-linecap="round"><g transform="translate(69.47959999272962 125.72162657150216) rotate(0 29.62036254565544 -24.60900401609547)"><path d="M-0.99 1.11 C9.1 -6.83, 50.12 -40.31, 60.23 -48.47 M0.69 0.65 C10.65 -7.58, 49.63 -41.94, 59.29 -50.33" stroke="#000000" stroke-width="1" fill="none"></path></g></g><mask></mask><g stroke-linecap="round"><g transform="translate(208.07382839181867 125.68334864287749) rotate(263.1556223969778 30.486716660459848 -24.758849288929014)"><path d="M1.11 0 C11.37 -8.09, 50.7 -41.47, 60.74 -49.52 M0.24 -1.04 C10.45 -8.89, 49.91 -40.06, 60.05 -48.27" stroke="#000000" stroke-width="1" fill="none"></path></g></g><mask></mask><g stroke-linecap="round"><g transform="translate(217.58079742306256 119.40674135523) rotate(263.1556223969778 29.11703643950014 -24.471829578304323)"><path d="M0 0.51 C10.12 -7.66, 49.54 -39.47, 59.69 -47.9 M-1.46 -0.27 C8.54 -8.24, 48.13 -41.27, 58.46 -49.45" stroke="#000000" stroke-width="1" fill="none"></path></g></g><mask></mask><g stroke-linecap="round"><g transform="translate(113.41883174641544 74.06861511274451) rotate(0 57.37665546941167 -0.46981513102628014)"><path d="M0.51 -0.54 C19.56 -0.7, 96.65 -0.77, 115.44 -0.97 M-0.69 1.79 C18.21 1.28, 95.68 -2.35, 115.06 -2.73" stroke="#000000" stroke-width="1" fill="none"></path></g></g><mask></mask><g transform="translate(115.22069935370723 70.34759605833983) rotate(0 55.33181954525395 -30.173798029169916)" stroke="none"><path fill="#000000" d="M -2.46,0 Q -2.46,0 -2.47,-1.37 -2.47,-2.75 -2.51,-5.15 -2.55,-7.55 -2.55,-8.93 -2.55,-10.32 -2.37,-11.85 -2.19,-13.38 -1.78,-14.91 -1.36,-16.45 -0.86,-17.89 -0.37,-19.32 0.49,-21.33 1.35,-23.35 1.70,-24.48 2.04,-25.60 2.32,-26.68 2.60,-27.75 2.84,-28.85 3.09,-29.95 3.52,-31.16 3.95,-32.38 4.65,-34.23 5.36,-36.08 6.25,-37.84 7.14,-39.61 8.05,-41.22 8.97,-42.82 9.69,-43.73 10.42,-44.64 11.14,-45.43 11.87,-46.22 12.75,-47.10 13.64,-47.99 14.66,-48.86 15.68,-49.72 16.69,-50.51 17.69,-51.29 18.96,-52.24 20.24,-53.20 21.76,-54.04 23.29,-54.88 24.44,-55.49 25.59,-56.10 26.81,-56.79 28.04,-57.47 29.29,-58.01 30.54,-58.55 31.51,-59.02 32.48,-59.48 34.13,-60.17 35.78,-60.86 37.51,-61.41 39.24,-61.96 40.37,-62.12 41.50,-62.28 43.12,-62.58 44.74,-62.87 46.23,-62.96 47.73,-63.04 49.03,-63.24 50.33,-63.43 51.43,-63.50 52.54,-63.57 53.63,-63.60 54.72,-63.63 56.13,-63.67 57.54,-63.71 59.01,-63.74 60.49,-63.76 61.56,-63.79 62.64,-63.83 63.79,-63.85 64.95,-63.87 66.72,-63.50 68.50,-63.13 70.66,-62.26 72.81,-61.39 74.42,-60.84 76.02,-60.29 77.29,-59.67 78.55,-59.04 79.86,-58.35 81.16,-57.65 82.89,-56.76 84.61,-55.87 86.13,-54.85 87.64,-53.82 88.67,-53.18 89.69,-52.55 90.72,-51.64 91.76,-50.72 92.59,-49.91 93.42,-49.10 94.33,-48.20 95.24,-47.29 96.05,-46.49 96.86,-45.68 97.57,-44.82 98.28,-43.95 98.98,-42.89 99.68,-41.82 100.37,-40.93 101.06,-40.04 101.96,-38.64 102.87,-37.24 103.50,-36.36 104.14,-35.48 105.00,-33.94 105.86,-32.40 106.61,-30.97 107.37,-29.55 107.99,-28.16 108.61,-26.76 109.06,-25.62 109.50,-24.47 109.91,-23.45 110.32,-22.43 110.91,-20.86 111.49,-19.29 111.94,-17.61 112.40,-15.94 112.47,-14.60 112.55,-13.26 112.71,-12.19 112.87,-11.11 113.05,-10.02 113.24,-8.93 113.47,-7.64 113.70,-6.34 114.03,-4.55 114.35,-2.76 114.32,-2.16 114.30,-1.55 114.08,-0.99 113.86,-0.43 113.47,0.02 113.08,0.48 112.56,0.80 112.05,1.11 111.46,1.25 110.87,1.38 110.27,1.32 109.67,1.25 109.12,1.00 108.57,0.75 108.13,0.34 107.69,-0.06 107.40,-0.59 107.12,-1.12 107.02,-1.72 106.92,-2.32 107.01,-2.91 107.10,-3.51 107.38,-4.04 107.66,-4.58 108.10,-4.99 108.54,-5.41 109.08,-5.67 109.63,-5.93 110.23,-5.99 110.83,-6.06 111.42,-5.94 112.01,-5.81 112.53,-5.50 113.05,-5.19 113.44,-4.74 113.83,-4.28 114.06,-3.72 114.29,-3.16 114.32,-2.56 114.36,-1.95 114.20,-1.37 114.04,-0.79 113.71,-0.29 113.37,0.20 112.89,0.57 112.41,0.94 111.84,1.14 111.27,1.33 110.67,1.34 110.06,1.34 109.49,1.15 108.92,0.96 108.43,0.60 107.95,0.23 107.61,-0.25 107.27,-0.75 107.10,-1.33 106.94,-1.91 106.94,-1.91 106.94,-1.91 106.78,-4.15 106.63,-6.38 106.30,-7.63 105.97,-8.88 105.65,-10.30 105.33,-11.72 105.34,-12.90 105.35,-14.08 105.19,-15.31 105.03,-16.54 104.65,-17.69 104.26,-18.85 103.83,-19.95 103.39,-21.06 103.00,-22.13 102.62,-23.19 102.22,-24.21 101.83,-25.24 101.15,-26.52 100.47,-27.80 99.80,-29.05 99.13,-30.31 98.35,-31.47 97.56,-32.64 96.99,-33.64 96.41,-34.63 95.44,-35.82 94.47,-37.02 93.83,-37.95 93.19,-38.88 92.53,-39.80 91.88,-40.72 91.08,-41.52 90.28,-42.33 89.39,-43.22 88.50,-44.11 87.74,-44.86 86.99,-45.61 86.05,-46.45 85.11,-47.29 83.88,-48.10 82.66,-48.92 81.46,-49.74 80.26,-50.57 78.96,-51.14 77.66,-51.72 76.64,-52.27 75.61,-52.83 74.54,-53.38 73.46,-53.93 71.88,-54.43 70.30,-54.93 69.23,-55.29 68.16,-55.65 66.52,-56.23 64.88,-56.81 63.76,-56.84 62.64,-56.86 61.56,-56.89 60.49,-56.92 59.02,-56.95 57.54,-56.98 56.14,-57.01 54.75,-57.05 53.27,-57.08 51.79,-57.11 50.68,-57.09 49.57,-57.08 47.96,-56.95 46.35,-56.82 45.19,-56.78 44.04,-56.75 42.44,-56.53 40.85,-56.31 39.30,-55.91 37.74,-55.51 36.25,-55.02 34.75,-54.54 32.73,-53.70 30.70,-52.86 29.42,-52.09 28.13,-51.32 27.04,-50.74 25.96,-50.17 24.86,-49.52 23.76,-48.88 22.55,-47.79 21.33,-46.70 20.43,-45.97 19.53,-45.24 18.72,-44.53 17.91,-43.82 16.47,-42.30 15.02,-40.78 14.09,-39.56 13.16,-38.34 12.24,-36.72 11.32,-35.11 10.53,-33.61 9.74,-32.12 9.03,-30.41 8.33,-28.69 8.03,-27.50 7.73,-26.31 7.39,-25.17 7.05,-24.04 6.59,-22.59 6.13,-21.14 5.27,-19.40 4.41,-17.67 3.97,-16.38 3.53,-15.10 3.20,-13.92 2.86,-12.75 2.70,-11.53 2.55,-10.32 2.55,-8.93 2.55,-7.55 2.51,-5.15 2.47,-2.75 2.47,-1.37 2.46,0 2.42,0.29 2.39,0.58 2.28,0.86 2.18,1.14 2.01,1.38 1.84,1.63 1.62,1.82 1.39,2.02 1.13,2.16 0.87,2.30 0.58,2.37 0.29,2.44 -0.00,2.44 -0.29,2.44 -0.58,2.37 -0.87,2.30 -1.13,2.16 -1.39,2.02 -1.62,1.82 -1.84,1.63 -2.01,1.38 -2.18,1.14 -2.28,0.86 -2.39,0.58 -2.42,0.29 -2.46,-0.00 -2.46,-0.00 L -2.46,0 Z"></path></g><g stroke-linecap="round"><g transform="translate(289.5423242478141 187.7090543957786) rotate(0 169.82351521144898 -1.516665259423121)"><path d="M0.69 -1.09 C57.27 -1.59, 282.54 -1.9, 338.96 -1.94" stroke="#000000" stroke-width="1.5" fill="none" stroke-dasharray="8 9"></path></g></g><mask></mask><g stroke-linecap="round"><g transform="translate(29.060136984271935 187.5639525004981) rotate(0 294.2981385019745 51.82490099935842)"><path d="M-0.81 0.58 C54.96 2.24, 235.55 -8.81, 333.52 8.8 C431.5 26.42, 544.58 89.89, 587.02 106.24 M0.97 -0.17 C56.75 1.27, 234.97 -10.25, 333.04 7.14 C431.12 24.52, 546.83 87.82, 589.4 104.13" stroke="#000000" stroke-width="1" fill="none"></path></g></g><mask></mask></svg>