<svg version="1.1" xmlns="http://www.w3.org/2000/svg" viewBox="0 0 444.2296102291374 211.2956575076314" width="888.4592204582748" height="422.5913150152628">
  <!-- svg-source:excalidraw -->
  
  <defs>
    <style class="style-fonts">
      @font-face {
        font-family: "Virgil";
        src: url("https://excalidraw.com/Virgil.woff2");
      }
      @font-face {
        font-family: "Cascadia";
        src: url("https://excalidraw.com/Cascadia.woff2");
      }
    </style>
  </defs>
  <g stroke-linecap="round" transform="translate(20.716600354981637 116.32566791567933) rotate(0 33.9783361051156 35.055323243374005)"><path d="M25.45 1.58 C31.4 -0.82, 39.96 -1.13, 45.95 1.3 C51.94 3.74, 57.82 10.39, 61.39 16.18 C64.96 21.97, 67.43 29.3, 67.37 36.04 C67.31 42.78, 65.14 51.08, 61.02 56.63 C56.91 62.18, 49.07 67.47, 42.68 69.34 C36.29 71.21, 28.85 70.33, 22.68 67.85 C16.51 65.37, 9.54 60.15, 5.65 54.48 C1.75 48.8, -0.9 40.65, -0.69 33.78 C-0.49 26.91, 2.43 18.65, 6.89 13.25 C11.34 7.85, 22.51 3.44, 26.06 1.39 C29.62 -0.65, 27.86 0.62, 28.22 0.99 M27.47 0.37 C33.53 -1.78, 40.45 -0.83, 46.27 2.1 C52.08 5.02, 58.53 12.03, 62.36 17.93 C66.19 23.83, 69.62 30.76, 69.25 37.5 C68.87 44.24, 64.73 53.31, 60.11 58.38 C55.49 63.45, 48.25 66.24, 41.53 67.89 C34.81 69.55, 25.83 70.58, 19.79 68.31 C13.75 66.04, 8.6 60.36, 5.28 54.28 C1.97 48.19, -0.5 38.68, -0.1 31.82 C0.3 24.95, 3.57 18.46, 7.71 13.08 C11.84 7.69, 21.62 1.4, 24.71 -0.5 C27.79 -2.39, 25.71 0.84, 26.2 1.7" stroke="#000000" stroke-width="1" fill="none"></path></g><g stroke-linecap="round" transform="translate(266.2246339451433 115.37076993772826) rotate(0 33.9783361051156 35.05532324337355)"><path d="M39.79 0.76 C45.95 1.1, 52.61 4.91, 57.35 9.66 C62.1 14.41, 67.17 22.3, 68.25 29.28 C69.33 36.25, 67.02 45.43, 63.82 51.52 C60.63 57.61, 54.91 62.73, 49.11 65.81 C43.3 68.9, 35.56 71.07, 28.98 70.02 C22.4 68.97, 14.43 64.61, 9.64 59.53 C4.86 54.45, 1.22 46.39, 0.25 39.56 C-0.71 32.73, 0.78 24.61, 3.84 18.54 C6.9 12.47, 12.24 6.17, 18.62 3.15 C24.99 0.13, 38 0.45, 42.09 0.42 C46.17 0.39, 43.46 2.41, 43.13 2.98 M25.08 0.4 C30.95 -1.99, 39.62 -0.93, 46.1 1.97 C52.59 4.88, 60.41 11.87, 64 17.82 C67.59 23.77, 68.19 31.15, 67.63 37.7 C67.07 44.24, 65.08 52.08, 60.65 57.1 C56.21 62.12, 47.44 66.03, 41.02 67.82 C34.61 69.6, 27.98 70.22, 22.15 67.83 C16.32 65.44, 9.82 59.41, 6.05 53.48 C2.28 47.56, -0.9 39.31, -0.47 32.28 C-0.04 25.24, 4.54 16.48, 8.65 11.29 C12.77 6.09, 21.35 2.56, 24.22 1.11 C27.09 -0.33, 25.47 2.09, 25.9 2.61" stroke="#000000" stroke-width="1" fill="none"></path></g><g stroke-linecap="round"><g transform="translate(68.93293095965893 118.0992989494971) rotate(0 29.843350567029177 -24.64230477156616)"><path d="M-0.67 0.4 C9.44 -7.48, 50.16 -39.88, 60.35 -48.05 M1.19 -0.44 C11.16 -8.57, 49.68 -41.29, 59.47 -49.68" stroke="#000000" stroke-width="1" fill="none"></path></g></g><mask></mask><g stroke-linecap="round"><g transform="translate(80.19620034771125 125.72162657150238) rotate(0 30.15333623980483 -25.272961670063523)"><path d="M0.4 0.12 C10.72 -7.88, 51.13 -40.34, 61.16 -48.69 M-0.86 -0.86 C9.47 -9.19, 50.56 -42.61, 60.7 -50.67" stroke="#000000" stroke-width="1" fill="none"></path></g></g><mask></mask><g stroke-linecap="round"><g transform="translate(218.79042874680022 125.68334864287772) rotate(263.1556223969778 29.620751001409587 -24.822109002941943)"><path d="M0.12 0.93 C10.32 -7.24, 50.66 -40.16, 60.52 -48.63 M-1.27 0.38 C8.85 -8.21, 49.24 -42.33, 59.72 -50.58" stroke="#000000" stroke-width="1" fill="none"></path></g></g><mask></mask><g stroke-linecap="round"><g transform="translate(228.29739777804411 119.40674135523022) rotate(263.1556223969778 30.268708423872795 -24.848515965450133)"><path d="M0.93 0.28 C10.96 -8.07, 50.85 -41.91, 60.58 -49.98 M-0.04 -0.61 C9.83 -8.86, 49.52 -40.72, 59.81 -48.97" stroke="#000000" stroke-width="1" fill="none"></path></g></g><mask></mask><g stroke-linecap="round"><g transform="translate(124.13543210139707 74.06861511274474) rotate(0 57.25777933544076 -1.1351111854714873)"><path d="M0.28 0.34 C19.16 -0.25, 94.21 -2.17, 113.36 -2.61 M-1.03 -0.52 C18.2 -1.07, 96.23 -1.44, 115.54 -1.58" stroke="#000000" stroke-width="1" fill="none"></path></g></g><mask></mask><g transform="translate(125.93729970868887 70.34759605834006) rotate(0 55.331819545253964 -30.17379802917003)" stroke="none"><path fill="#000000" d="M -2.46,0 Q -2.46,0 -2.47,-1.37 -2.47,-2.75 -2.51,-5.15 -2.55,-7.55 -2.55,-8.93 -2.55,-10.32 -2.37,-11.85 -2.19,-13.38 -1.78,-14.91 -1.36,-16.45 -0.86,-17.89 -0.37,-19.32 0.49,-21.33 1.35,-23.35 1.70,-24.48 2.04,-25.60 2.32,-26.68 2.60,-27.75 2.84,-28.85 3.09,-29.95 3.52,-31.16 3.95,-32.38 4.65,-34.23 5.36,-36.08 6.25,-37.84 7.14,-39.61 8.05,-41.22 8.97,-42.82 9.69,-43.73 10.42,-44.64 11.14,-45.43 11.87,-46.22 12.75,-47.10 13.64,-47.99 14.66,-48.86 15.68,-49.72 16.69,-50.51 17.69,-51.29 18.96,-52.24 20.24,-53.20 21.76,-54.04 23.29,-54.88 24.44,-55.49 25.59,-56.10 26.81,-56.79 28.04,-57.47 29.29,-58.01 30.54,-58.55 31.51,-59.02 32.48,-59.48 34.13,-60.17 35.78,-60.86 37.51,-61.41 39.24,-61.96 40.37,-62.12 41.50,-62.28 43.12,-62.58 44.74,-62.87 46.23,-62.96 47.73,-63.04 49.03,-63.24 50.33,-63.43 51.43,-63.50 52.54,-63.57 53.63,-63.60 54.72,-63.63 56.13,-63.67 57.54,-63.71 59.01,-63.74 60.49,-63.76 61.56,-63.79 62.64,-63.83 63.79,-63.85 64.95,-63.87 66.72,-63.50 68.50,-63.13 70.66,-62.26 72.81,-61.39 74.42,-60.84 76.02,-60.29 77.29,-59.67 78.55,-59.04 79.86,-58.35 81.16,-57.65 82.89,-56.76 84.61,-55.87 86.13,-54.85 87.64,-53.82 88.67,-53.18 89.69,-52.55 90.72,-51.64 91.76,-50.72 92.59,-49.91 93.42,-49.10 94.33,-48.20 95.24,-47.29 96.05,-46.49 96.86,-45.68 97.57,-44.82 98.28,-43.95 98.98,-42.89 99.68,-41.82 100.37,-40.93 101.06,-40.04 101.96,-38.64 102.87,-37.24 103.50,-36.36 104.14,-35.48 105.00,-33.94 105.86,-32.40 106.61,-30.97 107.37,-29.55 107.99,-28.16 108.61,-26.76 109.06,-25.62 109.50,-24.47 109.91,-23.45 110.32,-22.43 110.91,-20.86 111.49,-19.29 111.94,-17.61 112.40,-15.94 112.47,-14.60 112.55,-13.26 112.71,-12.19 112.87,-11.11 113.05,-10.02 113.24,-8.93 113.47,-7.64 113.70,-6.34 114.03,-4.55 114.35,-2.76 114.32,-2.16 114.30,-1.55 114.08,-0.99 113.86,-0.43 113.47,0.02 113.08,0.48 112.56,0.80 112.05,1.11 111.46,1.25 110.87,1.38 110.27,1.32 109.67,1.25 109.12,1.00 108.57,0.75 108.13,0.34 107.69,-0.06 107.40,-0.59 107.12,-1.12 107.02,-1.72 106.92,-2.32 107.01,-2.91 107.10,-3.51 107.38,-4.04 107.66,-4.58 108.10,-4.99 108.54,-5.41 109.08,-5.67 109.63,-5.93 110.23,-5.99 110.83,-6.06 111.42,-5.94 112.01,-5.81 112.53,-5.50 113.05,-5.19 113.44,-4.74 113.83,-4.28 114.06,-3.72 114.29,-3.16 114.32,-2.56 114.36,-1.95 114.20,-1.37 114.04,-0.79 113.71,-0.29 113.37,0.20 112.89,0.57 112.41,0.94 111.84,1.14 111.27,1.33 110.67,1.34 110.06,1.34 109.49,1.15 108.92,0.96 108.43,0.60 107.95,0.23 107.61,-0.25 107.27,-0.75 107.10,-1.33 106.94,-1.91 106.94,-1.91 106.94,-1.91 106.78,-4.15 106.63,-6.38 106.30,-7.63 105.97,-8.88 105.65,-10.30 105.33,-11.72 105.34,-12.90 105.35,-14.08 105.19,-15.31 105.03,-16.54 104.65,-17.69 104.26,-18.85 103.83,-19.95 103.39,-21.06 103.00,-22.13 102.62,-23.19 102.22,-24.21 101.83,-25.24 101.15,-26.52 100.47,-27.80 99.80,-29.05 99.13,-30.31 98.35,-31.47 97.56,-32.64 96.99,-33.64 96.41,-34.63 95.44,-35.82 94.47,-37.02 93.83,-37.95 93.19,-38.88 92.53,-39.80 91.88,-40.72 91.08,-41.52 90.28,-42.33 89.39,-43.22 88.50,-44.11 87.74,-44.86 86.99,-45.61 86.05,-46.45 85.11,-47.29 83.88,-48.10 82.66,-48.92 81.46,-49.74 80.26,-50.57 78.96,-51.14 77.66,-51.72 76.64,-52.27 75.61,-52.83 74.54,-53.38 73.46,-53.93 71.88,-54.43 70.30,-54.93 69.23,-55.29 68.16,-55.65 66.52,-56.23 64.88,-56.81 63.76,-56.84 62.64,-56.86 61.56,-56.89 60.49,-56.92 59.02,-56.95 57.54,-56.98 56.14,-57.01 54.75,-57.05 53.27,-57.08 51.79,-57.11 50.68,-57.09 49.57,-57.08 47.96,-56.95 46.35,-56.82 45.19,-56.78 44.04,-56.75 42.44,-56.53 40.85,-56.31 39.30,-55.91 37.74,-55.51 36.25,-55.02 34.75,-54.54 32.73,-53.70 30.70,-52.86 29.42,-52.09 28.13,-51.32 27.04,-50.74 25.96,-50.17 24.86,-49.52 23.76,-48.88 22.55,-47.79 21.33,-46.70 20.43,-45.97 19.53,-45.24 18.72,-44.53 17.91,-43.82 16.47,-42.30 15.02,-40.78 14.09,-39.56 13.16,-38.34 12.24,-36.72 11.32,-35.11 10.53,-33.61 9.74,-32.12 9.03,-30.41 8.33,-28.69 8.03,-27.50 7.73,-26.31 7.39,-25.17 7.05,-24.04 6.59,-22.59 6.13,-21.14 5.27,-19.40 4.41,-17.67 3.97,-16.38 3.53,-15.10 3.20,-13.92 2.86,-12.75 2.70,-11.53 2.55,-10.32 2.55,-8.93 2.55,-7.55 2.51,-5.15 2.47,-2.75 2.47,-1.37 2.46,0 2.42,0.29 2.39,0.58 2.28,0.86 2.18,1.14 2.01,1.38 1.84,1.63 1.62,1.82 1.39,2.02 1.13,2.16 0.87,2.30 0.58,2.37 0.29,2.44 -0.00,2.44 -0.29,2.44 -0.58,2.37 -0.87,2.30 -1.13,2.16 -1.39,2.02 -1.62,1.82 -1.84,1.63 -2.01,1.38 -2.18,1.14 -2.28,0.86 -2.39,0.58 -2.42,0.29 -2.46,-0.00 -2.46,-0.00 L -2.46,0 Z"></path></g><g stroke-linecap="round"><g transform="translate(11.002708780393021 186.94491292463954) rotate(0 211.1120963341757 -0.24361936428385889)"><path d="M-1 -0.96 C69.49 -1.29, 352.72 -1.7, 423.23 -1.64 M0.67 1.16 C71.05 0.94, 352.63 0.19, 422.7 -0.46" stroke="#000000" stroke-width="1" fill="none"></path></g></g><mask></mask><g transform="translate(361.9167245896531 138.23114175161663) rotate(0 -1.4321556046062938 21.990209666986175)" stroke="none"><path fill="#2b8a3e" d="M 2.39,0 Q 2.39,0 2.42,1.21 2.46,2.43 2.50,3.50 2.53,4.58 2.58,6.87 2.62,9.16 2.65,10.26 2.67,11.37 2.69,13.49 2.71,15.62 2.69,17.05 2.67,18.47 2.55,20.42 2.42,22.37 2.39,24.04 2.35,25.71 2.38,26.98 2.42,28.25 2.45,29.46 2.48,30.66 2.55,32.64 2.63,34.62 2.33,35.90 2.02,37.19 1.83,38.71 1.64,40.23 0.24,43.43 -1.14,46.63 -1.56,46.85 -1.98,47.06 -2.45,47.13 -2.92,47.19 -3.38,47.11 -3.85,47.02 -4.26,46.79 -4.67,46.56 -4.99,46.21 -5.31,45.87 -5.50,45.43 -5.69,45.00 -5.73,44.53 -5.77,44.06 -5.66,43.60 -5.55,43.14 -5.30,42.74 -5.05,42.34 -4.68,42.05 -4.31,41.75 -3.87,41.58 -3.43,41.41 -2.96,41.40 -2.49,41.38 -2.03,41.52 -1.58,41.65 -1.20,41.93 -0.81,42.20 -0.53,42.58 -0.25,42.96 -0.11,43.41 0.02,43.86 0.01,44.33 0.00,44.81 -0.15,45.25 -0.31,45.70 -0.60,46.07 -0.90,46.44 -1.29,46.69 -1.69,46.95 -2.14,47.07 -2.60,47.18 -3.07,47.15 -3.54,47.11 -3.98,46.93 -4.41,46.75 -4.77,46.43 -5.12,46.12 -5.36,45.71 -5.59,45.30 -5.68,44.84 -5.78,44.38 -5.72,43.91 -5.65,43.44 -5.45,43.01 -5.24,42.59 -4.91,42.25 -4.58,41.92 -4.58,41.92 -4.58,41.92 -4.44,41.25 -4.31,40.57 -3.92,39.18 -3.54,37.80 -3.09,36.17 -2.63,34.55 -2.55,32.60 -2.48,30.66 -2.45,29.46 -2.42,28.25 -2.38,26.98 -2.35,25.71 -2.39,24.04 -2.42,22.37 -2.55,20.42 -2.67,18.47 -2.69,17.05 -2.71,15.62 -2.69,13.49 -2.67,11.37 -2.65,10.26 -2.62,9.16 -2.58,6.87 -2.53,4.58 -2.50,3.50 -2.46,2.43 -2.42,1.21 -2.39,0 -2.36,-0.28 -2.32,-0.57 -2.22,-0.84 -2.12,-1.11 -1.95,-1.35 -1.79,-1.58 -1.57,-1.78 -1.36,-1.97 -1.10,-2.10 -0.84,-2.24 -0.56,-2.31 -0.28,-2.37 0.00,-2.37 0.28,-2.37 0.56,-2.31 0.85,-2.24 1.10,-2.10 1.36,-1.97 1.57,-1.78 1.79,-1.58 1.95,-1.35 2.12,-1.11 2.22,-0.84 2.32,-0.57 2.36,-0.28 2.39,0.00 2.39,0.00 L 2.39,0 Z"></path></g><g transform="translate(375.6029577325497 131.23825227086763) rotate(0 -5.028661575981289 26.77371484827154)" stroke="none"><path fill="#2b8a3e" d="M 1.91,0 Q 1.91,0 1.99,1.19 2.06,2.39 2.13,3.56 2.19,4.74 2.23,6.02 2.28,7.30 2.31,8.63 2.34,9.96 2.20,13.09 2.07,16.22 1.97,18.84 1.87,21.46 1.11,25.51 0.35,29.56 -0.15,31.74 -0.66,33.92 -1.14,35.69 -1.62,37.46 -2.13,39.25 -2.64,41.04 -3.46,43.48 -4.29,45.93 -4.96,47.89 -5.64,49.85 -6.93,52.49 -8.22,55.14 -8.53,55.39 -8.83,55.64 -9.20,55.78 -9.56,55.92 -9.95,55.93 -10.35,55.95 -10.72,55.84 -11.10,55.73 -11.42,55.51 -11.74,55.28 -11.98,54.97 -12.21,54.65 -12.33,54.28 -12.45,53.90 -12.45,53.51 -12.44,53.12 -12.31,52.75 -12.18,52.38 -11.94,52.07 -11.70,51.76 -11.37,51.54 -11.04,51.33 -10.66,51.23 -10.28,51.13 -9.89,51.15 -9.50,51.18 -9.14,51.33 -8.77,51.48 -8.48,51.74 -8.18,52.00 -7.99,52.34 -7.79,52.67 -7.71,53.06 -7.63,53.44 -7.68,53.83 -7.72,54.22 -7.89,54.58 -8.06,54.93 -8.34,55.21 -8.61,55.49 -8.96,55.67 -9.31,55.85 -9.70,55.91 -10.08,55.97 -10.47,55.90 -10.86,55.83 -11.20,55.64 -11.55,55.45 -11.81,55.17 -12.08,54.88 -12.24,54.52 -12.40,54.16 -12.44,53.77 -12.47,53.38 -12.38,53.00 -12.29,52.61 -12.09,52.28 -11.88,51.95 -11.88,51.95 -11.88,51.95 -10.80,49.96 -9.72,47.97 -8.84,46.20 -7.96,44.42 -6.94,42.25 -5.92,40.08 -5.39,38.30 -4.85,36.52 -4.33,34.89 -3.82,33.26 -3.42,31.12 -3.03,28.97 -2.45,25.21 -1.87,21.45 -1.97,18.84 -2.07,16.22 -2.20,13.09 -2.34,9.96 -2.31,8.63 -2.28,7.30 -2.23,6.02 -2.19,4.74 -2.13,3.56 -2.06,2.39 -1.99,1.19 -1.91,0 -1.89,-0.22 -1.86,-0.45 -1.78,-0.67 -1.69,-0.89 -1.56,-1.08 -1.43,-1.27 -1.26,-1.42 -1.09,-1.57 -0.88,-1.68 -0.68,-1.79 -0.45,-1.85 -0.23,-1.90 0.00,-1.90 0.23,-1.90 0.45,-1.84 0.68,-1.79 0.88,-1.68 1.09,-1.57 1.26,-1.42 1.43,-1.27 1.56,-1.08 1.69,-0.89 1.78,-0.67 1.86,-0.45 1.89,-0.22 1.91,0.00 1.91,0.00 L 1.91,0 Z"></path></g><g transform="translate(364.75381982443275 140.8106207784058) rotate(0 -0.9652740682034846 30.242518364612806)" stroke="none"><path fill="#2b8a3e" d="M 2.07,0 Q 2.07,0 2.01,1.97 1.95,3.95 1.92,5.84 1.89,7.74 1.92,9.33 1.96,10.92 1.97,12.60 1.98,14.28 1.89,16.56 1.80,18.84 1.86,20.30 1.92,21.77 2.00,22.90 2.08,24.02 2.00,26.06 1.92,28.10 1.98,29.47 2.04,30.84 2.08,32.27 2.12,33.69 2.25,35.61 2.38,37.54 2.26,38.91 2.15,40.28 2.15,42.28 2.14,44.28 2.14,45.54 2.14,46.79 1.99,48.25 1.84,49.70 1.52,52.61 1.21,55.53 1.16,56.65 1.12,57.77 0.88,58.37 0.65,58.98 0.59,59.29 0.53,59.60 0.40,59.88 0.27,60.17 0.08,60.41 -0.11,60.65 -0.35,60.85 -0.60,61.04 -0.89,61.16 -1.17,61.29 -1.48,61.34 -1.79,61.40 -2.10,61.37 -2.41,61.35 -2.71,61.26 -3.01,61.16 -3.28,61.00 -3.54,60.83 -3.76,60.61 -3.98,60.39 -4.14,60.12 -4.30,59.85 -4.39,59.55 -4.48,59.25 -4.50,58.94 -4.51,58.63 -4.46,58.35 -4.41,58.08 -4.23,57.70 -4.05,57.32 -3.76,57.02 -3.47,56.72 -3.09,56.53 -2.72,56.34 -2.30,56.27 -1.89,56.21 -1.48,56.29 -1.06,56.36 -0.70,56.56 -0.33,56.76 -0.04,57.07 0.23,57.38 0.40,57.76 0.57,58.15 0.61,58.56 0.65,58.98 0.56,59.39 0.46,59.80 0.24,60.16 0.02,60.51 -0.30,60.78 -0.62,61.05 -1.01,61.20 -1.40,61.35 -1.82,61.36 -2.24,61.38 -2.65,61.26 -3.05,61.14 -3.39,60.90 -3.74,60.66 -3.98,60.32 -4.23,59.99 -4.36,59.59 -4.49,59.19 -4.48,58.77 -4.48,58.35 -4.34,57.95 -4.20,57.56 -3.94,57.23 -3.68,56.90 -3.33,56.67 -2.98,56.44 -2.58,56.33 -2.17,56.22 -1.75,56.25 -1.33,56.28 -0.94,56.44 -0.56,56.60 -0.24,56.88 0.06,57.15 0.28,57.52 0.49,57.88 0.57,58.29 0.66,58.70 0.65,58.84 0.65,58.98 0.59,59.29 0.53,59.60 0.40,59.88 0.27,60.17 0.08,60.41 -0.11,60.65 -0.35,60.84 -0.60,61.04 -0.89,61.16 -1.17,61.29 -1.48,61.34 -1.79,61.40 -2.10,61.37 -2.41,61.35 -2.71,61.26 -3.01,61.16 -3.28,61.00 -3.54,60.83 -3.76,60.61 -3.98,60.39 -4.14,60.12 -4.30,59.85 -4.39,59.55 -4.48,59.25 -4.50,58.94 -4.51,58.63 -4.23,58.02 -3.95,57.41 -3.84,56.21 -3.73,55.01 -3.63,53.26 -3.54,51.52 -3.45,50.33 -3.36,49.13 -3.22,47.94 -3.08,46.74 -3.00,44.39 -2.92,42.04 -2.81,40.88 -2.71,39.73 -2.54,38.63 -2.38,37.54 -2.25,35.61 -2.12,33.69 -2.08,32.27 -2.04,30.84 -1.98,29.47 -1.92,28.10 -2.00,26.06 -2.08,24.02 -2.00,22.90 -1.92,21.77 -1.86,20.30 -1.80,18.84 -1.89,16.56 -1.98,14.28 -1.97,12.60 -1.96,10.92 -1.92,9.33 -1.89,7.74 -1.92,5.84 -1.95,3.95 -2.01,1.97 -2.07,0 -2.04,-0.24 -2.01,-0.49 -1.92,-0.73 -1.83,-0.96 -1.69,-1.17 -1.55,-1.37 -1.36,-1.54 -1.17,-1.70 -0.95,-1.82 -0.73,-1.94 -0.49,-2.00 -0.25,-2.06 0.00,-2.06 0.25,-2.06 0.49,-2.00 0.73,-1.94 0.95,-1.82 1.17,-1.70 1.36,-1.54 1.55,-1.37 1.69,-1.17 1.83,-0.96 1.92,-0.73 2.01,-0.49 2.04,-0.24 2.07,0.00 2.07,0.00 L 2.07,0 Z"></path></g><g transform="translate(359.0915363436877 137.0498834113132) rotate(0 7.593809691233162 28.085057041371783)" stroke="none"><path fill="#2b8a3e" d="M 1.87,-1.06 Q 1.87,-1.06 2.70,0.42 3.54,1.91 4.68,4.44 5.82,6.96 6.34,8.32 6.85,9.69 7.39,11.05 7.92,12.41 8.45,13.77 8.99,15.12 9.55,17.13 10.12,19.13 10.55,20.81 10.99,22.48 11.42,24.22 11.84,25.97 12.20,27.77 12.55,29.56 12.88,31.09 13.20,32.62 13.58,34.29 13.96,35.96 14.29,37.74 14.63,39.51 15.00,41.52 15.36,43.53 15.72,45.25 16.07,46.96 16.39,48.53 16.71,50.09 16.91,51.33 17.11,52.56 17.26,54.47 17.41,56.38 17.36,56.74 17.32,57.10 17.16,57.42 17.00,57.75 16.75,58.00 16.50,58.26 16.18,58.42 15.86,58.59 15.50,58.64 15.14,58.69 14.79,58.63 14.44,58.56 14.12,58.39 13.81,58.21 13.56,57.95 13.32,57.68 13.17,57.35 13.03,57.02 13.00,56.67 12.96,56.31 13.05,55.96 13.13,55.61 13.32,55.30 13.51,55.00 13.79,54.77 14.07,54.54 14.41,54.41 14.74,54.29 15.10,54.27 15.46,54.26 15.81,54.36 16.15,54.46 16.45,54.67 16.74,54.88 16.95,55.17 17.17,55.46 17.27,55.80 17.38,56.14 17.38,56.50 17.37,56.86 17.25,57.20 17.13,57.54 16.91,57.82 16.68,58.11 16.38,58.30 16.08,58.50 15.73,58.59 15.39,58.68 15.03,58.66 14.67,58.63 14.33,58.49 14.00,58.35 13.73,58.12 13.46,57.88 13.28,57.57 13.10,57.25 13.03,56.90 12.96,56.55 12.96,56.55 12.96,56.55 12.93,54.77 12.90,52.99 12.87,51.89 12.83,50.79 12.58,49.24 12.34,47.69 12.03,46.02 11.72,44.35 11.18,42.32 10.64,40.29 10.30,38.60 9.96,36.91 9.53,35.16 9.10,33.41 8.83,31.90 8.57,30.39 8.21,28.70 7.84,27.02 7.36,25.28 6.87,23.54 6.48,22.01 6.09,20.49 5.36,18.65 4.63,16.81 4.11,15.44 3.59,14.07 3.07,12.68 2.55,11.28 2.03,9.85 1.51,8.42 0.67,6.22 -0.16,4.02 -1.02,2.54 -1.87,1.06 -1.97,0.82 -2.07,0.58 -2.11,0.32 -2.15,0.07 -2.13,-0.18 -2.11,-0.44 -2.02,-0.69 -1.94,-0.93 -1.80,-1.15 -1.66,-1.37 -1.47,-1.55 -1.28,-1.73 -1.05,-1.86 -0.83,-1.99 -0.58,-2.06 -0.33,-2.13 -0.07,-2.14 0.18,-2.15 0.44,-2.09 0.69,-2.04 0.93,-1.92 1.16,-1.81 1.36,-1.65 1.56,-1.48 1.72,-1.27 1.87,-1.06 1.87,-1.06 L 1.87,-1.06 Z"></path></g><g transform="translate(382.45968229121445 118.17296859464022) rotate(0 -0.6360033025266034 33.52459478136825)" stroke="none"><path fill="#2b8a3e" d="M 1.80,0 Q 1.80,0 1.83,1.70 1.85,3.41 1.81,5.42 1.76,7.43 1.81,9.07 1.85,10.70 1.90,12.18 1.96,13.66 2.01,15.07 2.06,16.47 1.96,19.13 1.86,21.79 1.79,24.20 1.71,26.60 1.66,29.18 1.60,31.77 1.56,34.14 1.52,36.51 1.52,38.52 1.52,40.53 1.59,42.17 1.66,43.81 1.75,45.06 1.84,46.32 1.92,47.63 1.99,48.95 1.97,50.79 1.94,52.63 1.94,54.42 1.93,56.21 1.92,58.04 1.91,59.86 1.69,61.48 1.47,63.10 1.17,65.26 0.86,67.43 0.74,67.76 0.63,68.09 0.41,68.36 0.19,68.64 -0.09,68.83 -0.38,69.03 -0.72,69.11 -1.06,69.20 -1.41,69.18 -1.76,69.16 -2.09,69.02 -2.41,68.89 -2.68,68.66 -2.94,68.42 -3.12,68.12 -3.29,67.82 -3.36,67.47 -3.43,67.13 -3.39,66.78 -3.35,66.43 -3.20,66.12 -3.05,65.80 -2.80,65.55 -2.56,65.30 -2.24,65.14 -1.93,64.98 -1.58,64.93 -1.24,64.88 -0.89,64.94 -0.54,65.00 -0.24,65.17 0.06,65.34 0.30,65.59 0.54,65.85 0.68,66.17 0.82,66.49 0.85,66.84 0.89,67.19 0.81,67.53 0.73,67.88 0.54,68.17 0.36,68.47 0.09,68.70 -0.18,68.92 -0.50,69.04 -0.83,69.17 -1.18,69.18 -1.53,69.20 -1.87,69.10 -2.21,69.00 -2.49,68.80 -2.78,68.60 -2.99,68.32 -3.20,68.03 -3.31,67.70 -3.41,67.36 -3.41,67.01 -3.40,66.66 -3.40,66.66 -3.40,66.66 -2.94,64.53 -2.48,62.41 -2.20,61.13 -1.91,59.85 -1.92,58.03 -1.93,56.21 -1.94,54.42 -1.94,52.63 -1.97,50.79 -1.99,48.95 -1.92,47.63 -1.84,46.32 -1.75,45.06 -1.66,43.81 -1.59,42.17 -1.52,40.53 -1.52,38.52 -1.52,36.51 -1.56,34.14 -1.60,31.77 -1.66,29.18 -1.71,26.60 -1.79,24.20 -1.86,21.79 -1.96,19.13 -2.06,16.47 -2.01,15.07 -1.96,13.66 -1.90,12.18 -1.85,10.70 -1.81,9.07 -1.76,7.43 -1.81,5.42 -1.85,3.41 -1.83,1.70 -1.80,0 -1.77,-0.21 -1.75,-0.43 -1.67,-0.63 -1.59,-0.83 -1.47,-1.01 -1.35,-1.19 -1.18,-1.34 -1.02,-1.48 -0.83,-1.58 -0.63,-1.68 -0.42,-1.73 -0.21,-1.79 0.00,-1.79 0.21,-1.79 0.42,-1.73 0.64,-1.68 0.83,-1.58 1.02,-1.48 1.18,-1.34 1.35,-1.19 1.47,-1.01 1.59,-0.83 1.67,-0.63 1.75,-0.43 1.77,-0.21 1.80,0.00 1.80,0.00 L 1.80,0 Z"></path></g><g transform="translate(391.40370198903497 93.57780744979391) rotate(0 -2.652026608636561 47.911171491349705)" stroke="none"><path fill="#2b8a3e" d="M 1.99,0 Q 1.99,0 2.04,1.42 2.08,2.85 2.15,4.01 2.21,5.18 2.25,6.46 2.29,7.74 2.32,9.06 2.35,10.39 2.23,12.46 2.11,14.53 2.11,16.19 2.11,17.85 2.00,20.67 1.90,23.49 1.91,25.19 1.93,26.89 1.85,29.17 1.76,31.45 1.70,33.98 1.64,36.50 1.59,39.14 1.55,41.77 1.52,44.95 1.48,48.13 1.46,51.37 1.44,54.61 1.42,57.54 1.40,60.48 1.19,64.10 0.98,67.72 0.89,70.01 0.80,72.30 0.56,74.88 0.32,77.45 -0.14,80.63 -0.61,83.80 -0.92,85.68 -1.24,87.56 -1.70,89.68 -2.15,91.80 -2.96,94.12 -3.77,96.45 -3.91,96.67 -4.05,96.90 -4.26,97.07 -4.46,97.24 -4.71,97.34 -4.96,97.43 -5.23,97.44 -5.50,97.46 -5.75,97.38 -6.01,97.31 -6.23,97.15 -6.45,97.00 -6.61,96.79 -6.77,96.57 -6.85,96.32 -6.93,96.07 -6.93,95.80 -6.92,95.53 -6.84,95.28 -6.75,95.03 -6.58,94.82 -6.42,94.61 -6.20,94.46 -5.97,94.31 -5.72,94.24 -5.46,94.17 -5.19,94.19 -4.93,94.21 -4.68,94.31 -4.43,94.41 -4.23,94.59 -4.03,94.76 -3.89,94.99 -3.76,95.22 -3.70,95.49 -3.65,95.75 -3.68,96.01 -3.71,96.28 -3.83,96.52 -3.94,96.76 -4.13,96.95 -4.32,97.14 -4.55,97.27 -4.79,97.39 -5.05,97.43 -5.32,97.47 -5.58,97.42 -5.84,97.38 -6.08,97.25 -6.31,97.12 -6.49,96.92 -6.68,96.73 -6.79,96.48 -6.89,96.24 -6.92,95.97 -6.95,95.71 -6.89,95.45 -6.82,95.19 -6.83,95.19 -6.83,95.19 -5.86,93.21 -4.90,91.23 -4.49,89.11 -4.07,87.00 -3.66,85.21 -3.26,83.41 -2.80,80.31 -2.35,77.21 -2.13,74.71 -1.91,72.20 -1.84,69.89 -1.76,67.57 -1.58,64.02 -1.40,60.48 -1.42,57.54 -1.44,54.61 -1.46,51.37 -1.48,48.13 -1.52,44.95 -1.55,41.77 -1.59,39.14 -1.64,36.50 -1.70,33.98 -1.76,31.45 -1.85,29.17 -1.93,26.89 -1.91,25.19 -1.90,23.49 -2.00,20.67 -2.11,17.85 -2.11,16.19 -2.11,14.53 -2.23,12.46 -2.35,10.39 -2.32,9.06 -2.29,7.74 -2.25,6.46 -2.21,5.18 -2.15,4.01 -2.08,2.85 -2.04,1.42 -1.99,0 -1.96,-0.23 -1.93,-0.47 -1.85,-0.70 -1.76,-0.92 -1.62,-1.12 -1.49,-1.32 -1.31,-1.48 -1.13,-1.64 -0.92,-1.75 -0.70,-1.86 -0.47,-1.92 -0.24,-1.98 0.00,-1.98 0.24,-1.98 0.47,-1.92 0.70,-1.86 0.92,-1.75 1.13,-1.64 1.31,-1.48 1.49,-1.32 1.63,-1.12 1.76,-0.92 1.85,-0.70 1.93,-0.47 1.96,-0.23 1.99,0.00 1.99,0.00 L 1.99,0 Z"></path></g><g transform="translate(397.9684501719878 120.88580589614958) rotate(0 1.1759852452574933 37.39589704459513)" stroke="none"><path fill="#2b8a3e" d="M 1.99,0 Q 1.99,0 1.90,2.79 1.81,5.59 1.74,7.78 1.67,9.97 1.67,11.90 1.67,13.82 2.00,15.50 2.34,17.17 2.81,18.88 3.29,20.59 3.73,21.81 4.18,23.02 4.61,25.43 5.04,27.84 5.33,29.37 5.61,30.91 5.77,32.39 5.92,33.87 5.87,36.37 5.82,38.86 5.78,40.97 5.74,43.07 5.78,44.81 5.82,46.54 5.76,48.85 5.70,51.15 5.74,52.91 5.78,54.67 5.73,57.21 5.67,59.74 5.59,61.46 5.50,63.17 5.00,65.13 4.51,67.08 3.88,68.80 3.26,70.51 1.40,73.35 -0.45,76.18 -0.71,76.35 -0.96,76.52 -1.26,76.59 -1.56,76.67 -1.86,76.64 -2.16,76.62 -2.45,76.50 -2.73,76.38 -2.96,76.18 -3.18,75.98 -3.34,75.71 -3.49,75.45 -3.55,75.15 -3.61,74.85 -3.57,74.55 -3.53,74.24 -3.39,73.97 -3.26,73.70 -3.04,73.48 -2.83,73.26 -2.56,73.12 -2.28,72.99 -1.98,72.94 -1.68,72.90 -1.38,72.96 -1.08,73.01 -0.81,73.16 -0.55,73.31 -0.34,73.54 -0.14,73.76 -0.01,74.04 0.10,74.32 0.12,74.62 0.15,74.93 0.08,75.23 0.01,75.52 -0.15,75.78 -0.31,76.04 -0.54,76.23 -0.78,76.42 -1.07,76.53 -1.35,76.64 -1.66,76.65 -1.96,76.66 -2.26,76.57 -2.55,76.48 -2.80,76.31 -3.05,76.13 -3.23,75.88 -3.41,75.63 -3.50,75.34 -3.59,75.05 -3.58,74.75 -3.58,74.44 -3.47,74.15 -3.37,73.87 -3.18,73.63 -2.99,73.39 -2.99,73.39 -2.99,73.39 -1.53,71.30 -0.07,69.22 0.54,67.71 1.17,66.20 1.62,64.54 2.08,62.87 2.27,61.31 2.47,59.74 2.42,57.21 2.36,54.67 2.40,52.91 2.43,51.15 2.37,48.86 2.31,46.56 2.33,44.83 2.36,43.10 2.29,41.01 2.21,38.92 2.08,36.52 1.96,34.12 1.94,32.77 1.92,31.43 1.78,29.99 1.64,28.56 1.09,26.32 0.54,24.09 0.25,22.79 -0.04,21.49 -0.52,19.64 -1.00,17.79 -1.33,15.81 -1.67,13.83 -1.67,11.90 -1.67,9.97 -1.74,7.78 -1.81,5.59 -1.90,2.79 -1.99,0 -1.96,-0.23 -1.93,-0.47 -1.85,-0.70 -1.76,-0.92 -1.63,-1.12 -1.49,-1.32 -1.31,-1.48 -1.13,-1.64 -0.92,-1.75 -0.70,-1.86 -0.47,-1.92 -0.24,-1.98 0.00,-1.98 0.24,-1.98 0.47,-1.92 0.70,-1.86 0.92,-1.75 1.13,-1.64 1.31,-1.48 1.49,-1.32 1.63,-1.12 1.76,-0.92 1.85,-0.70 1.93,-0.47 1.96,-0.23 1.99,0.00 1.99,0.00 L 1.99,0 Z"></path></g><g transform="translate(408.22700143491295 122.07208218173946) rotate(0 -1.7356987694521422 35.266714819788376)" stroke="none"><path fill="#2b8a3e" d="M 1.75,0 Q 1.75,0 1.71,2.04 1.67,4.08 1.67,6.01 1.67,7.94 1.69,9.77 1.71,11.60 1.67,13.65 1.63,15.71 1.59,18.14 1.54,20.58 1.51,22.89 1.48,25.21 1.46,27.47 1.43,29.74 1.42,31.98 1.40,34.22 1.50,35.67 1.60,37.13 1.56,39.52 1.52,41.91 1.49,44.21 1.47,46.51 1.48,48.50 1.49,50.48 1.46,53.39 1.44,56.29 1.42,59.10 1.40,61.90 1.17,63.77 0.95,65.64 0.68,67.10 0.41,68.55 -1.00,70.31 -2.43,72.06 -2.70,72.18 -2.97,72.31 -3.27,72.34 -3.56,72.37 -3.86,72.31 -4.15,72.25 -4.40,72.09 -4.66,71.94 -4.86,71.71 -5.05,71.48 -5.16,71.21 -5.27,70.93 -5.29,70.63 -5.30,70.33 -5.22,70.04 -5.14,69.75 -4.98,69.51 -4.81,69.26 -4.57,69.08 -4.33,68.90 -4.05,68.80 -3.77,68.70 -3.47,68.70 -3.17,68.70 -2.89,68.80 -2.60,68.89 -2.36,69.08 -2.13,69.26 -1.96,69.50 -1.79,69.75 -1.71,70.04 -1.63,70.33 -1.64,70.63 -1.66,70.92 -1.77,71.20 -1.88,71.48 -2.07,71.71 -2.27,71.94 -2.52,72.09 -2.78,72.24 -3.07,72.31 -3.36,72.37 -3.66,72.34 -3.96,72.31 -4.23,72.18 -4.50,72.06 -4.72,71.85 -4.94,71.65 -5.08,71.38 -5.22,71.12 -5.27,70.83 -5.31,70.53 -5.27,70.24 -5.22,69.94 -5.08,69.68 -4.94,69.41 -4.72,69.21 -4.51,69.00 -4.51,69.00 -4.51,69.00 -3.71,68.35 -2.91,67.69 -2.49,66.42 -2.07,65.15 -1.73,63.52 -1.40,61.89 -1.42,59.09 -1.44,56.29 -1.46,53.39 -1.49,50.48 -1.48,48.50 -1.47,46.51 -1.49,44.21 -1.52,41.91 -1.56,39.52 -1.60,37.13 -1.50,35.67 -1.40,34.22 -1.42,31.98 -1.43,29.74 -1.46,27.47 -1.48,25.21 -1.51,22.89 -1.54,20.58 -1.59,18.14 -1.63,15.71 -1.67,13.65 -1.71,11.60 -1.69,9.77 -1.67,7.94 -1.67,6.01 -1.67,4.08 -1.71,2.04 -1.75,0 -1.72,-0.20 -1.70,-0.41 -1.62,-0.61 -1.55,-0.81 -1.43,-0.98 -1.31,-1.16 -1.15,-1.30 -0.99,-1.44 -0.80,-1.54 -0.62,-1.63 -0.41,-1.69 -0.21,-1.74 0.00,-1.74 0.21,-1.74 0.41,-1.69 0.62,-1.63 0.80,-1.54 0.99,-1.44 1.15,-1.30 1.31,-1.16 1.43,-0.98 1.55,-0.81 1.62,-0.61 1.70,-0.41 1.72,-0.20 1.75,0.00 1.75,0.00 L 1.75,0 Z"></path></g><g transform="translate(246.59337047656857 139.5024679573089) rotate(0 3.1094676039080014 17.794612058408802)" stroke="none"><path fill="#2b8a3e" d="M 2.50,0 Q 2.50,0 2.49,1.47 2.48,2.95 2.51,4.09 2.54,5.22 2.57,6.38 2.60,7.53 2.63,9.69 2.65,11.85 2.67,13.00 2.69,14.15 2.68,15.48 2.68,16.81 2.82,18.82 2.96,20.84 3.11,22.38 3.26,23.92 3.75,25.77 4.24,27.63 4.98,28.81 5.72,29.99 6.78,31.50 7.84,33.01 8.21,33.34 8.58,33.66 8.83,34.09 9.07,34.52 9.17,35.00 9.26,35.49 9.20,35.98 9.13,36.47 8.91,36.91 8.70,37.35 8.35,37.70 8.00,38.05 7.56,38.27 7.12,38.49 6.63,38.56 6.14,38.63 5.66,38.54 5.17,38.45 4.74,38.21 4.31,37.97 3.98,37.60 3.65,37.24 3.46,36.78 3.26,36.33 3.22,35.84 3.17,35.35 3.29,34.87 3.41,34.39 3.67,33.97 3.94,33.56 4.32,33.25 4.70,32.94 5.16,32.76 5.63,32.59 6.12,32.58 6.61,32.56 7.08,32.70 7.56,32.85 7.96,33.13 8.36,33.42 8.65,33.82 8.94,34.22 9.09,34.69 9.23,35.16 9.22,35.65 9.21,36.15 9.04,36.61 8.87,37.07 8.57,37.46 8.26,37.84 7.84,38.11 7.43,38.38 6.95,38.50 6.47,38.62 5.98,38.58 5.49,38.55 5.04,38.35 4.58,38.16 4.58,38.16 4.58,38.16 3.24,36.54 1.89,34.92 1.23,33.83 0.57,32.74 0.00,31.56 -0.55,30.39 -1.01,28.65 -1.47,26.92 -1.68,25.75 -1.90,24.57 -2.15,22.96 -2.40,21.35 -2.54,19.08 -2.68,16.81 -2.68,15.48 -2.69,14.15 -2.67,13.00 -2.65,11.85 -2.63,9.69 -2.60,7.53 -2.57,6.38 -2.54,5.22 -2.51,4.09 -2.48,2.95 -2.49,1.47 -2.50,0 -2.46,-0.29 -2.43,-0.59 -2.32,-0.88 -2.21,-1.16 -2.04,-1.41 -1.87,-1.66 -1.64,-1.86 -1.42,-2.06 -1.15,-2.20 -0.88,-2.34 -0.59,-2.41 -0.30,-2.48 0.00,-2.48 0.30,-2.48 0.59,-2.41 0.88,-2.34 1.15,-2.20 1.42,-2.06 1.64,-1.86 1.87,-1.66 2.04,-1.41 2.21,-1.16 2.32,-0.88 2.43,-0.59 2.46,-0.29 2.50,0.00 2.50,0.00 L 2.50,0 Z"></path></g><g transform="translate(222.498558011686 147.89493892326482) rotate(0 -0.8485005279027291 20.7815227274491)" stroke="none"><path fill="#2b8a3e" d="M 2.05,0 Q 2.05,0 2.06,1.63 2.07,3.26 2.13,4.57 2.18,5.88 2.30,7.85 2.41,9.83 2.44,11.10 2.46,12.38 2.39,14.21 2.32,16.03 2.19,19.58 2.05,23.14 1.96,25.43 1.86,27.72 1.86,29.54 1.85,31.35 1.93,32.63 2.00,33.91 1.75,35.48 1.50,37.04 0.98,39.74 0.46,42.43 0.27,42.75 0.07,43.08 -0.21,43.32 -0.50,43.56 -0.85,43.70 -1.20,43.84 -1.58,43.86 -1.95,43.88 -2.32,43.78 -2.68,43.67 -2.99,43.46 -3.31,43.25 -3.53,42.95 -3.76,42.64 -3.88,42.29 -4.00,41.93 -4.00,41.55 -4.00,41.17 -3.87,40.81 -3.75,40.46 -3.52,40.16 -3.29,39.86 -2.98,39.64 -2.66,39.43 -2.30,39.33 -1.94,39.23 -1.56,39.26 -1.18,39.28 -0.83,39.42 -0.48,39.56 -0.19,39.81 0.08,40.05 0.28,40.38 0.47,40.70 0.55,41.07 0.63,41.44 0.59,41.82 0.55,42.19 0.39,42.53 0.23,42.88 -0.02,43.15 -0.29,43.42 -0.62,43.60 -0.96,43.77 -1.33,43.83 -1.70,43.89 -2.07,43.83 -2.45,43.77 -2.78,43.59 -3.11,43.41 -3.37,43.14 -3.63,42.86 -3.79,42.52 -3.95,42.17 -3.98,41.80 -4.02,41.42 -3.94,41.05 -3.86,40.68 -3.86,40.68 -3.86,40.68 -3.24,38.44 -2.62,36.19 -2.31,35.04 -2.00,33.90 -1.93,32.62 -1.85,31.35 -1.86,29.54 -1.86,27.72 -1.96,25.43 -2.05,23.14 -2.19,19.58 -2.32,16.03 -2.39,14.21 -2.46,12.38 -2.44,11.10 -2.41,9.83 -2.30,7.85 -2.18,5.88 -2.13,4.57 -2.07,3.26 -2.06,1.63 -2.05,0 -2.02,-0.24 -1.99,-0.49 -1.91,-0.72 -1.82,-0.95 -1.68,-1.16 -1.54,-1.36 -1.35,-1.52 -1.16,-1.69 -0.94,-1.80 -0.72,-1.92 -0.48,-1.98 -0.24,-2.04 0.00,-2.04 0.24,-2.04 0.48,-1.98 0.72,-1.92 0.94,-1.80 1.16,-1.69 1.35,-1.52 1.54,-1.36 1.68,-1.16 1.82,-0.95 1.91,-0.72 1.99,-0.49 2.02,-0.24 2.05,0.00 2.05,0.00 L 2.05,0 Z"></path></g><g transform="translate(230.10661356453636 164.31255025025348) rotate(0 1.3553555267536694 17.343124557544797)" stroke="none"><path fill="#2b8a3e" d="M 1.94,-0.11 Q 1.94,-0.11 2.03,1.76 2.11,3.64 2.09,5.76 2.07,7.88 2.03,10.85 1.99,13.81 2.04,15.57 2.08,17.32 2.06,19.35 2.03,21.38 2.34,23.40 2.64,25.41 3.09,27.34 3.53,29.27 3.97,31.88 4.42,34.49 4.40,34.77 4.39,35.05 4.29,35.31 4.19,35.57 4.01,35.78 3.83,35.99 3.59,36.14 3.35,36.28 3.08,36.34 2.80,36.40 2.53,36.37 2.25,36.34 2.00,36.23 1.74,36.11 1.54,35.92 1.34,35.73 1.20,35.48 1.07,35.24 1.03,34.96 0.98,34.69 1.03,34.41 1.07,34.13 1.20,33.89 1.33,33.64 1.53,33.45 1.73,33.26 1.99,33.14 2.24,33.02 2.52,32.99 2.79,32.96 3.07,33.02 3.34,33.08 3.58,33.22 3.82,33.36 4.00,33.58 4.18,33.79 4.28,34.05 4.39,34.31 4.40,34.59 4.42,34.86 4.35,35.13 4.27,35.40 4.12,35.63 3.96,35.86 3.74,36.03 3.52,36.20 3.25,36.29 2.99,36.38 2.71,36.38 2.43,36.38 2.17,36.29 1.90,36.21 1.68,36.04 1.46,35.87 1.30,35.64 1.14,35.41 1.07,35.14 0.99,34.87 0.99,34.87 0.99,34.87 0.76,32.42 0.52,29.97 0.04,27.95 -0.43,25.94 -0.85,23.67 -1.27,21.40 -1.30,19.37 -1.34,17.34 -1.31,15.59 -1.28,13.83 -1.36,10.90 -1.44,7.96 -1.56,5.91 -1.67,3.87 -1.81,1.99 -1.94,0.11 -1.93,-0.11 -1.91,-0.35 -1.84,-0.57 -1.77,-0.80 -1.65,-1.00 -1.53,-1.20 -1.36,-1.37 -1.20,-1.53 -0.99,-1.65 -0.79,-1.78 -0.57,-1.85 -0.34,-1.91 -0.11,-1.93 0.12,-1.94 0.35,-1.90 0.58,-1.86 0.79,-1.76 1.01,-1.66 1.19,-1.52 1.38,-1.37 1.52,-1.19 1.67,-1.00 1.76,-0.79 1.86,-0.57 1.90,-0.34 1.94,-0.11 1.94,-0.11 L 1.94,-0.11 Z"></path></g><g transform="translate(247.48979663444914 159.78934034944177) rotate(0 3.0246303086057083 16.85413004191514)" stroke="none"><path fill="#2b8a3e" d="M 2.10,0 Q 2.10,0 2.12,1.53 2.14,3.07 2.03,5.51 1.92,7.95 1.84,11.05 1.76,14.16 1.70,16.25 1.65,18.35 1.86,20.31 2.08,22.27 2.57,23.48 3.06,24.69 3.69,26.02 4.32,27.34 6.01,29.86 7.71,32.37 7.88,32.67 8.05,32.97 8.11,33.31 8.18,33.65 8.13,33.99 8.08,34.33 7.93,34.64 7.78,34.95 7.53,35.19 7.29,35.44 6.98,35.59 6.67,35.74 6.33,35.79 5.99,35.84 5.65,35.77 5.31,35.71 5.01,35.54 4.71,35.37 4.48,35.11 4.25,34.85 4.11,34.54 3.97,34.22 3.95,33.87 3.92,33.53 4.00,33.19 4.08,32.86 4.27,32.57 4.46,32.28 4.73,32.06 4.99,31.85 5.32,31.73 5.64,31.61 5.99,31.60 6.33,31.59 6.66,31.69 6.99,31.79 7.27,31.99 7.55,32.19 7.75,32.47 7.96,32.76 8.06,33.09 8.16,33.42 8.15,33.76 8.14,34.11 8.02,34.43 7.90,34.75 7.69,35.02 7.47,35.29 7.18,35.48 6.89,35.66 6.55,35.75 6.22,35.83 5.87,35.80 5.53,35.77 5.21,35.64 4.89,35.50 4.64,35.27 4.38,35.04 4.38,35.04 4.38,35.04 2.63,31.93 0.88,28.81 0.30,27.29 -0.28,25.76 -0.67,24.22 -1.06,22.67 -1.36,20.51 -1.65,18.35 -1.70,16.26 -1.76,14.16 -1.84,11.05 -1.92,7.95 -2.03,5.51 -2.14,3.07 -2.12,1.53 -2.10,0 -2.07,-0.25 -2.04,-0.50 -1.95,-0.74 -1.86,-0.97 -1.72,-1.18 -1.57,-1.39 -1.38,-1.56 -1.19,-1.73 -0.97,-1.85 -0.74,-1.97 -0.50,-2.03 -0.25,-2.09 0.00,-2.09 0.25,-2.09 0.50,-2.03 0.74,-1.97 0.97,-1.85 1.19,-1.73 1.38,-1.56 1.57,-1.39 1.72,-1.18 1.86,-0.97 1.95,-0.74 2.04,-0.50 2.07,-0.25 2.10,0.00 2.10,0.00 L 2.10,0 Z"></path></g><g transform="translate(278.4074837897956 150.3641082036811) rotate(0 0 13.131324939187834)" stroke="none"><path fill="#2b8a3e" d="M 2.24,0 Q 2.24,0 2.12,3.77 2.00,7.54 1.91,9.71 1.81,11.87 1.84,13.57 1.86,15.28 1.79,17.51 1.71,19.74 1.81,20.81 1.91,21.87 2.04,24.22 2.17,26.56 2.11,26.91 2.06,27.26 1.89,27.57 1.73,27.88 1.47,28.12 1.22,28.36 0.90,28.51 0.58,28.66 0.23,28.70 -0.11,28.73 -0.46,28.66 -0.80,28.58 -1.10,28.40 -1.40,28.22 -1.63,27.95 -1.86,27.68 -1.99,27.36 -2.12,27.03 -2.14,26.68 -2.16,26.33 -2.06,25.99 -1.97,25.65 -1.77,25.36 -1.57,25.07 -1.29,24.85 -1.01,24.64 -0.68,24.53 -0.35,24.42 0.00,24.42 0.35,24.42 0.68,24.53 1.01,24.64 1.29,24.85 1.57,25.07 1.77,25.36 1.97,25.65 2.06,25.99 2.16,26.33 2.14,26.68 2.12,27.03 1.99,27.36 1.86,27.68 1.63,27.95 1.40,28.22 1.10,28.40 0.80,28.58 0.46,28.66 0.11,28.73 -0.23,28.70 -0.58,28.66 -0.90,28.51 -1.22,28.36 -1.47,28.12 -1.73,27.88 -1.89,27.57 -2.06,27.26 -2.11,26.91 -2.17,26.56 -2.17,26.56 -2.17,26.56 -2.04,24.22 -1.91,21.87 -1.81,20.81 -1.71,19.74 -1.79,17.51 -1.86,15.28 -1.84,13.57 -1.81,11.87 -1.91,9.71 -2.00,7.54 -2.12,3.77 -2.24,0 -2.21,-0.26 -2.18,-0.53 -2.08,-0.79 -1.99,-1.04 -1.83,-1.26 -1.68,-1.49 -1.48,-1.67 -1.27,-1.85 -1.03,-1.97 -0.79,-2.10 -0.53,-2.16 -0.27,-2.23 0.00,-2.23 0.27,-2.23 0.53,-2.16 0.79,-2.10 1.03,-1.97 1.27,-1.85 1.48,-1.67 1.68,-1.49 1.83,-1.26 1.99,-1.04 2.08,-0.79 2.18,-0.53 2.21,-0.26 2.24,0.00 2.24,0.00 L 2.24,0 Z"></path></g><g transform="translate(285.93601766735003 163.4814424310125) rotate(0 0.3923778063929717 8.163218906319344)" stroke="none"><path fill="#2b8a3e" d="M 2.66,0 Q 2.66,0 2.69,1.03 2.71,2.06 2.78,3.75 2.84,5.44 2.89,6.88 2.94,8.31 2.98,9.69 3.02,11.06 3.45,13.45 3.87,15.84 3.87,16.35 3.87,16.86 3.70,17.34 3.53,17.82 3.22,18.22 2.91,18.62 2.49,18.90 2.07,19.18 1.58,19.31 1.09,19.44 0.58,19.41 0.08,19.37 -0.38,19.18 -0.85,18.99 -1.23,18.66 -1.62,18.33 -1.87,17.89 -2.13,17.45 -2.23,16.96 -2.34,16.46 -2.28,15.96 -2.22,15.45 -2.00,15.00 -1.78,14.54 -1.43,14.17 -1.08,13.81 -0.63,13.58 -0.18,13.34 0.31,13.27 0.81,13.19 1.31,13.28 1.81,13.36 2.25,13.61 2.70,13.85 3.04,14.22 3.39,14.59 3.60,15.05 3.81,15.51 3.86,16.02 3.91,16.52 3.79,17.02 3.68,17.51 3.41,17.94 3.15,18.37 2.76,18.70 2.37,19.02 1.90,19.20 1.42,19.39 0.92,19.41 0.41,19.43 -0.07,19.29 -0.55,19.15 -0.97,18.86 -1.39,18.57 -1.69,18.17 -1.99,17.76 -2.15,17.28 -2.31,16.80 -2.31,16.80 -2.31,16.80 -2.66,13.93 -3.02,11.06 -2.98,9.69 -2.94,8.31 -2.89,6.88 -2.84,5.44 -2.78,3.75 -2.71,2.06 -2.69,1.03 -2.66,0 -2.62,-0.31 -2.58,-0.63 -2.47,-0.93 -2.36,-1.23 -2.17,-1.50 -1.99,-1.76 -1.75,-1.98 -1.51,-2.19 -1.22,-2.34 -0.94,-2.49 -0.63,-2.56 -0.32,-2.64 0.00,-2.64 0.32,-2.64 0.63,-2.56 0.94,-2.49 1.23,-2.34 1.51,-2.19 1.75,-1.98 1.99,-1.76 2.17,-1.50 2.36,-1.23 2.47,-0.93 2.58,-0.63 2.62,-0.31 2.66,0.00 2.66,0.00 L 2.66,0 Z"></path></g><g transform="translate(295.40113822563876 156.97061589740406) rotate(0 1.1233818696740627 19.08601004524553)" stroke="none"><path fill="#2b8a3e" d="M 2.24,0 Q 2.24,0 2.12,2.30 1.99,4.61 1.99,6.37 1.98,8.14 2.01,9.67 2.05,11.20 2.00,13.13 1.95,15.06 2.03,16.16 2.11,17.26 2.16,18.51 2.21,19.76 2.25,21.08 2.29,22.39 2.32,23.73 2.35,25.07 2.33,26.70 2.31,28.33 2.64,30.07 2.98,31.82 3.45,33.33 3.93,34.84 4.24,35.79 4.56,36.74 4.72,37.15 4.89,37.55 4.92,37.99 4.95,38.43 4.83,38.86 4.72,39.28 4.48,39.65 4.24,40.02 3.89,40.29 3.54,40.56 3.13,40.70 2.71,40.85 2.27,40.85 1.83,40.85 1.41,40.72 0.99,40.58 0.64,40.32 0.29,40.06 0.04,39.70 -0.20,39.33 -0.33,38.91 -0.45,38.49 -0.43,38.05 -0.41,37.61 -0.25,37.20 -0.09,36.79 0.18,36.45 0.46,36.11 0.83,35.88 1.21,35.65 1.64,35.55 2.07,35.45 2.50,35.50 2.94,35.54 3.34,35.72 3.74,35.90 4.07,36.20 4.39,36.50 4.60,36.89 4.81,37.27 4.88,37.71 4.96,38.14 4.89,38.57 4.83,39.01 4.63,39.40 4.42,39.79 4.11,40.10 3.79,40.40 3.39,40.59 3.00,40.78 2.56,40.83 2.12,40.88 1.69,40.79 1.26,40.70 0.88,40.48 0.50,40.26 0.22,39.93 -0.06,39.59 -0.06,39.59 -0.06,39.59 -0.69,37.71 -1.33,35.83 -1.59,34.45 -1.86,33.07 -2.08,30.70 -2.31,28.33 -2.33,26.70 -2.35,25.07 -2.32,23.73 -2.29,22.39 -2.25,21.08 -2.21,19.76 -2.16,18.51 -2.11,17.26 -2.03,16.16 -1.95,15.06 -2.00,13.13 -2.05,11.20 -2.01,9.67 -1.98,8.14 -1.99,6.37 -1.99,4.61 -2.12,2.30 -2.24,0 -2.21,-0.26 -2.17,-0.53 -2.08,-0.78 -1.98,-1.04 -1.83,-1.26 -1.67,-1.48 -1.47,-1.66 -1.27,-1.84 -1.03,-1.97 -0.79,-2.09 -0.53,-2.16 -0.27,-2.22 0.00,-2.22 0.27,-2.22 0.53,-2.16 0.79,-2.09 1.03,-1.97 1.27,-1.84 1.47,-1.66 1.67,-1.48 1.83,-1.26 1.98,-1.04 2.08,-0.78 2.17,-0.53 2.21,-0.26 2.24,0.00 2.24,0.00 L 2.24,0 Z"></path></g><g transform="translate(310.6454008548934 150.03794176008796) rotate(0 0.557672326112197 21.26252255058853)" stroke="none"><path fill="#2b8a3e" d="M 1.96,0 Q 1.96,0 1.87,2.27 1.79,4.54 1.78,6.40 1.78,8.26 1.79,10.05 1.81,11.84 1.74,14.39 1.67,16.93 1.63,19.01 1.59,21.10 1.61,22.99 1.63,24.88 1.69,26.46 1.75,28.05 1.79,29.71 1.83,31.38 1.88,32.87 1.94,34.36 2.01,35.55 2.08,36.75 2.30,38.74 2.51,40.74 2.75,41.01 3.00,41.28 3.15,41.62 3.30,41.95 3.33,42.31 3.36,42.68 3.28,43.03 3.20,43.39 3.00,43.70 2.81,44.01 2.53,44.24 2.24,44.47 1.90,44.60 1.56,44.73 1.20,44.75 0.83,44.76 0.48,44.66 0.13,44.56 -0.16,44.35 -0.46,44.14 -0.68,43.84 -0.89,43.55 -1.00,43.20 -1.12,42.85 -1.11,42.48 -1.10,42.12 -0.98,41.77 -0.86,41.43 -0.63,41.14 -0.41,40.85 -0.10,40.65 0.19,40.45 0.55,40.36 0.90,40.27 1.27,40.30 1.63,40.32 1.97,40.46 2.31,40.60 2.58,40.84 2.86,41.08 3.04,41.40 3.22,41.72 3.30,42.08 3.37,42.43 3.32,42.80 3.28,43.16 3.12,43.49 2.96,43.82 2.70,44.08 2.45,44.34 2.12,44.51 1.80,44.67 1.44,44.73 1.07,44.78 0.71,44.71 0.35,44.65 0.03,44.47 -0.28,44.30 -0.28,44.30 -0.28,44.30 -1.13,41.66 -1.99,39.02 -2.03,37.89 -2.08,36.75 -2.01,35.56 -1.94,34.36 -1.88,32.87 -1.83,31.38 -1.79,29.71 -1.75,28.05 -1.69,26.46 -1.63,24.88 -1.61,22.99 -1.59,21.10 -1.63,19.01 -1.67,16.93 -1.74,14.39 -1.81,11.84 -1.79,10.05 -1.78,8.26 -1.78,6.40 -1.79,4.54 -1.87,2.27 -1.96,0 -1.93,-0.23 -1.90,-0.47 -1.82,-0.69 -1.73,-0.91 -1.60,-1.10 -1.47,-1.30 -1.29,-1.45 -1.11,-1.61 -0.90,-1.72 -0.69,-1.83 -0.46,-1.89 -0.23,-1.95 0.00,-1.95 0.23,-1.95 0.46,-1.89 0.69,-1.83 0.90,-1.72 1.11,-1.61 1.29,-1.45 1.47,-1.30 1.60,-1.10 1.73,-0.91 1.82,-0.69 1.90,-0.47 1.93,-0.23 1.96,0.00 1.96,0.00 L 1.96,0 Z"></path></g><g transform="translate(316.5845218255721 157.49095130859132) rotate(0 0 18.512348334154012)" stroke="none"><path fill="#2b8a3e" d="M 2.04,0 Q 2.04,0 2.08,1.37 2.13,2.74 2.02,5.89 1.91,9.04 1.83,11.95 1.75,14.85 1.69,17.65 1.63,20.44 1.63,22.41 1.62,24.38 1.58,26.72 1.54,29.06 1.64,30.34 1.74,31.62 1.80,34.32 1.86,37.02 1.82,37.32 1.77,37.62 1.62,37.88 1.48,38.15 1.26,38.36 1.04,38.57 0.77,38.69 0.49,38.82 0.19,38.85 -0.10,38.89 -0.39,38.82 -0.69,38.76 -0.95,38.60 -1.21,38.44 -1.40,38.21 -1.60,37.98 -1.71,37.70 -1.82,37.42 -1.84,37.12 -1.85,36.82 -1.77,36.53 -1.69,36.23 -1.52,35.98 -1.35,35.73 -1.11,35.55 -0.87,35.37 -0.58,35.27 -0.30,35.18 0.00,35.18 0.30,35.18 0.58,35.27 0.87,35.37 1.11,35.55 1.35,35.73 1.52,35.98 1.69,36.24 1.77,36.53 1.85,36.82 1.84,37.12 1.82,37.42 1.71,37.70 1.60,37.98 1.40,38.21 1.20,38.44 0.95,38.60 0.69,38.76 0.39,38.82 0.10,38.89 -0.19,38.85 -0.50,38.82 -0.77,38.69 -1.04,38.57 -1.26,38.36 -1.48,38.15 -1.62,37.88 -1.77,37.62 -1.82,37.32 -1.86,37.02 -1.86,37.02 -1.86,37.02 -1.80,34.32 -1.74,31.62 -1.64,30.34 -1.54,29.06 -1.58,26.72 -1.62,24.38 -1.63,22.41 -1.63,20.44 -1.69,17.65 -1.75,14.85 -1.83,11.95 -1.91,9.04 -2.02,5.89 -2.13,2.74 -2.08,1.37 -2.04,0 -2.01,-0.24 -1.98,-0.48 -1.89,-0.71 -1.80,-0.94 -1.66,-1.15 -1.52,-1.35 -1.34,-1.51 -1.15,-1.67 -0.94,-1.79 -0.72,-1.90 -0.48,-1.96 -0.24,-2.02 0.00,-2.02 0.24,-2.02 0.48,-1.96 0.72,-1.90 0.94,-1.79 1.15,-1.67 1.34,-1.51 1.52,-1.35 1.66,-1.15 1.80,-0.94 1.89,-0.71 1.98,-0.48 2.01,-0.24 2.04,0.00 2.04,0.00 L 2.04,0 Z"></path></g><g transform="translate(29.656964520685392 158.56028395404064) rotate(0 0 16.072563801132674)" stroke="none"><path fill="#2b8a3e" d="M 2.21,0 Q 2.21,0 2.09,2.74 1.97,5.48 1.98,7.15 2.00,8.82 2.00,10.52 2.01,12.23 2.04,13.73 2.08,15.24 1.97,17.44 1.87,19.64 1.92,21.13 1.97,22.62 2.02,24.04 2.07,25.46 2.13,26.73 2.18,28.01 2.20,30.07 2.22,32.14 2.17,32.50 2.11,32.85 1.94,33.17 1.77,33.49 1.51,33.74 1.25,33.99 0.92,34.14 0.59,34.29 0.23,34.33 -0.12,34.37 -0.47,34.29 -0.82,34.21 -1.13,34.03 -1.44,33.84 -1.67,33.56 -1.91,33.29 -2.04,32.95 -2.17,32.62 -2.19,32.26 -2.21,31.90 -2.11,31.55 -2.02,31.20 -1.82,30.91 -1.61,30.61 -1.33,30.39 -1.04,30.17 -0.70,30.06 -0.36,29.94 0.00,29.94 0.36,29.94 0.70,30.06 1.04,30.17 1.33,30.39 1.61,30.61 1.82,30.91 2.02,31.20 2.12,31.55 2.21,31.90 2.19,32.26 2.17,32.62 2.04,32.95 1.91,33.29 1.67,33.56 1.44,33.84 1.13,34.03 0.82,34.21 0.47,34.29 0.12,34.37 -0.23,34.33 -0.59,34.29 -0.92,34.14 -1.25,33.99 -1.51,33.74 -1.77,33.49 -1.94,33.17 -2.11,32.85 -2.17,32.50 -2.22,32.14 -2.22,32.14 -2.22,32.14 -2.20,30.07 -2.18,28.01 -2.13,26.73 -2.07,25.46 -2.02,24.04 -1.97,22.62 -1.92,21.13 -1.87,19.64 -1.97,17.44 -2.08,15.24 -2.04,13.73 -2.01,12.23 -2.00,10.52 -2.00,8.82 -1.98,7.15 -1.97,5.48 -2.09,2.74 -2.21,0 -2.18,-0.26 -2.14,-0.52 -2.05,-0.77 -1.96,-1.02 -1.80,-1.24 -1.65,-1.46 -1.45,-1.64 -1.25,-1.82 -1.02,-1.94 -0.78,-2.07 -0.52,-2.13 -0.26,-2.19 0.00,-2.19 0.26,-2.19 0.52,-2.13 0.78,-2.07 1.02,-1.94 1.25,-1.82 1.45,-1.64 1.65,-1.46 1.80,-1.24 1.96,-1.02 2.05,-0.77 2.14,-0.52 2.18,-0.26 2.21,0.00 2.21,0.00 L 2.21,0 Z"></path></g><g transform="translate(46.35651633281407 169.57586455579803) rotate(0 0 11.252104429562678)" stroke="none"><path fill="#2b8a3e" d="M 2.47,0 Q 2.47,0 2.32,2.16 2.17,4.32 2.18,5.85 2.19,7.38 2.24,8.59 2.29,9.81 2.29,11.38 2.28,12.96 2.38,14.98 2.49,17.00 2.56,19.75 2.64,22.50 2.57,22.92 2.50,23.34 2.30,23.72 2.10,24.10 1.79,24.39 1.48,24.69 1.09,24.87 0.70,25.04 0.28,25.09 -0.14,25.14 -0.56,25.04 -0.97,24.95 -1.34,24.73 -1.71,24.51 -1.98,24.19 -2.26,23.86 -2.42,23.46 -2.57,23.07 -2.60,22.64 -2.62,22.21 -2.51,21.80 -2.39,21.39 -2.15,21.04 -1.91,20.68 -1.57,20.42 -1.23,20.17 -0.83,20.03 -0.42,19.89 0.00,19.89 0.42,19.89 0.83,20.03 1.23,20.17 1.57,20.42 1.91,20.68 2.15,21.04 2.39,21.39 2.51,21.80 2.62,22.21 2.60,22.64 2.57,23.07 2.42,23.46 2.26,23.86 1.98,24.19 1.70,24.51 1.34,24.73 0.97,24.95 0.55,25.05 0.14,25.14 -0.28,25.09 -0.70,25.04 -1.09,24.86 -1.48,24.69 -1.79,24.39 -2.10,24.10 -2.30,23.72 -2.50,23.34 -2.57,22.92 -2.64,22.50 -2.64,22.50 -2.64,22.50 -2.56,19.75 -2.49,17.00 -2.38,14.98 -2.28,12.96 -2.29,11.38 -2.29,9.81 -2.24,8.59 -2.19,7.38 -2.18,5.85 -2.17,4.32 -2.32,2.16 -2.47,0 -2.43,-0.29 -2.39,-0.59 -2.29,-0.86 -2.18,-1.14 -2.01,-1.39 -1.84,-1.63 -1.62,-1.83 -1.40,-2.03 -1.13,-2.17 -0.87,-2.30 -0.58,-2.38 -0.29,-2.45 0.00,-2.45 0.29,-2.45 0.58,-2.38 0.87,-2.30 1.13,-2.17 1.40,-2.03 1.62,-1.83 1.84,-1.63 2.01,-1.39 2.18,-1.14 2.29,-0.86 2.39,-0.59 2.43,-0.29 2.47,0.00 2.47,0.00 L 2.47,0 Z"></path></g><g transform="translate(59.176941289067145 158.51954504231162) rotate(0 1.4619656016021736 20.91849562377365)" stroke="none"><path fill="#2b8a3e" d="M 2.18,0 Q 2.18,0 2.12,1.91 2.06,3.82 2.11,5.19 2.15,6.57 2.19,7.93 2.23,9.30 2.26,10.66 2.29,12.03 2.34,13.17 2.39,14.30 2.38,15.85 2.37,17.40 2.27,20.80 2.17,24.21 2.13,26.02 2.09,27.83 2.40,28.95 2.70,30.06 3.00,31.15 3.31,32.25 3.90,34.25 4.49,36.25 5.02,38.85 5.55,41.45 5.55,41.88 5.54,42.31 5.39,42.72 5.25,43.12 4.98,43.46 4.71,43.80 4.35,44.03 3.99,44.27 3.58,44.38 3.16,44.48 2.73,44.45 2.30,44.42 1.90,44.26 1.50,44.09 1.18,43.80 0.86,43.52 0.64,43.15 0.43,42.77 0.34,42.35 0.26,41.93 0.31,41.50 0.37,41.07 0.55,40.69 0.74,40.30 1.04,39.99 1.35,39.68 1.73,39.49 2.11,39.29 2.54,39.23 2.97,39.17 3.39,39.25 3.82,39.32 4.19,39.53 4.57,39.74 4.86,40.06 5.15,40.38 5.32,40.77 5.50,41.17 5.54,41.60 5.58,42.03 5.47,42.44 5.37,42.86 5.15,43.23 4.92,43.59 4.58,43.87 4.25,44.14 3.85,44.29 3.44,44.44 3.01,44.46 2.58,44.47 2.17,44.35 1.76,44.23 1.40,43.98 1.05,43.73 0.80,43.38 0.54,43.04 0.41,42.62 0.28,42.21 0.28,42.21 0.28,42.21 0.00,40.51 -0.28,38.81 -0.52,37.11 -0.75,35.41 -0.95,34.34 -1.16,33.28 -1.37,32.12 -1.58,30.96 -1.84,29.41 -2.09,27.85 -2.13,26.03 -2.17,24.21 -2.27,20.80 -2.37,17.40 -2.38,15.85 -2.39,14.30 -2.34,13.17 -2.29,12.03 -2.26,10.66 -2.23,9.30 -2.19,7.93 -2.15,6.57 -2.11,5.19 -2.06,3.82 -2.12,1.91 -2.18,0 -2.15,-0.26 -2.12,-0.52 -2.02,-0.76 -1.93,-1.01 -1.78,-1.23 -1.63,-1.45 -1.43,-1.62 -1.24,-1.79 -1.00,-1.92 -0.77,-2.04 -0.51,-2.10 -0.26,-2.17 0.00,-2.17 0.26,-2.17 0.51,-2.10 0.77,-2.04 1.00,-1.92 1.24,-1.79 1.43,-1.62 1.63,-1.45 1.78,-1.23 1.93,-1.01 2.03,-0.76 2.12,-0.52 2.15,-0.26 2.18,0.00 2.18,0.00 L 2.18,0 Z"></path></g><g transform="translate(73.86370169204974 158.796722731925) rotate(0 0.16457159539834265 16.160930668119818)" stroke="none"><path fill="#2b8a3e" d="M 2.03,-0.09 Q 2.03,-0.09 2.07,1.87 2.11,3.83 2.07,5.98 2.03,8.13 2.08,9.81 2.14,11.50 2.11,13.51 2.07,15.51 2.12,17.14 2.17,18.78 2.22,20.31 2.26,21.85 2.18,24.35 2.10,26.86 2.19,29.59 2.28,32.32 2.23,32.63 2.17,32.94 2.03,33.22 1.88,33.50 1.65,33.72 1.42,33.93 1.13,34.07 0.85,34.20 0.53,34.23 0.22,34.27 -0.08,34.20 -0.39,34.13 -0.66,33.97 -0.93,33.80 -1.13,33.56 -1.34,33.32 -1.46,33.03 -1.57,32.74 -1.59,32.42 -1.61,32.11 -1.52,31.80 -1.44,31.50 -1.26,31.24 -1.08,30.97 -0.83,30.78 -0.58,30.59 -0.28,30.49 0.01,30.39 0.32,30.39 0.64,30.39 0.94,30.49 1.24,30.59 1.49,30.78 1.74,30.97 1.92,31.24 2.10,31.50 2.18,31.80 2.27,32.11 2.25,32.42 2.23,32.74 2.11,33.03 2.00,33.32 1.79,33.56 1.59,33.80 1.32,33.97 1.05,34.13 0.74,34.20 0.43,34.27 0.12,34.23 -0.19,34.20 -0.48,34.07 -0.76,33.93 -0.99,33.72 -1.22,33.50 -1.37,33.22 -1.52,32.94 -1.57,32.63 -1.62,32.32 -1.62,32.32 -1.62,32.32 -1.53,29.59 -1.44,26.86 -1.53,24.35 -1.61,21.85 -1.56,20.32 -1.52,18.78 -1.48,17.15 -1.44,15.52 -1.48,13.53 -1.53,11.54 -1.51,9.87 -1.49,8.19 -1.61,6.11 -1.73,4.02 -1.88,2.06 -2.03,0.09 -2.02,-0.14 -2.00,-0.39 -1.92,-0.62 -1.85,-0.86 -1.72,-1.06 -1.59,-1.27 -1.41,-1.45 -1.23,-1.62 -1.02,-1.74 -0.81,-1.87 -0.57,-1.94 -0.34,-2.01 -0.09,-2.02 0.14,-2.03 0.38,-1.98 0.63,-1.94 0.85,-1.83 1.07,-1.73 1.26,-1.57 1.46,-1.42 1.61,-1.23 1.76,-1.03 1.85,-0.80 1.95,-0.58 1.99,-0.34 2.03,-0.09 2.03,-0.09 L 2.03,-0.09 Z"></path></g><g transform="translate(87.03010972327979 149.07134941812274) rotate(0 0 20.436220051832606)" stroke="none"><path fill="#2b8a3e" d="M 2.00,0 Q 2.00,0 1.96,1.92 1.91,3.85 1.89,5.73 1.87,7.61 1.80,10.02 1.72,12.44 1.66,15.51 1.61,18.59 1.57,20.90 1.53,23.21 1.52,25.26 1.51,27.30 1.62,28.45 1.73,29.60 1.82,30.87 1.90,32.14 1.96,33.52 2.02,34.89 2.12,37.88 2.22,40.87 2.16,41.22 2.11,41.58 1.94,41.90 1.77,42.22 1.51,42.46 1.25,42.71 0.92,42.86 0.59,43.01 0.23,43.05 -0.12,43.09 -0.47,43.01 -0.82,42.94 -1.13,42.75 -1.44,42.57 -1.67,42.29 -1.90,42.02 -2.04,41.68 -2.17,41.35 -2.19,40.99 -2.21,40.63 -2.11,40.28 -2.02,39.93 -1.81,39.63 -1.61,39.34 -1.33,39.12 -1.04,38.90 -0.70,38.78 -0.36,38.67 0.00,38.67 0.36,38.67 0.70,38.78 1.04,38.90 1.33,39.12 1.61,39.34 1.81,39.63 2.02,39.93 2.11,40.28 2.21,40.63 2.19,40.99 2.17,41.35 2.04,41.68 1.90,42.02 1.67,42.29 1.44,42.57 1.13,42.75 0.82,42.94 0.47,43.01 0.12,43.09 -0.23,43.05 -0.59,43.01 -0.92,42.86 -1.25,42.71 -1.51,42.46 -1.77,42.22 -1.94,41.90 -2.11,41.58 -2.16,41.22 -2.22,40.87 -2.22,40.87 -2.22,40.87 -2.12,37.88 -2.02,34.89 -1.96,33.52 -1.90,32.14 -1.82,30.87 -1.73,29.60 -1.62,28.45 -1.51,27.30 -1.52,25.26 -1.53,23.21 -1.57,20.90 -1.61,18.59 -1.66,15.51 -1.72,12.44 -1.80,10.02 -1.87,7.61 -1.89,5.73 -1.91,3.85 -1.96,1.92 -2.00,0 -1.97,-0.23 -1.94,-0.47 -1.85,-0.70 -1.77,-0.93 -1.63,-1.12 -1.49,-1.32 -1.31,-1.48 -1.13,-1.64 -0.92,-1.76 -0.70,-1.87 -0.47,-1.93 -0.24,-1.98 0.00,-1.98 0.24,-1.98 0.47,-1.92 0.71,-1.87 0.92,-1.76 1.13,-1.64 1.31,-1.48 1.49,-1.32 1.63,-1.12 1.77,-0.93 1.85,-0.70 1.94,-0.47 1.97,-0.23 2.00,0.00 2.00,0.00 L 2.00,0 Z"></path></g><g transform="translate(103.00597176525616 162.92623655258285) rotate(0 0.3695419028454694 14.421617277062978)" stroke="none"><path fill="#2b8a3e" d="M 2.43,0 Q 2.43,0 2.40,1.59 2.38,3.18 2.29,5.14 2.19,7.11 2.15,8.94 2.10,10.78 2.12,12.35 2.14,13.91 2.27,15.52 2.40,17.14 2.50,18.36 2.60,19.58 2.67,21.03 2.75,22.49 2.81,23.59 2.88,24.69 3.17,26.17 3.46,27.65 3.58,28.11 3.70,28.58 3.66,29.06 3.63,29.54 3.44,29.98 3.25,30.43 2.93,30.79 2.61,31.15 2.19,31.39 1.78,31.62 1.30,31.72 0.83,31.81 0.35,31.75 -0.11,31.69 -0.55,31.48 -0.98,31.26 -1.32,30.93 -1.66,30.59 -1.88,30.16 -2.09,29.73 -2.16,29.25 -2.23,28.77 -2.14,28.30 -2.05,27.83 -1.82,27.41 -1.58,26.99 -1.23,26.66 -0.87,26.34 -0.43,26.15 0.00,25.96 0.48,25.91 0.96,25.87 1.43,25.99 1.89,26.10 2.30,26.36 2.71,26.61 3.01,26.99 3.32,27.36 3.48,27.81 3.65,28.26 3.67,28.74 3.68,29.22 3.55,29.68 3.41,30.15 3.13,30.54 2.85,30.93 2.46,31.21 2.07,31.50 1.61,31.64 1.15,31.78 0.67,31.77 0.19,31.76 -0.25,31.60 -0.71,31.44 -1.08,31.14 -1.46,30.84 -1.72,30.43 -1.98,30.03 -1.98,30.03 -1.98,30.03 -2.43,27.36 -2.88,24.69 -2.81,23.59 -2.75,22.49 -2.67,21.03 -2.60,19.58 -2.50,18.36 -2.40,17.14 -2.27,15.52 -2.14,13.91 -2.12,12.35 -2.10,10.78 -2.15,8.94 -2.19,7.11 -2.29,5.14 -2.38,3.18 -2.40,1.59 -2.43,0 -2.39,-0.29 -2.36,-0.58 -2.25,-0.85 -2.15,-1.12 -1.98,-1.37 -1.81,-1.61 -1.60,-1.80 -1.38,-2.00 -1.12,-2.13 -0.86,-2.27 -0.57,-2.34 -0.29,-2.41 0.00,-2.41 0.29,-2.41 0.57,-2.34 0.86,-2.27 1.12,-2.13 1.38,-2.00 1.60,-1.80 1.81,-1.61 1.98,-1.37 2.15,-1.12 2.25,-0.85 2.36,-0.58 2.39,-0.29 2.43,0.00 2.43,0.00 L 2.43,0 Z"></path></g><g transform="translate(408.4249976489116 102.67398145467814) rotate(0 -7.612903398296169 43.64124025260253)" stroke="none"><path fill="#2b8a3e" d="M 2.11,0 Q 2.11,0 2.01,2.25 1.90,4.51 1.95,5.98 2.00,7.44 1.91,9.57 1.82,11.70 1.75,14.10 1.68,16.51 1.75,18.03 1.81,19.56 1.84,21.21 1.88,22.86 1.88,24.63 1.89,26.39 2.03,28.70 2.17,31.00 2.29,32.35 2.41,33.69 2.12,34.90 1.83,36.11 1.57,37.20 1.31,38.30 0.79,40.02 0.28,41.73 -0.30,43.13 -0.89,44.53 -1.39,46.00 -1.89,47.47 -2.57,49.14 -3.25,50.82 -4.36,52.82 -5.46,54.82 -6.43,56.68 -7.40,58.53 -8.23,60.20 -9.07,61.87 -9.65,63.24 -10.23,64.60 -10.71,66.04 -11.19,67.48 -11.46,68.60 -11.73,69.73 -12.11,72.03 -12.50,74.33 -12.55,75.41 -12.60,76.49 -12.55,77.77 -12.50,79.06 -12.39,80.43 -12.29,81.80 -12.22,84.54 -12.15,87.28 -12.23,87.77 -12.31,88.26 -12.55,88.69 -12.78,89.13 -13.14,89.47 -13.50,89.82 -13.95,90.02 -14.40,90.23 -14.89,90.29 -15.39,90.34 -15.87,90.23 -16.36,90.13 -16.78,89.87 -17.21,89.61 -17.53,89.24 -17.85,88.86 -18.03,88.40 -18.22,87.94 -18.24,87.44 -18.27,86.95 -18.14,86.47 -18.00,85.99 -17.73,85.58 -17.45,85.17 -17.05,84.87 -16.66,84.57 -16.19,84.41 -15.72,84.25 -15.22,84.25 -14.72,84.25 -14.25,84.41 -13.78,84.57 -13.39,84.87 -12.99,85.17 -12.72,85.58 -12.44,85.99 -12.30,86.47 -12.17,86.95 -12.20,87.44 -12.23,87.94 -12.41,88.40 -12.59,88.86 -12.91,89.24 -13.24,89.62 -13.66,89.87 -14.09,90.13 -14.57,90.23 -15.06,90.34 -15.55,90.29 -16.04,90.23 -16.49,90.02 -16.94,89.82 -17.30,89.47 -17.66,89.13 -17.89,88.69 -18.13,88.26 -18.21,87.77 -18.29,87.28 -18.29,87.28 -18.29,87.28 -18.27,85.30 -18.25,83.33 -18.17,82.18 -18.10,81.03 -17.98,79.68 -17.85,78.34 -17.71,77.21 -17.56,76.09 -17.43,74.84 -17.29,73.60 -17.04,72.05 -16.80,70.49 -16.48,69.48 -16.17,68.46 -15.78,67.27 -15.39,66.08 -14.84,64.45 -14.30,62.81 -13.66,61.42 -13.03,60.03 -12.32,58.38 -11.61,56.73 -10.92,54.73 -10.24,52.73 -9.55,50.65 -8.87,48.58 -8.46,47.54 -8.04,46.50 -7.35,44.99 -6.67,43.48 -6.06,42.14 -5.46,40.80 -4.97,39.80 -4.48,38.81 -4.02,37.36 -3.55,35.90 -2.98,34.76 -2.41,33.61 -2.29,32.30 -2.17,31.00 -2.03,28.70 -1.89,26.39 -1.88,24.63 -1.88,22.86 -1.84,21.21 -1.81,19.56 -1.75,18.03 -1.68,16.51 -1.75,14.10 -1.82,11.70 -1.91,9.57 -2.00,7.44 -1.95,5.98 -1.90,4.51 -2.01,2.25 -2.11,0 -2.08,-0.25 -2.05,-0.50 -1.96,-0.74 -1.87,-0.98 -1.73,-1.19 -1.58,-1.40 -1.39,-1.57 -1.20,-1.74 -0.97,-1.86 -0.75,-1.98 -0.50,-2.04 -0.25,-2.10 0.00,-2.10 0.25,-2.10 0.50,-2.04 0.75,-1.97 0.97,-1.86 1.20,-1.74 1.39,-1.57 1.58,-1.40 1.73,-1.19 1.87,-0.98 1.96,-0.74 2.05,-0.50 2.08,-0.25 2.11,0.00 2.11,0.00 L 2.11,0 Z"></path></g><g transform="translate(415.0678216585185 125.25022759613057) rotate(0 3.4484765854365946 34.84886456232471)" stroke="none"><path fill="#2b8a3e" d="M 1.69,0 Q 1.69,0 1.64,2.23 1.59,4.46 1.58,6.46 1.57,8.46 1.54,10.59 1.50,12.72 1.47,14.91 1.45,17.09 1.46,19.07 1.48,21.06 1.64,23.63 1.81,26.20 2.13,27.74 2.45,29.29 2.85,31.45 3.25,33.61 3.63,35.61 4.01,37.61 4.37,39.46 4.73,41.32 5.08,42.87 5.42,44.43 5.75,45.93 6.07,47.44 6.39,48.59 6.72,49.74 6.98,51.25 7.25,52.76 7.54,53.95 7.82,55.15 8.08,56.35 8.34,57.55 8.46,59.14 8.58,60.73 8.85,62.82 9.13,64.90 9.30,67.25 9.48,69.60 9.42,70.02 9.37,70.43 9.19,70.81 9.00,71.18 8.71,71.48 8.42,71.78 8.04,71.97 7.67,72.16 7.26,72.22 6.84,72.28 6.43,72.20 6.02,72.13 5.65,71.92 5.29,71.72 5.01,71.41 4.72,71.10 4.56,70.72 4.39,70.34 4.35,69.92 4.31,69.50 4.41,69.10 4.51,68.69 4.73,68.34 4.95,67.98 5.28,67.72 5.60,67.45 5.99,67.31 6.38,67.16 6.80,67.14 7.22,67.13 7.62,67.25 8.02,67.37 8.36,67.61 8.71,67.85 8.95,68.19 9.20,68.53 9.32,68.92 9.45,69.32 9.44,69.74 9.43,70.16 9.29,70.55 9.15,70.95 8.89,71.28 8.63,71.60 8.28,71.83 7.93,72.06 7.53,72.16 7.12,72.27 6.70,72.24 6.29,72.21 5.90,72.04 5.52,71.88 5.20,71.60 4.89,71.33 4.68,70.97 4.47,70.60 4.39,70.19 4.31,69.78 4.31,69.78 4.31,69.78 4.25,67.67 4.19,65.56 4.08,63.29 3.96,61.02 3.90,59.68 3.84,58.34 3.68,57.15 3.52,55.95 3.34,54.67 3.15,53.38 2.98,51.97 2.81,50.55 2.64,49.31 2.46,48.06 2.26,46.54 2.07,45.03 1.85,43.45 1.64,41.87 1.34,40.02 1.04,38.18 0.66,36.19 0.27,34.21 -0.20,31.99 -0.68,29.77 -0.86,28.09 -1.04,26.41 -1.26,23.73 -1.48,21.06 -1.46,19.07 -1.45,17.09 -1.47,14.91 -1.50,12.72 -1.54,10.59 -1.57,8.46 -1.58,6.46 -1.59,4.46 -1.64,2.23 -1.69,0 -1.67,-0.20 -1.64,-0.40 -1.57,-0.59 -1.50,-0.78 -1.38,-0.95 -1.26,-1.12 -1.11,-1.26 -0.96,-1.39 -0.78,-1.49 -0.60,-1.58 -0.40,-1.63 -0.20,-1.68 0.00,-1.68 0.20,-1.68 0.40,-1.63 0.60,-1.58 0.78,-1.49 0.96,-1.39 1.11,-1.26 1.26,-1.12 1.38,-0.95 1.50,-0.78 1.57,-0.59 1.64,-0.40 1.67,-0.20 1.69,0.00 1.69,0.00 L 1.69,0 Z"></path></g><g transform="translate(292.01683180491955 43.66060540021408) rotate(0 47 35)"><text x="0" y="25" font-family="Virgil, Segoe UI Emoji" font-size="28px" fill="#2b8a3e" text-anchor="start" style="white-space: pre;" direction="ltr">GRASS</text><text x="0" y="60" font-family="Virgil, Segoe UI Emoji" font-size="28px" fill="#2b8a3e" text-anchor="start" style="white-space: pre;" direction="ltr"></text></g></svg>