<svg version="1.1" xmlns="http://www.w3.org/2000/svg" viewBox="0 0 570.4408429467693 258.04325613955643" width="1140.8816858935386" height="516.0865122791129">
  <!-- svg-source:excalidraw -->
  
  <defs>
    <style class="style-fonts">
      @font-face {
        font-family: "Virgil";
        src: url("https://excalidraw.com/Virgil.woff2");
      }
      @font-face {
        font-family: "Cascadia";
        src: url("https://excalidraw.com/Cascadia.woff2");
      }
    </style>
  </defs>
  <g stroke-linecap="round" transform="translate(20.228966286999196 176.5954539011816) rotate(0 33.9783361051156 35.05532324337378)"><path d="M21.05 1.77 C26.87 -1.2, 35.6 -1.03, 42.25 0.72 C48.91 2.48, 56.77 6.95, 60.98 12.28 C65.19 17.6, 67.38 25.69, 67.5 32.68 C67.63 39.67, 65.16 48.33, 61.73 54.2 C58.31 60.08, 53.13 65.35, 46.97 67.93 C40.81 70.5, 31.4 71.35, 24.79 69.64 C18.18 67.93, 11.47 62.96, 7.32 57.68 C3.16 52.4, 0.25 44.89, -0.15 37.96 C-0.55 31.03, 1.12 21.99, 4.91 16.11 C8.71 10.23, 19.13 5.04, 22.64 2.69 C26.15 0.35, 25.62 1.62, 25.96 2.03 M45.38 2.22 C51.07 4.07, 57.94 10.06, 61.56 15.76 C65.17 21.46, 67.34 29.73, 67.09 36.41 C66.83 43.1, 63.96 50.26, 60.03 55.88 C56.09 61.49, 49.93 68.3, 43.47 70.1 C37 71.91, 27.56 69.27, 21.24 66.69 C14.92 64.11, 9.3 60.14, 5.56 54.61 C1.81 49.08, -1.51 40.32, -1.23 33.5 C-0.95 26.68, 2.81 19.18, 7.22 13.69 C11.63 8.2, 18.69 2.58, 25.23 0.59 C31.78 -1.4, 42.89 1.41, 46.48 1.76 C50.06 2.1, 46.98 2.19, 46.76 2.64" stroke="#000000" stroke-width="1" fill="none"></path></g><g stroke-linecap="round" transform="translate(265.7369998771609 175.64055592323052) rotate(0 33.9783361051156 35.05532324337378)"><path d="M18.65 3.09 C23.99 0.05, 33.09 0.03, 39.65 1.26 C46.2 2.49, 53.36 5.74, 57.96 10.46 C62.57 15.17, 66.25 22.57, 67.27 29.56 C68.29 36.54, 67.13 46.28, 64.07 52.37 C61.01 58.46, 54.81 63.3, 48.89 66.11 C42.98 68.91, 35.07 70.36, 28.56 69.19 C22.05 68.01, 14.39 64.04, 9.83 59.05 C5.28 54.06, 2.17 46.16, 1.21 39.25 C0.26 32.33, 0.67 23.58, 4.09 17.57 C7.51 11.56, 18.63 5.64, 21.73 3.2 C24.83 0.77, 22.63 2.36, 22.7 2.95 M47.8 2.15 C53.71 4.4, 60 10.77, 63.24 16.84 C66.48 22.9, 68.13 31.45, 67.23 38.54 C66.33 45.62, 62.05 54.31, 57.86 59.36 C53.67 64.42, 48.56 67.56, 42.08 68.85 C35.59 70.15, 25.14 70.07, 18.95 67.12 C12.77 64.17, 8.05 57.22, 4.98 51.18 C1.91 45.13, -0.23 37.48, 0.53 30.86 C1.29 24.25, 5.23 16.47, 9.56 11.49 C13.88 6.52, 20.17 2.28, 26.46 1.02 C32.76 -0.25, 43.87 3.42, 47.34 3.9 C50.81 4.38, 47.62 3.34, 47.3 3.9" stroke="#000000" stroke-width="1" fill="none"></path></g><g stroke-linecap="round"><g transform="translate(68.44529689167649 178.36908493499936) rotate(0 29.98849847997849 -24.36576693942368)"><path d="M-0.89 -1.07 C9.35 -9.23, 50.8 -41.65, 60.87 -49.71 M0.84 0.98 C11.03 -6.97, 50.06 -40.33, 60.25 -48.55" stroke="#000000" stroke-width="1" fill="none"></path></g></g><mask></mask><g stroke-linecap="round"><g transform="translate(79.70856627972881 185.99141255700465) rotate(0 30.378968033663327 -24.53998872901832)"><path d="M-1.07 0.64 C8.97 -7.5, 49.36 -41.36, 59.5 -49.72 M0.56 -0.07 C11.06 -7.99, 52.13 -40.5, 61.83 -48.57" stroke="#000000" stroke-width="1" fill="none"></path></g></g><mask></mask><g stroke-linecap="round"><g transform="translate(218.3027946788178 185.95313462837998) rotate(263.1556223969778 30.664718395018326 -23.960658631376646)"><path d="M0.64 -0.73 C10.7 -8.79, 49.65 -41.52, 59.49 -49.43 M-0.49 1.5 C10.04 -6.29, 51.96 -39.53, 61.82 -48.12" stroke="#000000" stroke-width="1" fill="none"></path></g></g><mask></mask><g stroke-linecap="round"><g transform="translate(227.8097637100617 179.6765273407325) rotate(263.1556223969778 29.527979220555466 -24.002469581389505)"><path d="M-0.73 -0.74 C9.42 -9.09, 49.49 -41.33, 59.78 -49.49 M1.09 1.49 C11.13 -6.76, 48.66 -39.85, 58.6 -48.23" stroke="#000000" stroke-width="1" fill="none"></path></g></g><mask></mask><g stroke-linecap="round"><g transform="translate(123.64779803341463 134.338401098247) rotate(0 56.55240718402496 -1.489031116368892)"><path d="M-0.74 -0.45 C18.13 -0.46, 94.78 -0.55, 113.84 -0.83 M1.08 -1.73 C19.68 -2.01, 93.44 -2.63, 112.62 -2.52" stroke="#000000" stroke-width="1" fill="none"></path></g></g><mask></mask><g transform="translate(125.44966564070643 130.61738204384233) rotate(0 55.33181954525395 -30.173798029169916)" stroke="none"><path fill="#000000" d="M -2.46,0 Q -2.46,0 -2.47,-1.37 -2.47,-2.75 -2.51,-5.15 -2.55,-7.55 -2.55,-8.93 -2.55,-10.32 -2.37,-11.85 -2.19,-13.38 -1.78,-14.91 -1.36,-16.45 -0.86,-17.89 -0.37,-19.32 0.49,-21.33 1.35,-23.35 1.70,-24.48 2.04,-25.60 2.32,-26.68 2.60,-27.75 2.84,-28.85 3.09,-29.95 3.52,-31.16 3.95,-32.38 4.65,-34.23 5.36,-36.08 6.25,-37.84 7.14,-39.61 8.05,-41.22 8.97,-42.82 9.69,-43.73 10.42,-44.64 11.14,-45.43 11.87,-46.22 12.75,-47.10 13.64,-47.99 14.66,-48.86 15.68,-49.72 16.69,-50.51 17.69,-51.29 18.96,-52.24 20.24,-53.20 21.76,-54.04 23.29,-54.88 24.44,-55.49 25.59,-56.10 26.81,-56.79 28.04,-57.47 29.29,-58.01 30.54,-58.55 31.51,-59.02 32.48,-59.48 34.13,-60.17 35.78,-60.86 37.51,-61.41 39.24,-61.96 40.37,-62.12 41.50,-62.28 43.12,-62.58 44.74,-62.87 46.23,-62.96 47.73,-63.04 49.03,-63.24 50.33,-63.43 51.43,-63.50 52.54,-63.57 53.63,-63.60 54.72,-63.63 56.13,-63.67 57.54,-63.71 59.01,-63.74 60.49,-63.76 61.56,-63.79 62.64,-63.83 63.79,-63.85 64.95,-63.87 66.72,-63.50 68.50,-63.13 70.66,-62.26 72.81,-61.39 74.42,-60.84 76.02,-60.29 77.29,-59.67 78.55,-59.04 79.86,-58.35 81.16,-57.65 82.89,-56.76 84.61,-55.87 86.13,-54.85 87.64,-53.82 88.67,-53.18 89.69,-52.55 90.72,-51.64 91.76,-50.72 92.59,-49.91 93.42,-49.10 94.33,-48.20 95.24,-47.29 96.05,-46.49 96.86,-45.68 97.57,-44.82 98.28,-43.95 98.98,-42.89 99.68,-41.82 100.37,-40.93 101.06,-40.04 101.96,-38.64 102.87,-37.24 103.50,-36.36 104.14,-35.48 105.00,-33.94 105.86,-32.40 106.61,-30.97 107.37,-29.55 107.99,-28.16 108.61,-26.76 109.06,-25.62 109.50,-24.47 109.91,-23.45 110.32,-22.43 110.91,-20.86 111.49,-19.29 111.94,-17.61 112.40,-15.94 112.47,-14.60 112.55,-13.26 112.71,-12.19 112.87,-11.11 113.05,-10.02 113.24,-8.93 113.47,-7.64 113.70,-6.34 114.03,-4.55 114.35,-2.76 114.32,-2.16 114.30,-1.55 114.08,-0.99 113.86,-0.43 113.47,0.02 113.08,0.48 112.56,0.80 112.05,1.11 111.46,1.25 110.87,1.38 110.27,1.32 109.67,1.25 109.12,1.00 108.57,0.75 108.13,0.34 107.69,-0.06 107.40,-0.59 107.12,-1.12 107.02,-1.72 106.92,-2.32 107.01,-2.91 107.10,-3.51 107.38,-4.04 107.66,-4.58 108.10,-4.99 108.54,-5.41 109.08,-5.67 109.63,-5.93 110.23,-5.99 110.83,-6.06 111.42,-5.94 112.01,-5.81 112.53,-5.50 113.05,-5.19 113.44,-4.74 113.83,-4.28 114.06,-3.72 114.29,-3.16 114.32,-2.56 114.36,-1.95 114.20,-1.37 114.04,-0.79 113.71,-0.29 113.37,0.20 112.89,0.57 112.41,0.94 111.84,1.14 111.27,1.33 110.67,1.34 110.06,1.34 109.49,1.15 108.92,0.96 108.43,0.60 107.95,0.23 107.61,-0.25 107.27,-0.75 107.10,-1.33 106.94,-1.91 106.94,-1.91 106.94,-1.91 106.78,-4.15 106.63,-6.38 106.30,-7.63 105.97,-8.88 105.65,-10.30 105.33,-11.72 105.34,-12.90 105.35,-14.08 105.19,-15.31 105.03,-16.54 104.65,-17.69 104.26,-18.85 103.83,-19.95 103.39,-21.06 103.00,-22.13 102.62,-23.19 102.22,-24.21 101.83,-25.24 101.15,-26.52 100.47,-27.80 99.80,-29.05 99.13,-30.31 98.35,-31.47 97.56,-32.64 96.99,-33.64 96.41,-34.63 95.44,-35.82 94.47,-37.02 93.83,-37.95 93.19,-38.88 92.53,-39.80 91.88,-40.72 91.08,-41.52 90.28,-42.33 89.39,-43.22 88.50,-44.11 87.74,-44.86 86.99,-45.61 86.05,-46.45 85.11,-47.29 83.88,-48.10 82.66,-48.92 81.46,-49.74 80.26,-50.57 78.96,-51.14 77.66,-51.72 76.64,-52.27 75.61,-52.83 74.54,-53.38 73.46,-53.93 71.88,-54.43 70.30,-54.93 69.23,-55.29 68.16,-55.65 66.52,-56.23 64.88,-56.81 63.76,-56.84 62.64,-56.86 61.56,-56.89 60.49,-56.92 59.02,-56.95 57.54,-56.98 56.14,-57.01 54.75,-57.05 53.27,-57.08 51.79,-57.11 50.68,-57.09 49.57,-57.08 47.96,-56.95 46.35,-56.82 45.19,-56.78 44.04,-56.75 42.44,-56.53 40.85,-56.31 39.30,-55.91 37.74,-55.51 36.25,-55.02 34.75,-54.54 32.73,-53.70 30.70,-52.86 29.42,-52.09 28.13,-51.32 27.04,-50.74 25.96,-50.17 24.86,-49.52 23.76,-48.88 22.55,-47.79 21.33,-46.70 20.43,-45.97 19.53,-45.24 18.72,-44.53 17.91,-43.82 16.47,-42.30 15.02,-40.78 14.09,-39.56 13.16,-38.34 12.24,-36.72 11.32,-35.11 10.53,-33.61 9.74,-32.12 9.03,-30.41 8.33,-28.69 8.03,-27.50 7.73,-26.31 7.39,-25.17 7.05,-24.04 6.59,-22.59 6.13,-21.14 5.27,-19.40 4.41,-17.67 3.97,-16.38 3.53,-15.10 3.20,-13.92 2.86,-12.75 2.70,-11.53 2.55,-10.32 2.55,-8.93 2.55,-7.55 2.51,-5.15 2.47,-2.75 2.47,-1.37 2.46,0 2.42,0.29 2.39,0.58 2.28,0.86 2.18,1.14 2.01,1.38 1.84,1.63 1.62,1.82 1.39,2.02 1.13,2.16 0.87,2.30 0.58,2.37 0.29,2.44 -0.00,2.44 -0.29,2.44 -0.58,2.37 -0.87,2.30 -1.13,2.16 -1.39,2.02 -1.62,1.82 -1.84,1.63 -2.01,1.38 -2.18,1.14 -2.28,0.86 -2.39,0.58 -2.42,0.29 -2.46,-0.00 -2.46,-0.00 L -2.46,0 Z"></path></g><g stroke-linecap="round"><g transform="translate(10.51507471241058 247.2146989101418) rotate(0 274.70534676097407 -1.0308858176763351)"><path d="M-0.52 0.83 C90.87 0.42, 456.2 -2.19, 547.59 -2.89 M1.42 0.22 C93.26 0.01, 459.02 -1.13, 549.93 -1.6" stroke="#000000" stroke-width="1" fill="none"></path></g></g><mask></mask><g stroke-linecap="round" transform="translate(365.81495881223634 10) rotate(0 24.75837194152234 117.71770072629033)"><path d="M12.38 0 M12.38 0 C19.42 -1.37, 27.71 -0.79, 37.14 0 M12.38 0 C18.77 0.56, 23.01 -0.07, 37.14 0 M37.14 0 C47.25 1.86, 48.84 5.82, 49.52 12.38 M37.14 0 C46.52 -1.8, 50.19 3.66, 49.52 12.38 M49.52 12.38 C52.26 78.6, 51.98 147.23, 49.52 223.06 M49.52 12.38 C49.37 78.36, 49.25 143.57, 49.52 223.06 M49.52 223.06 C50.83 229.76, 46.25 236.39, 37.14 235.44 M49.52 223.06 C48.61 232.4, 45.44 234.37, 37.14 235.44 M37.14 235.44 C33.74 236.02, 28.82 234.52, 12.38 235.44 M37.14 235.44 C30.01 235.16, 21.63 236.39, 12.38 235.44 M12.38 235.44 C5.41 237.17, -0.32 230.54, 0 223.06 M12.38 235.44 C4.95 235.38, -1.36 233.4, 0 223.06 M0 223.06 C2.18 162.47, 2.38 101.58, 0 12.38 M0 223.06 C-1.76 138.9, -1.75 56.42, 0 12.38 M0 12.38 C-0.34 4.11, 5.95 1.45, 12.38 0 M0 12.38 C-1.56 5.32, 1.91 0.18, 12.38 0" stroke="#000000" stroke-width="1" fill="none"></path></g></svg>