<svg version="1.1" xmlns="http://www.w3.org/2000/svg" viewBox="0 0 568.4746887441738 196.51191588903157" width="1136.9493774883476" height="393.02383177806314">
  <!-- svg-source:excalidraw -->
  
  <defs>
    <style class="style-fonts">
      @font-face {
        font-family: "Virgil";
        src: url("https://excalidraw.com/Virgil.woff2");
      }
      @font-face {
        font-family: "Cascadia";
        src: url("https://excalidraw.com/Cascadia.woff2");
      }
    </style>
  </defs>
  <g stroke-linecap="round" transform="translate(19.485854573582287 116.32566791567888) rotate(0 33.9783361051156 35.05532324337378)"><path d="M49.38 4.09 C55.21 6.77, 60.94 14.4, 63.89 20.63 C66.84 26.86, 68.11 35, 67.08 41.5 C66.04 47.99, 62.5 54.86, 57.69 59.61 C52.88 64.35, 44.81 68.84, 38.21 69.95 C31.62 71.05, 24.03 69.37, 18.09 66.24 C12.16 63.1, 5.54 57.25, 2.62 51.12 C-0.3 45, -0.62 36.51, 0.58 29.51 C1.77 22.5, 4.99 13.82, 9.77 9.09 C14.56 4.35, 21.64 1.31, 29.27 1.08 C36.9 0.85, 50.6 5.86, 55.55 7.69 C60.5 9.53, 59.45 11.68, 58.97 12.09 M26.44 0.8 C32.33 -1, 40.8 0.4, 46.91 3.12 C53.03 5.83, 59.53 11.26, 63.11 17.11 C66.68 22.96, 68.83 31.26, 68.37 38.19 C67.91 45.13, 64.83 53.33, 60.32 58.72 C55.81 64.11, 47.78 69.35, 41.29 70.55 C34.79 71.75, 27.65 68.76, 21.36 65.94 C15.06 63.11, 7.1 59.19, 3.51 53.62 C-0.07 48.06, -0.91 39.28, -0.16 32.54 C0.58 25.8, 3.5 18.52, 7.99 13.18 C12.48 7.85, 23.54 2.52, 26.78 0.54 C30.02 -1.44, 27.18 0.55, 27.43 1.31" stroke="#000000" stroke-width="1" fill="none"></path></g><g stroke-linecap="round" transform="translate(264.993888163744 115.3707699377278) rotate(0 33.9783361051156 35.05532324337378)"><path d="M20.53 2.22 C26.19 -0.76, 35.83 -1.14, 42.38 0.5 C48.94 2.14, 55.72 6.91, 59.85 12.05 C63.97 17.19, 66.55 24.53, 67.13 31.36 C67.72 38.19, 66.61 47.2, 63.36 53.05 C60.12 58.9, 53.67 63.74, 47.65 66.45 C41.62 69.16, 33.66 70.79, 27.22 69.31 C20.78 67.83, 13.64 62.74, 9 57.57 C4.37 52.39, -0.01 44.93, -0.59 38.28 C-1.18 31.64, 0.52 24, 5.51 17.69 C10.5 11.37, 23.95 3.24, 29.34 0.42 C34.74 -2.41, 37.83 0.22, 37.87 0.72 M40.38 0.11 C46.76 0.88, 54.51 5.82, 59.05 11.02 C63.59 16.22, 66.87 24.33, 67.63 31.3 C68.38 38.28, 66.71 46.95, 63.59 52.85 C60.46 58.74, 54.68 63.76, 48.88 66.67 C43.09 69.58, 35.66 71.8, 28.82 70.32 C21.99 68.83, 12.5 62.97, 7.85 57.76 C3.2 52.55, 1.43 45.75, 0.95 39.06 C0.48 32.37, 1.67 23.53, 4.99 17.61 C8.31 11.7, 15.01 6.26, 20.87 3.55 C26.72 0.84, 36.91 1.58, 40.11 1.38 C43.31 1.18, 39.99 2.06, 40.07 2.33" stroke="#000000" stroke-width="1" fill="none"></path></g><g stroke-linecap="round"><g transform="translate(67.70218517825958 118.09929894949664) rotate(0 30.730479708959663 -24.264894861779794)"><path d="M1.17 -0.98 C11.35 -9.35, 51.29 -41.53, 61.13 -49.66 M0.33 1.13 C10.42 -7.16, 50.8 -40.15, 60.65 -48.48" stroke="#000000" stroke-width="1" fill="none"></path></g></g><mask></mask><g stroke-linecap="round"><g transform="translate(78.9654545663119 125.72162657150193) rotate(0 30.466621584466964 -24.05261811878131)"><path d="M-0.98 0.9 C8.85 -7.46, 49.48 -40.88, 59.55 -49 M0.71 0.32 C10.88 -7.33, 51.7 -39.15, 61.91 -47.48" stroke="#000000" stroke-width="1" fill="none"></path></g></g><mask></mask><g stroke-linecap="round"><g transform="translate(217.5596829654009 125.68334864287726) rotate(263.1556223969778 30.05849806269009 -24.080941939703962)"><path d="M0.9 -0.68 C10.74 -8.81, 50.13 -41.62, 60.21 -49.74 M-0.09 1.58 C9.49 -6.32, 49.04 -40.29, 59.24 -48.61" stroke="#000000" stroke-width="1" fill="none"></path></g></g><mask></mask><g stroke-linecap="round"><g transform="translate(227.0666519966448 119.40674135522977) rotate(263.1556223969778 30.55039073827058 -24.719598995471188)"><path d="M-0.68 -0.02 C9.4 -8.15, 49.39 -39.78, 59.47 -47.87 M1.17 -1.08 C11.71 -9.6, 52.17 -41.14, 61.78 -49.41" stroke="#000000" stroke-width="1" fill="none"></path></g></g><mask></mask><g stroke-linecap="round"><g transform="translate(122.90468631999772 74.06861511274428) rotate(0 56.983564568632914 -0.32063692907900077)"><path d="M-0.02 -0.76 C19.07 -1, 96.33 -1.97, 115.46 -2.09 M-1.5 1.45 C17.46 1.44, 95.81 -0.52, 115.1 -0.78" stroke="#000000" stroke-width="1" fill="none"></path></g></g><mask></mask><g transform="translate(124.70655392728952 70.3475960583396) rotate(0 55.33181954525395 -30.173798029169802)" stroke="none"><path fill="#000000" d="M -2.46,0 Q -2.46,0 -2.47,-1.37 -2.47,-2.75 -2.51,-5.15 -2.55,-7.55 -2.55,-8.93 -2.55,-10.32 -2.37,-11.85 -2.19,-13.38 -1.78,-14.91 -1.36,-16.45 -0.86,-17.89 -0.37,-19.32 0.49,-21.33 1.35,-23.35 1.70,-24.48 2.04,-25.60 2.32,-26.68 2.60,-27.75 2.84,-28.85 3.09,-29.95 3.52,-31.16 3.95,-32.38 4.65,-34.23 5.36,-36.08 6.25,-37.84 7.14,-39.61 8.05,-41.22 8.97,-42.82 9.69,-43.73 10.42,-44.64 11.14,-45.43 11.87,-46.22 12.75,-47.10 13.64,-47.99 14.66,-48.86 15.68,-49.72 16.69,-50.51 17.69,-51.29 18.96,-52.24 20.24,-53.20 21.76,-54.04 23.29,-54.88 24.44,-55.49 25.59,-56.10 26.81,-56.79 28.04,-57.47 29.29,-58.01 30.54,-58.55 31.51,-59.02 32.48,-59.48 34.13,-60.17 35.78,-60.86 37.51,-61.41 39.24,-61.96 40.37,-62.12 41.50,-62.28 43.12,-62.58 44.74,-62.87 46.23,-62.96 47.73,-63.04 49.03,-63.24 50.33,-63.43 51.43,-63.50 52.54,-63.57 53.63,-63.60 54.72,-63.63 56.13,-63.67 57.54,-63.71 59.01,-63.74 60.49,-63.76 61.56,-63.79 62.64,-63.83 63.79,-63.85 64.95,-63.87 66.72,-63.50 68.50,-63.13 70.66,-62.26 72.81,-61.39 74.42,-60.84 76.02,-60.29 77.29,-59.67 78.55,-59.04 79.86,-58.35 81.16,-57.65 82.89,-56.76 84.61,-55.87 86.13,-54.85 87.64,-53.82 88.67,-53.18 89.69,-52.55 90.72,-51.64 91.76,-50.72 92.59,-49.91 93.42,-49.10 94.33,-48.20 95.24,-47.29 96.05,-46.49 96.86,-45.68 97.57,-44.82 98.28,-43.95 98.98,-42.89 99.68,-41.82 100.37,-40.93 101.06,-40.04 101.96,-38.64 102.87,-37.24 103.50,-36.36 104.14,-35.48 105.00,-33.94 105.86,-32.40 106.61,-30.97 107.37,-29.55 107.99,-28.16 108.61,-26.76 109.06,-25.62 109.50,-24.47 109.91,-23.45 110.32,-22.43 110.91,-20.86 111.49,-19.29 111.94,-17.61 112.40,-15.94 112.47,-14.60 112.55,-13.26 112.71,-12.19 112.87,-11.11 113.05,-10.02 113.24,-8.93 113.47,-7.64 113.70,-6.34 114.03,-4.55 114.35,-2.76 114.32,-2.16 114.30,-1.55 114.08,-0.99 113.86,-0.43 113.47,0.02 113.08,0.48 112.56,0.80 112.05,1.11 111.46,1.25 110.87,1.38 110.27,1.32 109.67,1.25 109.12,1.00 108.57,0.75 108.13,0.34 107.69,-0.06 107.40,-0.59 107.12,-1.12 107.02,-1.72 106.92,-2.32 107.01,-2.91 107.10,-3.51 107.38,-4.04 107.66,-4.58 108.10,-4.99 108.54,-5.41 109.08,-5.67 109.63,-5.93 110.23,-5.99 110.83,-6.06 111.42,-5.94 112.01,-5.81 112.53,-5.50 113.05,-5.19 113.44,-4.74 113.83,-4.28 114.06,-3.72 114.29,-3.16 114.32,-2.56 114.36,-1.95 114.20,-1.37 114.04,-0.79 113.71,-0.29 113.37,0.20 112.89,0.57 112.41,0.94 111.84,1.14 111.27,1.33 110.67,1.34 110.06,1.34 109.49,1.15 108.92,0.96 108.43,0.60 107.95,0.23 107.61,-0.25 107.27,-0.75 107.10,-1.33 106.94,-1.91 106.94,-1.91 106.94,-1.91 106.78,-4.15 106.63,-6.38 106.30,-7.63 105.97,-8.88 105.65,-10.30 105.33,-11.72 105.34,-12.90 105.35,-14.08 105.19,-15.31 105.03,-16.54 104.65,-17.69 104.26,-18.85 103.83,-19.95 103.39,-21.06 103.00,-22.13 102.62,-23.19 102.22,-24.21 101.83,-25.24 101.15,-26.52 100.47,-27.80 99.80,-29.05 99.13,-30.31 98.35,-31.47 97.56,-32.64 96.99,-33.64 96.41,-34.63 95.44,-35.82 94.47,-37.02 93.83,-37.95 93.19,-38.88 92.53,-39.80 91.88,-40.72 91.08,-41.52 90.28,-42.33 89.39,-43.22 88.50,-44.11 87.74,-44.86 86.99,-45.61 86.05,-46.45 85.11,-47.29 83.88,-48.10 82.66,-48.92 81.46,-49.74 80.26,-50.57 78.96,-51.14 77.66,-51.72 76.64,-52.27 75.61,-52.83 74.54,-53.38 73.46,-53.93 71.88,-54.43 70.30,-54.93 69.23,-55.29 68.16,-55.65 66.52,-56.23 64.88,-56.81 63.76,-56.84 62.64,-56.86 61.56,-56.89 60.49,-56.92 59.02,-56.95 57.54,-56.98 56.14,-57.01 54.75,-57.05 53.27,-57.08 51.79,-57.11 50.68,-57.09 49.57,-57.08 47.96,-56.95 46.35,-56.82 45.19,-56.78 44.04,-56.75 42.44,-56.53 40.85,-56.31 39.30,-55.91 37.74,-55.51 36.25,-55.02 34.75,-54.54 32.73,-53.70 30.70,-52.86 29.42,-52.09 28.13,-51.32 27.04,-50.74 25.96,-50.17 24.86,-49.52 23.76,-48.88 22.55,-47.79 21.33,-46.70 20.43,-45.97 19.53,-45.24 18.72,-44.53 17.91,-43.82 16.47,-42.30 15.02,-40.78 14.09,-39.56 13.16,-38.34 12.24,-36.72 11.32,-35.11 10.53,-33.61 9.74,-32.12 9.03,-30.41 8.33,-28.69 8.03,-27.50 7.73,-26.31 7.39,-25.17 7.05,-24.04 6.59,-22.59 6.13,-21.14 5.27,-19.40 4.41,-17.67 3.97,-16.38 3.53,-15.10 3.20,-13.92 2.86,-12.75 2.70,-11.53 2.55,-10.32 2.55,-8.93 2.55,-7.55 2.51,-5.15 2.47,-2.75 2.47,-1.37 2.46,0 2.42,0.29 2.39,0.58 2.28,0.86 2.18,1.14 2.01,1.38 1.84,1.63 1.62,1.82 1.39,2.02 1.13,2.16 0.87,2.30 0.58,2.37 0.29,2.44 -0.00,2.44 -0.29,2.44 -0.58,2.37 -0.87,2.30 -1.13,2.16 -1.39,2.02 -1.62,1.82 -1.84,1.63 -2.01,1.38 -2.18,1.14 -2.28,0.86 -2.39,0.58 -2.42,0.29 -2.46,-0.00 -2.46,-0.00 L -2.46,0 Z"></path></g><g stroke-linecap="round"><g transform="translate(9.771962998993672 186.94491292463908) rotate(0 274.46538137309324 -1.3501255532796677)"><path d="M1.11 -0.43 C92.56 -0.68, 457.64 -1.84, 548.7 -2.27 M0.23 -1.71 C91.56 -1.67, 456.34 -0.61, 547.96 -0.65" stroke="#000000" stroke-width="1" fill="none"></path></g></g><mask></mask><g stroke-linecap="round" transform="translate(365.0718470988195 137.8110106528793) rotate(0 24.806722821100607 23.512390612020454)"><path d="M11.76 0 M11.76 0 C18.59 0.34, 22.74 -0.85, 37.86 0 M11.76 0 C19.24 0.66, 28.39 0.5, 37.86 0 M37.86 0 C44.46 -1.48, 49.62 5.4, 49.61 11.76 M37.86 0 C46.93 0.38, 49.76 3.48, 49.61 11.76 M49.61 11.76 C50.35 17.88, 49.46 24.67, 49.61 35.27 M49.61 11.76 C49.6 18.35, 49.57 24.76, 49.61 35.27 M49.61 35.27 C50.29 42.92, 47.42 48.15, 37.86 47.02 M49.61 35.27 C47.61 41.21, 46.76 46.55, 37.86 47.02 M37.86 47.02 C29.06 46.83, 20.59 46.94, 11.76 47.02 M37.86 47.02 C28.18 47.23, 18.06 46.14, 11.76 47.02 M11.76 47.02 C2.32 45.96, -1.54 43.76, 0 35.27 M11.76 47.02 C5.16 47.33, 0.22 42.6, 0 35.27 M0 35.27 C-0.68 27.23, -0.86 21, 0 11.76 M0 35.27 C-0.29 28.87, 0.26 23.93, 0 11.76 M0 11.76 C-1.1 5.71, 3.3 1.57, 11.76 0 M0 11.76 C2.13 5.27, 4.33 0.4, 11.76 0" stroke="#000000" stroke-width="1" fill="none"></path></g></svg>