<svg version="1.1" xmlns="http://www.w3.org/2000/svg" viewBox="0 0 590.4835951900475 256.7570223558996" width="1180.967190380095" height="513.5140447117992">
  <!-- svg-source:excalidraw -->
  
  <defs>
    <style class="style-fonts">
      @font-face {
        font-family: "Virgil";
        src: url("https://excalidraw.com/Virgil.woff2");
      }
      @font-face {
        font-family: "Cascadia";
        src: url("https://excalidraw.com/Cascadia.woff2");
      }
    </style>
  </defs>
  <g stroke-linecap="round" transform="translate(19.992158969339926 116.3256679156791) rotate(0 33.9783361051156 35.05532324337378)"><path d="M23.49 0.68 C29.45 -1.68, 37.95 -0.86, 44.38 1.65 C50.81 4.17, 58.09 10.15, 62.09 15.77 C66.09 21.38, 68.4 28.56, 68.39 35.33 C68.38 42.09, 66.1 50.86, 62.02 56.35 C57.95 61.84, 50.51 66.4, 43.94 68.29 C37.37 70.18, 28.97 69.96, 22.61 67.71 C16.26 65.46, 9.61 60.41, 5.83 54.79 C2.05 49.17, -0.37 40.64, -0.04 33.96 C0.28 27.29, 2.23 20.43, 7.8 14.72 C13.36 9, 27.64 1.79, 33.32 -0.31 C39 -2.41, 41.74 1.39, 41.89 2.09 M34.64 -0.18 C41.07 -0.95, 47.91 1.43, 53.03 5.47 C58.15 9.51, 63.25 17.09, 65.34 24.06 C67.43 31.03, 67.66 40.52, 65.59 47.28 C63.52 54.04, 58.41 60.83, 52.92 64.64 C47.44 68.44, 39.4 70.52, 32.69 70.12 C25.98 69.72, 17.91 66.35, 12.64 62.22 C7.37 58.09, 2.86 51.83, 1.07 45.36 C-0.71 38.89, -0.23 29.86, 1.93 23.4 C4.08 16.93, 8.49 10.5, 14.02 6.55 C19.54 2.6, 31.98 0.74, 35.08 -0.3 C38.17 -1.34, 32.89 -0.43, 32.6 0.31" stroke="#000000" stroke-width="1" fill="none"></path></g><g stroke-linecap="round" transform="translate(265.50019255950167 115.37076993772803) rotate(0 33.9783361051156 35.05532324337378)"><path d="M23.43 1.8 C29.28 -0.65, 38.67 -0.78, 45.15 1.36 C51.63 3.49, 58.57 8.82, 62.31 14.62 C66.05 20.42, 67.76 29.32, 67.6 36.15 C67.44 42.99, 65.5 50.06, 61.35 55.65 C57.2 61.23, 49.11 67.72, 42.7 69.67 C36.29 71.62, 29.17 69.82, 22.9 67.33 C16.63 64.84, 8.99 60.35, 5.1 54.73 C1.21 49.11, -0.84 40.38, -0.41 33.6 C0.02 26.82, 2.22 19.5, 7.67 14.03 C13.13 8.57, 27.1 3.01, 32.31 0.81 C37.52 -1.4, 39.16 0.31, 38.95 0.81 M43.23 1.18 C49.87 2.65, 57.41 7.67, 61.73 13.22 C66.06 18.78, 69.32 27.89, 69.19 34.52 C69.05 41.15, 64.83 47.3, 60.91 53.03 C57 58.75, 51.68 66.39, 45.68 68.85 C39.68 71.31, 31.48 69.8, 24.92 67.77 C18.36 65.74, 10.67 61.78, 6.32 56.67 C1.98 51.56, -0.96 43.87, -1.14 37.1 C-1.33 30.33, 1.39 21.66, 5.21 16.04 C9.03 10.41, 15.39 5.98, 21.77 3.35 C28.15 0.72, 39.84 0.57, 43.49 0.26 C47.14 -0.06, 43.64 0.63, 43.67 1.47" stroke="#000000" stroke-width="1" fill="none"></path></g><g stroke-linecap="round"><g transform="translate(68.20848957401722 118.09929894949698) rotate(0 30.234627828046996 -24.530421838225493)"><path d="M0.85 -0.69 C10.97 -8.85, 50.92 -40.69, 60.62 -48.67 M-0.16 1.56 C9.84 -7.01, 49.62 -41.92, 59.88 -50.63" stroke="#000000" stroke-width="1" fill="none"></path></g></g><mask></mask><g stroke-linecap="round"><g transform="translate(79.47175896206957 125.72162657150238) rotate(0 30.05209337758211 -24.566811747882184)"><path d="M0.27 0.66 C10.16 -7.5, 49.06 -41.5, 59.06 -49.79 M-1.05 -0.04 C9.21 -7.99, 51.06 -40.72, 61.16 -48.68" stroke="#000000" stroke-width="1" fill="none"></path></g></g><mask></mask><g stroke-linecap="round"><g transform="translate(218.0659873611586 125.68334864287738) rotate(263.1556223969778 29.57453215766077 -24.35914361033184)"><path d="M-0.91 0.29 C8.94 -8.07, 49.77 -40.96, 60.06 -49.01 M0.82 -0.6 C10.41 -8.25, 49.1 -39.29, 59.02 -47.49" stroke="#000000" stroke-width="1" fill="none"></path></g></g><mask></mask><g stroke-linecap="round"><g transform="translate(227.5729563924025 119.40674135523034) rotate(263.1556223969778 29.592214169547276 -25.21918749434002)"><path d="M0.29 -0.17 C10.13 -8.1, 50.05 -40.16, 60.2 -48.43 M-1.02 -1.31 C8.56 -9.51, 48.91 -42.33, 59.24 -50.26" stroke="#000000" stroke-width="1" fill="none"></path></g></g><mask></mask><g stroke-linecap="round"><g transform="translate(123.41099071575536 74.06861511274474) rotate(0 57.698284083922076 -1.294909837900093)"><path d="M-0.79 0.17 C17.99 0.17, 94.71 -0.84, 113.78 -0.99 M1 -0.79 C20.08 -1.05, 96.99 -2.46, 116.18 -2.76" stroke="#000000" stroke-width="1" fill="none"></path></g></g><mask></mask><g transform="translate(125.21285832304716 70.34759605833972) rotate(0 55.33181954525395 -30.17379802916986)" stroke="none"><path fill="#000000" d="M -2.46,0 Q -2.46,0 -2.47,-1.37 -2.47,-2.75 -2.51,-5.15 -2.55,-7.55 -2.55,-8.93 -2.55,-10.32 -2.37,-11.85 -2.19,-13.38 -1.78,-14.91 -1.36,-16.45 -0.86,-17.89 -0.37,-19.32 0.49,-21.33 1.35,-23.35 1.70,-24.48 2.04,-25.60 2.32,-26.68 2.60,-27.75 2.84,-28.85 3.09,-29.95 3.52,-31.16 3.95,-32.38 4.65,-34.23 5.36,-36.08 6.25,-37.84 7.14,-39.61 8.05,-41.22 8.97,-42.82 9.69,-43.73 10.42,-44.64 11.14,-45.43 11.87,-46.22 12.75,-47.10 13.64,-47.99 14.66,-48.86 15.68,-49.72 16.69,-50.51 17.69,-51.29 18.96,-52.24 20.24,-53.20 21.76,-54.04 23.29,-54.88 24.44,-55.49 25.59,-56.10 26.81,-56.79 28.04,-57.47 29.29,-58.01 30.54,-58.55 31.51,-59.02 32.48,-59.48 34.13,-60.17 35.78,-60.86 37.51,-61.41 39.24,-61.96 40.37,-62.12 41.50,-62.28 43.12,-62.58 44.74,-62.87 46.23,-62.96 47.73,-63.04 49.03,-63.24 50.33,-63.43 51.43,-63.50 52.54,-63.57 53.63,-63.60 54.72,-63.63 56.13,-63.67 57.54,-63.71 59.01,-63.74 60.49,-63.76 61.56,-63.79 62.64,-63.83 63.79,-63.85 64.95,-63.87 66.72,-63.50 68.50,-63.13 70.66,-62.26 72.81,-61.39 74.42,-60.84 76.02,-60.29 77.29,-59.67 78.55,-59.04 79.86,-58.35 81.16,-57.65 82.89,-56.76 84.61,-55.87 86.13,-54.85 87.64,-53.82 88.67,-53.18 89.69,-52.55 90.72,-51.64 91.76,-50.72 92.59,-49.91 93.42,-49.10 94.33,-48.20 95.24,-47.29 96.05,-46.49 96.86,-45.68 97.57,-44.82 98.28,-43.95 98.98,-42.89 99.68,-41.82 100.37,-40.93 101.06,-40.04 101.96,-38.64 102.87,-37.24 103.50,-36.36 104.14,-35.48 105.00,-33.94 105.86,-32.40 106.61,-30.97 107.37,-29.55 107.99,-28.16 108.61,-26.76 109.06,-25.62 109.50,-24.47 109.91,-23.45 110.32,-22.43 110.91,-20.86 111.49,-19.29 111.94,-17.61 112.40,-15.94 112.47,-14.60 112.55,-13.26 112.71,-12.19 112.87,-11.11 113.05,-10.02 113.24,-8.93 113.47,-7.64 113.70,-6.34 114.03,-4.55 114.35,-2.76 114.32,-2.16 114.30,-1.55 114.08,-0.99 113.86,-0.43 113.47,0.02 113.08,0.48 112.56,0.80 112.05,1.11 111.46,1.25 110.87,1.38 110.27,1.32 109.67,1.25 109.12,1.00 108.57,0.75 108.13,0.34 107.69,-0.06 107.40,-0.59 107.12,-1.12 107.02,-1.72 106.92,-2.32 107.01,-2.91 107.10,-3.51 107.38,-4.04 107.66,-4.58 108.10,-4.99 108.54,-5.41 109.08,-5.67 109.63,-5.93 110.23,-5.99 110.83,-6.06 111.42,-5.94 112.01,-5.81 112.53,-5.50 113.05,-5.19 113.44,-4.74 113.83,-4.28 114.06,-3.72 114.29,-3.16 114.32,-2.56 114.36,-1.95 114.20,-1.37 114.04,-0.79 113.71,-0.29 113.37,0.20 112.89,0.57 112.41,0.94 111.84,1.14 111.27,1.33 110.67,1.34 110.06,1.34 109.49,1.15 108.92,0.96 108.43,0.60 107.95,0.23 107.61,-0.25 107.27,-0.75 107.10,-1.33 106.94,-1.91 106.94,-1.91 106.94,-1.91 106.78,-4.15 106.63,-6.38 106.30,-7.63 105.97,-8.88 105.65,-10.30 105.33,-11.72 105.34,-12.90 105.35,-14.08 105.19,-15.31 105.03,-16.54 104.65,-17.69 104.26,-18.85 103.83,-19.95 103.39,-21.06 103.00,-22.13 102.62,-23.19 102.22,-24.21 101.83,-25.24 101.15,-26.52 100.47,-27.80 99.80,-29.05 99.13,-30.31 98.35,-31.47 97.56,-32.64 96.99,-33.64 96.41,-34.63 95.44,-35.82 94.47,-37.02 93.83,-37.95 93.19,-38.88 92.53,-39.80 91.88,-40.72 91.08,-41.52 90.28,-42.33 89.39,-43.22 88.50,-44.11 87.74,-44.86 86.99,-45.61 86.05,-46.45 85.11,-47.29 83.88,-48.10 82.66,-48.92 81.46,-49.74 80.26,-50.57 78.96,-51.14 77.66,-51.72 76.64,-52.27 75.61,-52.83 74.54,-53.38 73.46,-53.93 71.88,-54.43 70.30,-54.93 69.23,-55.29 68.16,-55.65 66.52,-56.23 64.88,-56.81 63.76,-56.84 62.64,-56.86 61.56,-56.89 60.49,-56.92 59.02,-56.95 57.54,-56.98 56.14,-57.01 54.75,-57.05 53.27,-57.08 51.79,-57.11 50.68,-57.09 49.57,-57.08 47.96,-56.95 46.35,-56.82 45.19,-56.78 44.04,-56.75 42.44,-56.53 40.85,-56.31 39.30,-55.91 37.74,-55.51 36.25,-55.02 34.75,-54.54 32.73,-53.70 30.70,-52.86 29.42,-52.09 28.13,-51.32 27.04,-50.74 25.96,-50.17 24.86,-49.52 23.76,-48.88 22.55,-47.79 21.33,-46.70 20.43,-45.97 19.53,-45.24 18.72,-44.53 17.91,-43.82 16.47,-42.30 15.02,-40.78 14.09,-39.56 13.16,-38.34 12.24,-36.72 11.32,-35.11 10.53,-33.61 9.74,-32.12 9.03,-30.41 8.33,-28.69 8.03,-27.50 7.73,-26.31 7.39,-25.17 7.05,-24.04 6.59,-22.59 6.13,-21.14 5.27,-19.40 4.41,-17.67 3.97,-16.38 3.53,-15.10 3.20,-13.92 2.86,-12.75 2.70,-11.53 2.55,-10.32 2.55,-8.93 2.55,-7.55 2.51,-5.15 2.47,-2.75 2.47,-1.37 2.46,0 2.42,0.29 2.39,0.58 2.28,0.86 2.18,1.14 2.01,1.38 1.84,1.63 1.62,1.82 1.39,2.02 1.13,2.16 0.87,2.30 0.58,2.37 0.29,2.44 -0.00,2.44 -0.29,2.44 -0.58,2.37 -0.87,2.30 -1.13,2.16 -1.39,2.02 -1.62,1.82 -1.84,1.63 -2.01,1.38 -2.18,1.14 -2.28,0.86 -2.39,0.58 -2.42,0.29 -2.46,-0.00 -2.46,-0.00 L -2.46,0 Z"></path></g><g stroke-linecap="round"><g transform="translate(10.27826739475131 186.94491292463977) rotate(0 183.0735759371577 -0.5789003280665952)"><path d="M-0.28 0.55 C60.62 0.71, 305.3 0.17, 366.43 0.1 M1.78 -0.2 C62.51 -0.33, 305.21 -1.45, 365.96 -1.74" stroke="#000000" stroke-width="1" fill="none"></path></g></g><mask></mask><g stroke-linecap="round"><g transform="translate(324.4036752045701 186.11411324409607) rotate(0 103.04252900103964 0.1692653205546435)"><path d="M0.55 0.31 C34.68 0.3, 171.64 -0.04, 205.53 0.04" stroke="#000000" stroke-width="1.5" fill="none" stroke-dasharray="8 9"></path></g></g><mask></mask><g stroke-linecap="round"><g transform="translate(374.0987770649598 186.4292127340982) rotate(0 102.6535312623763 29.18341663621237)"><path d="M0.25 -0.04 C3 0.95, 11.43 -3.78, 16.16 4.85 C20.88 13.48, 16.13 43.27, 28.61 51.73 C41.1 60.2, 76.94 63.08, 91.06 55.65 C105.18 48.21, 94.28 16.22, 113.34 7.1 C132.4 -2.03, 189.91 2.16, 205.41 0.89 M-1.08 -1.1 C1.53 -0.37, 9.72 -5.47, 15.06 3.04 C20.4 11.55, 18.26 40.99, 30.94 49.97 C43.63 58.96, 77.64 64.12, 91.18 56.96 C104.72 49.79, 92.98 16.49, 112.18 7 C131.38 -2.49, 190.58 1, 206.38 0.04" stroke="#000000" stroke-width="1" fill="none"></path></g></g><mask></mask></svg>