<svg version="1.1" xmlns="http://www.w3.org/2000/svg" viewBox="0 0 474.93342368962857 220.85996753524387" width="949.8668473792571" height="441.71993507048774">
  <!-- svg-source:excalidraw -->
  
  <defs>
    <style class="style-fonts">
      @font-face {
        font-family: "Virgil";
        src: url("https://excalidraw.com/Virgil.woff2");
      }
      @font-face {
        font-family: "Cascadia";
        src: url("https://excalidraw.com/Cascadia.woff2");
      }
    </style>
  </defs>
  <g stroke-linecap="round" transform="translate(20.619742203687338 116.32566791567797) rotate(0 33.9783361051156 35.05532324337378)"><path d="M31.58 -0.46 C37.88 -1.24, 45.5 1.89, 51.22 5.67 C56.94 9.45, 63.25 15.76, 65.92 22.21 C68.59 28.65, 68.87 37.78, 67.22 44.36 C65.57 50.94, 61.32 57.57, 56.04 61.7 C50.77 65.84, 42.36 68.69, 35.57 69.16 C28.77 69.62, 20.75 68.12, 15.27 64.5 C9.79 60.88, 5.21 53.91, 2.7 47.41 C0.19 40.92, -1.28 32.12, 0.2 25.53 C1.69 18.94, 5.79 12.04, 11.59 7.86 C17.4 3.68, 30.54 1.51, 35.04 0.43 C39.54 -0.65, 38.69 0.9, 38.59 1.39 M33.67 -0.18 C40.14 -0.41, 49.71 3.99, 55.17 8.31 C60.63 12.63, 64.41 19.47, 66.41 25.76 C68.41 32.05, 69.15 39.68, 67.19 46.07 C65.23 52.46, 60.52 60.23, 54.66 64.11 C48.8 67.99, 38.82 69.81, 32.03 69.38 C25.25 68.94, 18.89 65.62, 13.95 61.49 C9.01 57.36, 4.22 50.79, 2.39 44.58 C0.55 38.37, 1.02 30.44, 2.95 24.25 C4.88 18.07, 8.83 11.45, 13.95 7.46 C19.08 3.48, 30.48 1.3, 33.71 0.34 C36.94 -0.61, 33.24 1.46, 33.32 1.74" stroke="#000000" stroke-width="1" fill="none"></path></g><g stroke-linecap="round" transform="translate(266.127775793849 115.3707699377278) rotate(0 33.9783361051156 35.05532324337378)"><path d="M17.82 3.09 C23.36 -0.24, 32.68 -0.41, 39.39 0.81 C46.1 2.03, 53.26 5.6, 58.07 10.41 C62.88 15.21, 67.25 23.03, 68.25 29.64 C69.26 36.25, 67.35 44.09, 64.09 50.08 C60.83 56.06, 54.63 62.24, 48.71 65.55 C42.8 68.87, 35.18 71.03, 28.63 69.97 C22.08 68.9, 14.26 64.14, 9.4 59.17 C4.54 54.2, 0.5 46.8, -0.52 40.15 C-1.53 33.5, -0.39 25.5, 3.32 19.25 C7.02 13.01, 18.11 5.61, 21.71 2.67 C25.31 -0.28, 24.79 1.05, 24.91 1.58 M31.93 0.7 C38.33 0.03, 47.83 1.71, 53.59 5.51 C59.35 9.32, 64.39 16.9, 66.5 23.54 C68.62 30.18, 68.1 39.1, 66.3 45.34 C64.5 51.59, 60.89 56.81, 55.69 61.01 C50.49 65.22, 42.05 69.84, 35.11 70.58 C28.17 71.32, 19.63 69.08, 14.05 65.44 C8.48 61.8, 3.71 55.43, 1.68 48.76 C-0.35 42.09, -0.14 32.41, 1.87 25.43 C3.88 18.45, 8.63 11.34, 13.73 6.88 C18.83 2.43, 29.21 -0.22, 32.45 -1.3 C35.7 -2.39, 33.46 -0.41, 33.19 0.36" stroke="#000000" stroke-width="1" fill="none"></path></g><g stroke-linecap="round"><g transform="translate(68.83607280836463 118.09929894949664) rotate(0 30.1677041785357 -24.11840897490788)"><path d="M-0.16 -1.15 C9.65 -9.24, 49.68 -40.97, 59.64 -49.1 M-1.71 0.87 C8.43 -6.99, 52.01 -39.29, 62.04 -47.63" stroke="#000000" stroke-width="1" fill="none"></path></g></g><mask></mask><g stroke-linecap="round"><g transform="translate(80.09934219641696 125.72162657150102) rotate(0 29.479950477288426 -23.95930218415856)"><path d="M-1.15 -0.59 C8.96 -8.84, 50.04 -41.63, 60.11 -49.63 M0.45 1.71 C10.44 -6.37, 48.9 -39.69, 59.09 -48.44" stroke="#000000" stroke-width="1" fill="none"></path></g></g><mask></mask><g stroke-linecap="round"><g transform="translate(218.69357059550595 125.68334864287635) rotate(263.1556223969778 30.67789270033441 -25.049776341426877)"><path d="M-0.59 -0.13 C9.37 -8.26, 49.38 -41.91, 59.58 -49.97 M1.3 -1.24 C11.67 -9.16, 52.16 -40.74, 61.95 -48.96" stroke="#000000" stroke-width="1" fill="none"></path></g></g><mask></mask><g stroke-linecap="round"><g transform="translate(228.20053962674984 119.40674135522886) rotate(263.1556223969778 29.887292286095544 -24.46498393663728)"><path d="M-0.13 -0.65 C9.94 -8.66, 49.09 -40.6, 59.24 -48.62 M-1.65 1.62 C8.88 -6.71, 51.11 -42.4, 61.42 -50.55" stroke="#000000" stroke-width="1" fill="none"></path></g></g><mask></mask><g stroke-linecap="round"><g transform="translate(124.03857395010277 74.06861511274428) rotate(0 57.03370563068023 -0.9677658237992546)"><path d="M-0.65 -1 C18.57 -1.17, 95.51 -1.11, 114.72 -1.17 M1.2 1.1 C20.35 0.57, 95.17 -2.27, 113.96 -3.03" stroke="#000000" stroke-width="1" fill="none"></path></g></g><mask></mask><g transform="translate(125.84044155739457 70.3475960583396) rotate(0 55.33181954525395 -30.173798029169802)" stroke="none"><path fill="#000000" d="M -2.46,0 Q -2.46,0 -2.47,-1.37 -2.47,-2.75 -2.51,-5.15 -2.55,-7.55 -2.55,-8.93 -2.55,-10.32 -2.37,-11.85 -2.19,-13.38 -1.78,-14.91 -1.36,-16.45 -0.86,-17.89 -0.37,-19.32 0.49,-21.33 1.35,-23.35 1.70,-24.48 2.04,-25.60 2.32,-26.68 2.60,-27.75 2.84,-28.85 3.09,-29.95 3.52,-31.16 3.95,-32.38 4.65,-34.23 5.36,-36.08 6.25,-37.84 7.14,-39.61 8.05,-41.22 8.97,-42.82 9.69,-43.73 10.42,-44.64 11.14,-45.43 11.87,-46.22 12.75,-47.10 13.64,-47.99 14.66,-48.86 15.68,-49.72 16.69,-50.51 17.69,-51.29 18.96,-52.24 20.24,-53.20 21.76,-54.04 23.29,-54.88 24.44,-55.49 25.59,-56.10 26.81,-56.79 28.04,-57.47 29.29,-58.01 30.54,-58.55 31.51,-59.02 32.48,-59.48 34.13,-60.17 35.78,-60.86 37.51,-61.41 39.24,-61.96 40.37,-62.12 41.50,-62.28 43.12,-62.58 44.74,-62.87 46.23,-62.96 47.73,-63.04 49.03,-63.24 50.33,-63.43 51.43,-63.50 52.54,-63.57 53.63,-63.60 54.72,-63.63 56.13,-63.67 57.54,-63.71 59.01,-63.74 60.49,-63.76 61.56,-63.79 62.64,-63.83 63.79,-63.85 64.95,-63.87 66.72,-63.50 68.50,-63.13 70.66,-62.26 72.81,-61.39 74.42,-60.84 76.02,-60.29 77.29,-59.67 78.55,-59.04 79.86,-58.35 81.16,-57.65 82.89,-56.76 84.61,-55.87 86.13,-54.85 87.64,-53.82 88.67,-53.18 89.69,-52.55 90.72,-51.64 91.76,-50.72 92.59,-49.91 93.42,-49.10 94.33,-48.20 95.24,-47.29 96.05,-46.49 96.86,-45.68 97.57,-44.82 98.28,-43.95 98.98,-42.89 99.68,-41.82 100.37,-40.93 101.06,-40.04 101.96,-38.64 102.87,-37.24 103.50,-36.36 104.14,-35.48 105.00,-33.94 105.86,-32.40 106.61,-30.97 107.37,-29.55 107.99,-28.16 108.61,-26.76 109.06,-25.62 109.50,-24.47 109.91,-23.45 110.32,-22.43 110.91,-20.86 111.49,-19.29 111.94,-17.61 112.40,-15.94 112.47,-14.60 112.55,-13.26 112.71,-12.19 112.87,-11.11 113.05,-10.02 113.24,-8.93 113.47,-7.64 113.70,-6.34 114.03,-4.55 114.35,-2.76 114.32,-2.16 114.30,-1.55 114.08,-0.99 113.86,-0.43 113.47,0.02 113.08,0.48 112.56,0.80 112.05,1.11 111.46,1.25 110.87,1.38 110.27,1.32 109.67,1.25 109.12,1.00 108.57,0.75 108.13,0.34 107.69,-0.06 107.40,-0.59 107.12,-1.12 107.02,-1.72 106.92,-2.32 107.01,-2.91 107.10,-3.51 107.38,-4.04 107.66,-4.58 108.10,-4.99 108.54,-5.41 109.08,-5.67 109.63,-5.93 110.23,-5.99 110.83,-6.06 111.42,-5.94 112.01,-5.81 112.53,-5.50 113.05,-5.19 113.44,-4.74 113.83,-4.28 114.06,-3.72 114.29,-3.16 114.32,-2.56 114.36,-1.95 114.20,-1.37 114.04,-0.79 113.71,-0.29 113.37,0.20 112.89,0.57 112.41,0.94 111.84,1.14 111.27,1.33 110.67,1.34 110.06,1.34 109.49,1.15 108.92,0.96 108.43,0.60 107.95,0.23 107.61,-0.25 107.27,-0.75 107.10,-1.33 106.94,-1.91 106.94,-1.91 106.94,-1.91 106.78,-4.15 106.63,-6.38 106.30,-7.63 105.97,-8.88 105.65,-10.30 105.33,-11.72 105.34,-12.90 105.35,-14.08 105.19,-15.31 105.03,-16.54 104.65,-17.69 104.26,-18.85 103.83,-19.95 103.39,-21.06 103.00,-22.13 102.62,-23.19 102.22,-24.21 101.83,-25.24 101.15,-26.52 100.47,-27.80 99.80,-29.05 99.13,-30.31 98.35,-31.47 97.56,-32.64 96.99,-33.64 96.41,-34.63 95.44,-35.82 94.47,-37.02 93.83,-37.95 93.19,-38.88 92.53,-39.80 91.88,-40.72 91.08,-41.52 90.28,-42.33 89.39,-43.22 88.50,-44.11 87.74,-44.86 86.99,-45.61 86.05,-46.45 85.11,-47.29 83.88,-48.10 82.66,-48.92 81.46,-49.74 80.26,-50.57 78.96,-51.14 77.66,-51.72 76.64,-52.27 75.61,-52.83 74.54,-53.38 73.46,-53.93 71.88,-54.43 70.30,-54.93 69.23,-55.29 68.16,-55.65 66.52,-56.23 64.88,-56.81 63.76,-56.84 62.64,-56.86 61.56,-56.89 60.49,-56.92 59.02,-56.95 57.54,-56.98 56.14,-57.01 54.75,-57.05 53.27,-57.08 51.79,-57.11 50.68,-57.09 49.57,-57.08 47.96,-56.95 46.35,-56.82 45.19,-56.78 44.04,-56.75 42.44,-56.53 40.85,-56.31 39.30,-55.91 37.74,-55.51 36.25,-55.02 34.75,-54.54 32.73,-53.70 30.70,-52.86 29.42,-52.09 28.13,-51.32 27.04,-50.74 25.96,-50.17 24.86,-49.52 23.76,-48.88 22.55,-47.79 21.33,-46.70 20.43,-45.97 19.53,-45.24 18.72,-44.53 17.91,-43.82 16.47,-42.30 15.02,-40.78 14.09,-39.56 13.16,-38.34 12.24,-36.72 11.32,-35.11 10.53,-33.61 9.74,-32.12 9.03,-30.41 8.33,-28.69 8.03,-27.50 7.73,-26.31 7.39,-25.17 7.05,-24.04 6.59,-22.59 6.13,-21.14 5.27,-19.40 4.41,-17.67 3.97,-16.38 3.53,-15.10 3.20,-13.92 2.86,-12.75 2.70,-11.53 2.55,-10.32 2.55,-8.93 2.55,-7.55 2.51,-5.15 2.47,-2.75 2.47,-1.37 2.46,0 2.42,0.29 2.39,0.58 2.28,0.86 2.18,1.14 2.01,1.38 1.84,1.63 1.62,1.82 1.39,2.02 1.13,2.16 0.87,2.30 0.58,2.37 0.29,2.44 -0.00,2.44 -0.29,2.44 -0.58,2.37 -0.87,2.30 -1.13,2.16 -1.39,2.02 -1.62,1.82 -1.84,1.63 -2.01,1.38 -2.18,1.14 -2.28,0.86 -2.39,0.58 -2.42,0.29 -2.46,-0.00 -2.46,-0.00 L -2.46,0 Z"></path></g><g stroke-linecap="round"><g transform="translate(10.905850629098722 186.94491292463726) rotate(0 226.5608612157156 -0.6252998963266236)"><path d="M0.36 0.49 C76.14 0.68, 378.31 0.21, 454.03 0.15 M-0.91 -0.3 C74.8 -0.39, 377.33 -1.5, 453.21 -1.79" stroke="#000000" stroke-width="1" fill="none"></path></g></g><mask></mask><g stroke-linecap="round" transform="translate(361.3797047617184 196.47606989774658) rotate(0 40.7569848371262 7.19194881874887)"><path d="M46.4 -0.63 C54.41 -0.66, 64.51 0.46, 70.32 1.77 C76.13 3.08, 80.97 5.73, 81.26 7.23 C81.54 8.74, 77.57 9.76, 72.03 10.83 C66.5 11.89, 56.52 13.2, 48.04 13.63 C39.56 14.07, 28.59 14.05, 21.13 13.44 C13.68 12.84, 6.41 11.49, 3.3 9.98 C0.18 8.47, -0.21 5.87, 2.44 4.4 C5.09 2.92, 10.6 1.72, 19.19 1.11 C27.77 0.5, 47.17 0.77, 53.95 0.74 C60.74 0.71, 60.05 0.76, 59.92 0.95 M38.93 1.3 C47.11 0.77, 59.38 -0.52, 66.21 0.31 C73.04 1.13, 78.42 4.37, 79.92 6.24 C81.42 8.11, 79.3 10.08, 75.2 11.52 C71.1 12.97, 63.05 14.62, 55.31 14.93 C47.58 15.24, 36.78 14.21, 28.78 13.39 C20.78 12.57, 12 11.43, 7.33 10 C2.66 8.57, -0.46 6.24, 0.75 4.82 C1.96 3.39, 8.41 2.28, 14.61 1.44 C20.81 0.6, 33.68 -0.15, 37.96 -0.25 C42.23 -0.35, 40.03 0.4, 40.25 0.82" stroke="#000000" stroke-width="1" fill="none"></path></g><g transform="translate(392.7202601198151 201.2980601678796) rotate(0 -2.226351758523549 1.5255404168788118)" stroke="none"><path fill="#000000" d="M 0,-2.59 Q 0,-2.59 1.67,-2.54 3.34,-2.48 5.70,-2.53 8.06,-2.57 9.56,-2.64 11.06,-2.72 12.78,-2.78 14.50,-2.84 16.20,-2.92 17.89,-3.00 19.35,-3.07 20.82,-3.14 21.20,-3.16 21.59,-3.18 21.97,-3.13 22.35,-3.08 22.71,-2.95 23.07,-2.81 23.38,-2.59 23.70,-2.38 23.95,-2.09 24.21,-1.80 24.38,-1.46 24.56,-1.12 24.65,-0.75 24.75,-0.38 24.75,0.00 24.75,0.38 24.65,0.75 24.56,1.12 24.38,1.46 24.21,1.80 23.95,2.09 23.70,2.38 23.38,2.59 23.06,2.81 22.71,2.95 22.35,3.08 21.97,3.13 21.59,3.18 20.46,3.22 19.34,3.26 17.67,3.29 16.00,3.32 14.71,3.27 13.42,3.22 11.46,3.20 9.50,3.19 8.03,3.21 6.56,3.23 5.05,3.24 3.53,3.25 2.03,3.27 0.52,3.28 -0.57,3.30 -1.66,3.33 -2.77,3.37 -3.88,3.41 -4.97,3.44 -6.06,3.47 -7.23,3.49 -8.40,3.51 -9.76,3.88 -11.13,4.26 -12.26,4.45 -13.40,4.65 -14.56,4.84 -15.72,5.04 -16.99,5.45 -18.26,5.86 -19.38,6.08 -20.49,6.30 -24.78,5.82 -29.06,5.35 -29.40,4.86 -29.73,4.36 -29.90,3.78 -30.06,3.20 -30.02,2.60 -29.99,2.00 -29.77,1.45 -29.55,0.89 -29.16,0.43 -28.77,-0.01 -28.26,-0.32 -27.74,-0.63 -27.16,-0.76 -26.57,-0.89 -25.98,-0.83 -25.38,-0.76 -24.84,-0.51 -24.29,-0.26 -23.86,0.14 -23.42,0.56 -23.14,1.09 -22.86,1.62 -22.76,2.21 -22.66,2.80 -22.76,3.39 -22.86,3.98 -23.14,4.51 -23.42,5.04 -23.85,5.46 -24.29,5.87 -24.83,6.12 -25.38,6.37 -25.97,6.44 -26.57,6.50 -27.16,6.37 -27.74,6.25 -28.26,5.94 -28.77,5.63 -29.16,5.17 -29.55,4.71 -29.77,4.16 -29.99,3.60 -30.02,3.00 -30.06,2.40 -29.90,1.82 -29.74,1.24 -29.40,0.75 -29.06,0.25 -28.59,-0.10 -28.11,-0.47 -27.54,-0.66 -26.97,-0.85 -26.37,-0.85 -25.77,-0.85 -25.20,-0.66 -24.63,-0.47 -24.16,-0.10 -23.68,0.25 -23.68,0.25 -23.68,0.25 -22.87,-0.37 -22.07,-1.01 -20.67,-1.14 -19.28,-1.28 -17.78,-1.69 -16.27,-2.10 -15.07,-2.25 -13.86,-2.41 -12.51,-2.78 -11.17,-3.15 -9.78,-3.33 -8.40,-3.51 -7.23,-3.49 -6.06,-3.47 -4.97,-3.44 -3.88,-3.41 -2.77,-3.37 -1.66,-3.33 -0.57,-3.30 0.52,-3.28 2.03,-3.27 3.53,-3.25 5.05,-3.24 6.56,-3.23 8.03,-3.21 9.50,-3.19 11.46,-3.20 13.42,-3.22 14.71,-3.27 16.00,-3.32 17.67,-3.29 19.34,-3.26 20.46,-3.22 21.59,-3.18 21.97,-3.13 22.35,-3.08 22.71,-2.95 23.06,-2.81 23.38,-2.59 23.70,-2.38 23.95,-2.09 24.21,-1.80 24.38,-1.46 24.56,-1.12 24.65,-0.75 24.75,-0.38 24.75,-0.00 24.75,0.38 24.65,0.75 24.56,1.12 24.38,1.46 24.21,1.80 23.95,2.09 23.70,2.38 23.38,2.59 23.07,2.81 22.71,2.95 22.35,3.08 21.97,3.13 21.59,3.18 21.20,3.16 20.82,3.14 19.35,3.07 17.89,3.00 16.20,2.92 14.50,2.84 12.78,2.78 11.06,2.72 9.56,2.64 8.06,2.57 5.70,2.53 3.34,2.48 1.67,2.54 0,2.59 -0.31,2.55 -0.62,2.51 -0.91,2.40 -1.20,2.29 -1.46,2.11 -1.72,1.94 -1.92,1.70 -2.13,1.47 -2.27,1.19 -2.42,0.91 -2.50,0.61 -2.57,0.31 -2.57,-0.00 -2.57,-0.31 -2.50,-0.61 -2.42,-0.91 -2.27,-1.19 -2.13,-1.47 -1.92,-1.70 -1.71,-1.94 -1.46,-2.11 -1.20,-2.29 -0.91,-2.40 -0.62,-2.51 -0.31,-2.55 0.00,-2.59 0.00,-2.59 L 0,-2.59 Z"></path></g><g transform="translate(407.826997028264 201.12898092671503) rotate(0 0.3197026496653166 3.5962508216146034)" stroke="none"><path fill="#000000" d="M 0,-2.65 Q 0,-2.65 1.21,-2.66 2.42,-2.67 3.70,-2.75 4.98,-2.82 6.37,-2.88 7.76,-2.94 9.15,-3.01 10.53,-3.08 11.60,-3.13 12.67,-3.19 13.93,-3.24 15.20,-3.29 16.34,-3.33 17.49,-3.37 18.71,-3.40 19.94,-3.44 21.04,-3.48 22.14,-3.52 24.04,-3.22 25.95,-2.92 27.18,-2.60 28.42,-2.29 29.43,-1.73 30.44,-1.18 31.76,-0.21 33.07,0.75 32.85,2.53 32.63,4.30 32.02,5.28 31.41,6.25 30.37,6.66 29.33,7.06 27.48,7.60 25.63,8.13 24.45,8.42 23.27,8.70 21.71,9.08 20.15,9.45 18.97,9.72 17.80,9.98 16.62,10.20 15.44,10.42 14.23,10.58 13.02,10.74 11.67,10.78 10.32,10.81 9.21,10.81 8.10,10.81 6.53,10.81 4.95,10.81 3.52,10.81 2.10,10.81 0.87,10.82 -0.36,10.83 -1.45,10.82 -2.55,10.82 -3.68,10.82 -4.81,10.81 -5.89,10.81 -6.98,10.81 -8.45,10.81 -9.93,10.82 -11.54,10.66 -13.15,10.50 -14.39,10.30 -15.62,10.09 -16.69,9.84 -17.76,9.59 -18.89,9.68 -20.02,9.76 -21.38,9.54 -22.74,9.33 -24.26,9.20 -25.78,9.07 -27.44,8.53 -29.10,7.98 -30.70,7.24 -32.30,6.49 -32.15,4.26 -31.99,2.04 -30.75,0.97 -29.51,-0.09 -28.35,-0.60 -27.20,-1.11 -26.00,-1.19 -24.81,-1.27 -23.70,-1.28 -22.60,-1.28 -20.86,-1.24 -19.13,-1.19 -17.35,-1.14 -15.58,-1.09 -13.79,-1.26 -12.01,-1.43 -10.71,-1.44 -9.41,-1.45 -7.93,-1.43 -6.45,-1.42 -4.78,-1.39 -3.11,-1.37 -1.45,-1.35 0.21,-1.33 1.70,-1.33 3.19,-1.32 4.69,-1.31 6.20,-1.30 7.52,-1.31 8.84,-1.32 9.91,-1.33 10.97,-1.34 12.21,-1.37 13.44,-1.39 14.51,-1.41 15.57,-1.44 16.74,-1.44 17.91,-1.44 19.37,-1.45 20.83,-1.46 22.13,-1.48 23.43,-1.50 24.59,-1.51 25.75,-1.52 28.30,-1.32 30.86,-1.12 31.39,-0.87 31.93,-0.63 32.36,-0.22 32.79,0.17 33.07,0.70 33.35,1.22 33.45,1.80 33.55,2.39 33.45,2.97 33.36,3.56 33.08,4.08 32.81,4.60 32.38,5.01 31.95,5.42 31.41,5.67 30.88,5.92 30.29,5.99 29.70,6.05 29.12,5.93 28.54,5.80 28.03,5.50 27.53,5.19 27.14,4.74 26.76,4.29 26.54,3.74 26.32,3.19 26.28,2.60 26.25,2.01 26.40,1.44 26.56,0.87 26.89,0.38 27.22,-0.10 27.69,-0.46 28.16,-0.82 28.72,-1.01 29.28,-1.20 29.88,-1.20 30.47,-1.21 31.03,-1.02 31.59,-0.83 32.06,-0.47 32.54,-0.12 32.87,0.36 33.20,0.85 33.36,1.42 33.52,1.99 33.49,2.58 33.46,3.17 33.24,3.73 33.03,4.28 32.64,4.73 32.26,5.18 31.76,5.49 31.25,5.79 30.67,5.92 30.09,6.05 29.51,5.99 28.92,5.93 28.92,5.93 28.92,5.93 27.33,5.83 25.75,5.73 24.59,5.72 23.43,5.71 22.13,5.69 20.83,5.67 19.37,5.66 17.91,5.65 16.55,5.64 15.19,5.64 13.92,5.61 12.64,5.58 11.33,5.56 10.02,5.54 8.84,5.52 7.66,5.51 6.40,5.50 5.14,5.50 3.45,5.52 1.75,5.54 0.09,5.55 -1.56,5.57 -3.22,5.59 -4.89,5.61 -6.57,5.64 -8.26,5.67 -9.45,5.68 -10.64,5.68 -12.15,5.74 -13.65,5.80 -15.61,5.98 -17.57,6.15 -19.25,6.19 -20.94,6.24 -22.10,6.26 -23.26,6.28 -24.48,6.25 -25.70,6.21 -26.91,6.77 -28.12,7.33 -27.38,6.44 -26.64,5.55 -26.13,4.39 -25.62,3.22 -26.15,2.11 -26.69,1.00 -25.33,1.47 -23.98,1.94 -22.84,1.99 -21.70,2.04 -20.23,2.20 -18.76,2.36 -17.39,2.45 -16.02,2.53 -14.79,2.79 -13.56,3.04 -12.45,3.29 -11.34,3.55 -10.17,3.55 -8.99,3.56 -7.50,3.56 -6.01,3.57 -4.91,3.56 -3.82,3.56 -2.62,3.56 -1.42,3.55 -0.05,3.55 1.31,3.56 2.75,3.56 4.20,3.56 5.55,3.56 6.90,3.57 8.24,3.55 9.57,3.54 10.75,3.59 11.92,3.64 13.42,3.42 14.92,3.20 16.20,3.04 17.48,2.89 18.87,2.45 20.26,2.01 21.68,1.67 23.11,1.33 25.23,0.70 27.35,0.07 26.61,1.28 25.86,2.49 26.38,3.56 26.90,4.62 25.71,4.26 24.53,3.90 23.33,3.71 22.14,3.52 21.04,3.48 19.94,3.44 18.71,3.40 17.49,3.37 16.34,3.33 15.20,3.29 13.93,3.24 12.67,3.19 11.60,3.13 10.53,3.08 9.15,3.01 7.76,2.94 6.37,2.88 4.98,2.82 3.70,2.75 2.42,2.67 1.21,2.66 0,2.65 -0.31,2.61 -0.63,2.57 -0.93,2.46 -1.23,2.34 -1.49,2.16 -1.75,1.98 -1.97,1.74 -2.18,1.50 -2.33,1.22 -2.48,0.94 -2.55,0.63 -2.63,0.31 -2.63,-0.00 -2.63,-0.31 -2.55,-0.63 -2.48,-0.94 -2.33,-1.22 -2.18,-1.50 -1.97,-1.74 -1.75,-1.98 -1.49,-2.16 -1.23,-2.34 -0.93,-2.46 -0.63,-2.57 -0.31,-2.61 0.00,-2.65 0.00,-2.65 L 0,-2.65 Z"></path></g><g transform="translate(392.78821500597695 201.19821156167973) rotate(0 13.620149354977002 -1.1479187716236083)" stroke="none"><path fill="#000000" d="M 0,-2.45 Q 0,-2.45 1.54,-2.44 3.08,-2.42 4.58,-2.42 6.08,-2.41 7.66,-2.39 9.25,-2.38 11.07,-2.43 12.90,-2.48 14.13,-2.59 15.36,-2.70 16.75,-3.01 18.15,-3.32 19.23,-3.59 20.32,-3.87 21.55,-4.15 22.79,-4.42 24.64,-4.81 26.49,-5.20 26.97,-5.22 27.46,-5.24 27.92,-5.11 28.39,-4.98 28.79,-4.70 29.19,-4.42 29.48,-4.03 29.77,-3.65 29.92,-3.18 30.07,-2.72 30.07,-2.24 30.06,-1.75 29.90,-1.29 29.74,-0.83 29.45,-0.45 29.15,-0.07 28.75,0.19 28.34,0.46 27.87,0.59 27.40,0.71 26.92,0.68 26.43,0.65 25.98,0.47 25.54,0.28 25.17,-0.02 24.80,-0.34 24.55,-0.76 24.31,-1.18 24.21,-1.65 24.11,-2.13 24.16,-2.61 24.22,-3.09 24.43,-3.53 24.64,-3.97 24.97,-4.32 25.31,-4.67 25.74,-4.89 26.17,-5.12 26.65,-5.19 27.13,-5.26 27.61,-5.18 28.09,-5.10 28.52,-4.87 28.94,-4.64 29.27,-4.28 29.60,-3.92 29.80,-3.48 30.00,-3.04 30.05,-2.56 30.10,-2.07 29.99,-1.60 29.88,-1.13 29.63,-0.71 29.37,-0.30 29.00,0.00 28.63,0.31 28.18,0.49 27.72,0.66 27.72,0.66 27.72,0.66 25.81,0.95 23.90,1.23 22.42,1.36 20.95,1.50 19.76,1.61 18.58,1.73 17.08,1.82 15.59,1.90 14.41,1.91 13.23,1.92 11.24,2.15 9.25,2.38 7.66,2.39 6.08,2.41 4.58,2.42 3.08,2.42 1.54,2.44 0,2.45 -0.29,2.42 -0.58,2.38 -0.86,2.28 -1.14,2.17 -1.38,2.00 -1.63,1.84 -1.82,1.61 -2.02,1.39 -2.16,1.13 -2.29,0.87 -2.36,0.58 -2.44,0.29 -2.44,-0.00 -2.44,-0.29 -2.36,-0.58 -2.29,-0.87 -2.16,-1.13 -2.02,-1.39 -1.82,-1.61 -1.63,-1.84 -1.38,-2.00 -1.14,-2.17 -0.86,-2.28 -0.58,-2.38 -0.29,-2.42 0.00,-2.45 0.00,-2.45 L 0,-2.45 Z"></path></g></svg>