<svg version="1.1" xmlns="http://www.w3.org/2000/svg" viewBox="0 0 681.5831766157726 284.469434522096" width="1363.1663532315451" height="568.938869044192">
  <!-- svg-source:excalidraw -->
  
  <defs>
    <style class="style-fonts">
      @font-face {
        font-family: "Virgil";
        src: url("https://excalidraw.com/Virgil.woff2");
      }
      @font-face {
        font-family: "Cascadia";
        src: url("https://excalidraw.com/Cascadia.woff2");
      }
    </style>
  </defs>
  <g stroke-linecap="round" transform="translate(10.212217274073296 199.86428552682082) rotate(333.8252188734021 33.978336105115595 35.05532324337355)"><path d="M26.53 -0.12 C32.76 -1.82, 42.75 0.17, 48.82 3.1 C54.89 6.03, 59.66 11.58, 62.97 17.47 C66.28 23.35, 69.45 31.71, 68.67 38.4 C67.88 45.1, 63 52.55, 58.26 57.66 C53.52 62.76, 46.64 67.48, 40.21 69.02 C33.78 70.57, 25.6 69.66, 19.69 66.92 C13.78 64.18, 7.85 58.5, 4.76 52.58 C1.68 46.66, 0.48 38.26, 1.18 31.4 C1.88 24.54, 4.25 16.72, 8.96 11.42 C13.67 6.12, 25.74 1.34, 29.42 -0.39 C33.1 -2.12, 30.97 0.49, 31.03 1.06 M35.3 0.24 C41.73 0.01, 49.39 3.62, 54.56 7.62 C59.73 11.61, 64.22 17.69, 66.32 24.23 C68.41 30.77, 69.21 40.07, 67.15 46.86 C65.09 53.64, 59.52 61.16, 53.98 64.93 C48.44 68.69, 40.77 69.81, 33.9 69.43 C27.04 69.05, 18.06 66.92, 12.8 62.64 C7.54 58.37, 4.21 50.2, 2.35 43.78 C0.49 37.36, -0.38 30.39, 1.64 24.12 C3.65 17.84, 8.57 10.22, 14.45 6.13 C20.34 2.05, 33.55 0.62, 36.93 -0.39 C40.3 -1.4, 34.78 -0.74, 34.7 0.05" stroke="#000000" stroke-width="1" fill="none"></path></g><g stroke-linecap="round" transform="translate(230.12282754750993 90.71104518728134) rotate(333.8252188734021 33.9783361051156 35.05532324337355)"><path d="M35.44 0.98 C41.88 0.96, 50.58 3.26, 55.79 7.67 C61.01 12.08, 65.21 20.84, 66.75 27.44 C68.3 34.04, 67.66 41.16, 65.05 47.26 C62.43 53.36, 56.69 60.32, 51.06 64.06 C45.44 67.79, 37.8 69.99, 31.31 69.68 C24.81 69.38, 17.1 66.4, 12.07 62.22 C7.04 58.03, 2.72 51.25, 1.14 44.56 C-0.44 37.88, 0.15 28.55, 2.6 22.11 C5.05 15.67, 9.98 9.49, 15.86 5.91 C21.73 2.32, 33.67 1.27, 37.87 0.6 C42.06 -0.08, 41.13 1.3, 41.05 1.85 M22.1 1.72 C27.81 -1.08, 36.72 -1.3, 42.86 0.82 C49.01 2.93, 54.89 8.79, 58.98 14.42 C63.08 20.05, 66.76 27.7, 67.44 34.57 C68.12 41.44, 66.73 50.1, 63.06 55.64 C59.39 61.18, 51.71 65.4, 45.41 67.8 C39.11 70.19, 31.67 71.88, 25.24 70.01 C18.82 68.13, 10.85 62.19, 6.87 56.52 C2.89 50.86, 1.55 42.55, 1.38 36.02 C1.21 29.49, 2.5 23.09, 5.85 17.34 C9.19 11.6, 18.87 3.77, 21.47 1.56 C24.07 -0.65, 21.04 3.58, 21.46 4.08" stroke="#000000" stroke-width="1" fill="none"></path></g><g stroke-linecap="round"><g transform="translate(28.274153450777106 188.1514141820535) rotate(333.8252188734021 30.688475184760364 -24.713340863245776)"><path d="M-0.49 0.16 C9.57 -7.98, 49.58 -41.58, 59.53 -49.59 M1.45 -0.8 C11.97 -8.72, 51.85 -40.23, 61.87 -48.37" stroke="#000000" stroke-width="1" fill="none"></path></g></g><mask></mask><g stroke-linecap="round"><g transform="translate(41.56361699331768 190.09875892972013) rotate(333.8252188734021 30.400356390321008 -24.235108007989766)"><path d="M0.16 -0.7 C10.23 -8.96, 49.43 -41.97, 59.62 -50.01 M-1.21 1.54 C9.32 -6.55, 51.62 -40.82, 62.01 -49.02" stroke="#000000" stroke-width="1" fill="none"></path></g></g><mask></mask><g stroke-linecap="round"><g transform="translate(165.99637338699677 128.60947654206575) rotate(236.9808412703799 30.3318716950932 -23.885788430958655)"><path d="M-0.7 -0.61 C9.25 -8.62, 49.04 -39.74, 59.2 -47.9 M1.13 1.68 C11.48 -6.65, 51.64 -41.08, 61.37 -49.45" stroke="#000000" stroke-width="1" fill="none"></path></g></g><mask></mask><g stroke-linecap="round"><g transform="translate(172.04048784662172 118.71011649779575) rotate(236.9808412703799 30.349940986291813 -23.963592219702605)"><path d="M-0.61 -1.03 C9.58 -9.08, 51.27 -40.94, 61.31 -48.97 M1.27 1.04 C11.38 -6.74, 51.39 -39.25, 60.93 -47.42" stroke="#000000" stroke-width="1" fill="none"></path></g></g><mask></mask><g stroke-linecap="round"><g transform="translate(66.25836153725419 109.59462698372045) rotate(333.8252188734021 56.66880104296437 -0.5907844747707713)"><path d="M-1.03 1.08 C18.15 0.81, 95.18 -1.99, 114.37 -2.26 M0.63 0.6 C19.71 0.53, 94.66 -0.55, 113.43 -1.04" stroke="#000000" stroke-width="1" fill="none"></path></g></g><mask></mask><g transform="translate(53.398362087048724 109.45697167343678) rotate(333.8252188734021 55.33181954525395 -30.17379802917003)" stroke="none"><path fill="#000000" d="M -2.46,0 Q -2.46,0 -2.47,-1.37 -2.47,-2.75 -2.51,-5.15 -2.55,-7.55 -2.55,-8.93 -2.55,-10.32 -2.37,-11.85 -2.19,-13.38 -1.78,-14.91 -1.36,-16.45 -0.86,-17.89 -0.37,-19.32 0.49,-21.33 1.35,-23.35 1.70,-24.48 2.04,-25.60 2.32,-26.68 2.60,-27.75 2.84,-28.85 3.09,-29.95 3.52,-31.16 3.95,-32.38 4.65,-34.23 5.36,-36.08 6.25,-37.84 7.14,-39.61 8.05,-41.22 8.97,-42.82 9.69,-43.73 10.42,-44.64 11.14,-45.43 11.87,-46.22 12.75,-47.10 13.64,-47.99 14.66,-48.86 15.68,-49.72 16.69,-50.51 17.69,-51.29 18.96,-52.24 20.24,-53.20 21.76,-54.04 23.29,-54.88 24.44,-55.49 25.59,-56.10 26.81,-56.79 28.04,-57.47 29.29,-58.01 30.54,-58.55 31.51,-59.02 32.48,-59.48 34.13,-60.17 35.78,-60.86 37.51,-61.41 39.24,-61.96 40.37,-62.12 41.50,-62.28 43.12,-62.58 44.74,-62.87 46.23,-62.96 47.73,-63.04 49.03,-63.24 50.33,-63.43 51.43,-63.50 52.54,-63.57 53.63,-63.60 54.72,-63.63 56.13,-63.67 57.54,-63.71 59.01,-63.74 60.49,-63.76 61.56,-63.79 62.64,-63.83 63.79,-63.85 64.95,-63.87 66.72,-63.50 68.50,-63.13 70.66,-62.26 72.81,-61.39 74.42,-60.84 76.02,-60.29 77.29,-59.67 78.55,-59.04 79.86,-58.35 81.16,-57.65 82.89,-56.76 84.61,-55.87 86.13,-54.85 87.64,-53.82 88.67,-53.18 89.69,-52.55 90.72,-51.64 91.76,-50.72 92.59,-49.91 93.42,-49.10 94.33,-48.20 95.24,-47.29 96.05,-46.49 96.86,-45.68 97.57,-44.82 98.28,-43.95 98.98,-42.89 99.68,-41.82 100.37,-40.93 101.06,-40.04 101.96,-38.64 102.87,-37.24 103.50,-36.36 104.14,-35.48 105.00,-33.94 105.86,-32.40 106.61,-30.97 107.37,-29.55 107.99,-28.16 108.61,-26.76 109.06,-25.62 109.50,-24.47 109.91,-23.45 110.32,-22.43 110.91,-20.86 111.49,-19.29 111.94,-17.61 112.40,-15.94 112.47,-14.60 112.55,-13.26 112.71,-12.19 112.87,-11.11 113.05,-10.02 113.24,-8.93 113.47,-7.64 113.70,-6.34 114.03,-4.55 114.35,-2.76 114.32,-2.16 114.30,-1.55 114.08,-0.99 113.86,-0.43 113.47,0.02 113.08,0.48 112.56,0.80 112.05,1.11 111.46,1.25 110.87,1.38 110.27,1.32 109.67,1.25 109.12,1.00 108.57,0.75 108.13,0.34 107.69,-0.06 107.40,-0.59 107.12,-1.12 107.02,-1.72 106.92,-2.32 107.01,-2.91 107.10,-3.51 107.38,-4.04 107.66,-4.58 108.10,-4.99 108.54,-5.41 109.08,-5.67 109.63,-5.93 110.23,-5.99 110.83,-6.06 111.42,-5.94 112.01,-5.81 112.53,-5.50 113.05,-5.19 113.44,-4.74 113.83,-4.28 114.06,-3.72 114.29,-3.16 114.32,-2.56 114.36,-1.95 114.20,-1.37 114.04,-0.79 113.71,-0.29 113.37,0.20 112.89,0.57 112.41,0.94 111.84,1.14 111.27,1.33 110.67,1.34 110.06,1.34 109.49,1.15 108.92,0.96 108.43,0.60 107.95,0.23 107.61,-0.25 107.27,-0.75 107.10,-1.33 106.94,-1.91 106.94,-1.91 106.94,-1.91 106.78,-4.15 106.63,-6.38 106.30,-7.63 105.97,-8.88 105.65,-10.30 105.33,-11.72 105.34,-12.90 105.35,-14.08 105.19,-15.31 105.03,-16.54 104.65,-17.69 104.26,-18.85 103.83,-19.95 103.39,-21.06 103.00,-22.13 102.62,-23.19 102.22,-24.21 101.83,-25.24 101.15,-26.52 100.47,-27.80 99.80,-29.05 99.13,-30.31 98.35,-31.47 97.56,-32.64 96.99,-33.64 96.41,-34.63 95.44,-35.82 94.47,-37.02 93.83,-37.95 93.19,-38.88 92.53,-39.80 91.88,-40.72 91.08,-41.52 90.28,-42.33 89.39,-43.22 88.50,-44.11 87.74,-44.86 86.99,-45.61 86.05,-46.45 85.11,-47.29 83.88,-48.10 82.66,-48.92 81.46,-49.74 80.26,-50.57 78.96,-51.14 77.66,-51.72 76.64,-52.27 75.61,-52.83 74.54,-53.38 73.46,-53.93 71.88,-54.43 70.30,-54.93 69.23,-55.29 68.16,-55.65 66.52,-56.23 64.88,-56.81 63.76,-56.84 62.64,-56.86 61.56,-56.89 60.49,-56.92 59.02,-56.95 57.54,-56.98 56.14,-57.01 54.75,-57.05 53.27,-57.08 51.79,-57.11 50.68,-57.09 49.57,-57.08 47.96,-56.95 46.35,-56.82 45.19,-56.78 44.04,-56.75 42.44,-56.53 40.85,-56.31 39.30,-55.91 37.74,-55.51 36.25,-55.02 34.75,-54.54 32.73,-53.70 30.70,-52.86 29.42,-52.09 28.13,-51.32 27.04,-50.74 25.96,-50.17 24.86,-49.52 23.76,-48.88 22.55,-47.79 21.33,-46.70 20.43,-45.97 19.53,-45.24 18.72,-44.53 17.91,-43.82 16.47,-42.30 15.02,-40.78 14.09,-39.56 13.16,-38.34 12.24,-36.72 11.32,-35.11 10.53,-33.61 9.74,-32.12 9.03,-30.41 8.33,-28.69 8.03,-27.50 7.73,-26.31 7.39,-25.17 7.05,-24.04 6.59,-22.59 6.13,-21.14 5.27,-19.40 4.41,-17.67 3.97,-16.38 3.53,-15.10 3.20,-13.92 2.86,-12.75 2.70,-11.53 2.55,-10.32 2.55,-8.93 2.55,-7.55 2.51,-5.15 2.47,-2.75 2.47,-1.37 2.46,0 2.42,0.29 2.39,0.58 2.28,0.86 2.18,1.14 2.01,1.38 1.84,1.63 1.62,1.82 1.39,2.02 1.13,2.16 0.87,2.30 0.58,2.37 0.29,2.44 -0.00,2.44 -0.29,2.44 -0.58,2.37 -0.87,2.30 -1.13,2.16 -1.39,2.02 -1.62,1.82 -1.84,1.63 -2.01,1.38 -2.18,1.14 -2.28,0.86 -2.39,0.58 -2.42,0.29 -2.46,-0.00 -2.46,-0.00 L -2.46,0 Z"></path></g><g stroke-linecap="round"><g transform="translate(263.05599872555456 84.64174684650607) rotate(333.8252188734021 169.42633423696554 -0.23081397080022725)"><path d="M0.01 -0.6 C56.66 -0.76, 282.42 0.36, 338.84 0.12" stroke="#000000" stroke-width="1.5" fill="none" stroke-dasharray="8 9"></path></g></g><mask></mask><g stroke-linecap="round"><g transform="translate(66.89933949673716 135.1909763269041) rotate(333.8252188734021 289.3091592870878 113.02576550772028)"><path d="M-0.6 -0.22 C54.84 1.01, 237.48 -32.21, 333.73 7.4 C429.97 47.01, 536.32 198.97, 576.88 237.43 M1.28 -1.38 C56.56 0.01, 237.03 -31.27, 333.35 8.65 C429.67 48.57, 538.63 199.75, 579.22 238.15" stroke="#000000" stroke-width="1" fill="none"></path></g></g><mask></mask></svg>