<svg version="1.1" xmlns="http://www.w3.org/2000/svg" viewBox="0 0 227.22055823313235 325.11620564312966" width="454.4411164662647" height="650.2324112862593">
  <!-- svg-source:excalidraw -->
  
  <defs>
    <style class="style-fonts">
      @font-face {
        font-family: "Virgil";
        src: url("https://excalidraw.com/Virgil.woff2");
      }
      @font-face {
        font-family: "Cascadia";
        src: url("https://excalidraw.com/Cascadia.woff2");
      }
    </style>
  </defs>
  <g stroke-linecap="round" transform="translate(187.79515697590432 104.43955885671289) rotate(0 13.953374941938705 26.178875707074667)"><path d="M6.98 0 M6.98 0 C10.41 -0.92, 14.5 0.86, 20.93 0 M6.98 0 C11.78 0.01, 14.97 -0.75, 20.93 0 M20.93 0 C23.79 -1.43, 28.01 0.41, 27.91 6.98 M20.93 0 C25.74 1.01, 28.52 2.72, 27.91 6.98 M27.91 6.98 C26.02 20.74, 28.96 35.4, 27.91 45.38 M27.91 6.98 C28.52 15.21, 27.22 22.86, 27.91 45.38 M27.91 45.38 C29.71 50.53, 25.29 53.65, 20.93 52.36 M27.91 45.38 C29.93 48.24, 23.75 53.01, 20.93 52.36 M20.93 52.36 C16.35 51.26, 13.36 52.03, 6.98 52.36 M20.93 52.36 C17.68 52.07, 14.36 51.77, 6.98 52.36 M6.98 52.36 C2.07 54.31, 1.3 48.06, 0 45.38 M6.98 52.36 C2.91 53.74, 0.26 47.88, 0 45.38 M0 45.38 C2.19 32.53, -1.64 21.53, 0 6.98 M0 45.38 C-1.05 35.32, 0.23 26.07, 0 6.98 M0 6.98 C-0.77 2.81, 1.17 0.82, 6.98 0 M0 6.98 C1.32 4.16, 1.9 0.37, 6.98 0" stroke="#000000" stroke-width="1" fill="none"></path></g><g stroke-linecap="round" transform="translate(10.011226589453145 108.51851049986794) rotate(0 13.953374941938705 26.178875707074667)"><path d="M6.98 0 M6.98 0 C9.64 0.27, 15.06 0.1, 20.93 0 M6.98 0 C11.85 -0.64, 15.89 -0.73, 20.93 0 M20.93 0 C24.15 0.1, 25.99 2.46, 27.91 6.98 M20.93 0 C26.59 0.61, 28.3 4, 27.91 6.98 M27.91 6.98 C27.11 16.65, 27.45 21.83, 27.91 45.38 M27.91 6.98 C28.31 18.79, 27.78 33.1, 27.91 45.38 M27.91 45.38 C28.4 49.74, 26.87 54.12, 20.93 52.36 M27.91 45.38 C26.11 48.2, 26.23 50.76, 20.93 52.36 M20.93 52.36 C14.7 51.09, 10.46 51.03, 6.98 52.36 M20.93 52.36 C15.92 51.72, 10.9 52.22, 6.98 52.36 M6.98 52.36 C4.28 53.66, -1.97 50.54, 0 45.38 M6.98 52.36 C3.7 52.62, -2.15 50.5, 0 45.38 M0 45.38 C-0.5 34.23, 0.81 26.03, 0 6.98 M0 45.38 C-0.36 32.7, 0.42 18.86, 0 6.98 M0 6.98 C0.49 1.17, 3.15 1.15, 6.98 0 M0 6.98 C1.83 1.9, 2.69 1.63, 6.98 0" stroke="#000000" stroke-width="1" fill="none"></path></g><g stroke-linecap="round" transform="translate(10 262.7584542289803) rotate(0 13.953374941938705 26.178875707074667)"><path d="M6.98 0 M6.98 0 C10.88 0.9, 14.36 0.7, 20.93 0 M6.98 0 C11.43 -0.68, 16.32 -0.52, 20.93 0 M20.93 0 C25.68 -1.92, 28.04 3.2, 27.91 6.98 M20.93 0 C26.19 0.39, 29.58 0.39, 27.91 6.98 M27.91 6.98 C28.99 15.83, 25.87 25.67, 27.91 45.38 M27.91 6.98 C27.3 21.63, 29 37.52, 27.91 45.38 M27.91 45.38 C27.62 51.32, 27.34 50.8, 20.93 52.36 M27.91 45.38 C26.07 50.68, 23.99 53.73, 20.93 52.36 M20.93 52.36 C14.53 51.8, 9.2 52.77, 6.98 52.36 M20.93 52.36 C16.17 51.71, 12.49 52.98, 6.98 52.36 M6.98 52.36 C3.63 50.39, 0.51 51.23, 0 45.38 M6.98 52.36 C2.59 50.21, 0.47 48.69, 0 45.38 M0 45.38 C-2.24 35.07, -1.15 24.03, 0 6.98 M0 45.38 C0.73 31.34, -0.04 16.04, 0 6.98 M0 6.98 C-1.16 3.15, 3.47 1.59, 6.98 0 M0 6.98 C-0.42 2.69, 3.95 -1.94, 6.98 0" stroke="#000000" stroke-width="1" fill="none"></path></g><g stroke-linecap="round" transform="translate(189.31380834925494 261.82103400961) rotate(0 13.953374941938705 26.178875707074667)"><path d="M6.98 0 M6.98 0 C11.76 0.05, 15.54 0.77, 20.93 0 M6.98 0 C11.57 -0.52, 16.99 0.14, 20.93 0 M20.93 0 C23.66 0.14, 28.79 2.85, 27.91 6.98 M20.93 0 C25.97 1.67, 25.98 0.85, 27.91 6.98 M27.91 6.98 C27.59 13.75, 28.37 25.89, 27.91 45.38 M27.91 6.98 C27.43 21.33, 28.17 33.74, 27.91 45.38 M27.91 45.38 C29.2 51.79, 24.02 50.76, 20.93 52.36 M27.91 45.38 C28.56 48.44, 26.95 54.14, 20.93 52.36 M20.93 52.36 C17.67 51.05, 15.82 52.24, 6.98 52.36 M20.93 52.36 C16.67 52.15, 14.27 52.7, 6.98 52.36 M6.98 52.36 C0.36 52.86, 1.2 50.26, 0 45.38 M6.98 52.36 C0.18 52.83, -1.34 49.77, 0 45.38 M0 45.38 C0.87 29.31, 0.91 16.49, 0 6.98 M0 45.38 C0.76 36.93, 0.26 28.67, 0 6.98 M0 6.98 C0.82 3.47, 3.92 -0.37, 6.98 0 M0 6.98 C0.37 3.95, 0.39 -1.22, 6.98 0" stroke="#000000" stroke-width="1" fill="none"></path></g><g stroke-linecap="round" transform="translate(68.26098131854451 164.8381848671122) rotate(0 43.993091772066805 45.6644928019216)"><path d="M53.56 0.31 C60.79 1.08, 68.76 6.58, 74.21 12.55 C79.67 18.51, 84.62 27.9, 86.28 36.1 C87.95 44.31, 86.82 54.04, 84.22 61.78 C81.63 69.52, 76.89 77.51, 70.72 82.54 C64.55 87.57, 55.33 91.53, 47.21 91.95 C39.09 92.37, 29.1 89.18, 21.99 85.06 C14.88 80.93, 8.08 74.33, 4.55 67.19 C1.02 60.05, 0.24 50.32, 0.81 42.21 C1.38 34.09, 3.15 24.98, 7.96 18.51 C12.77 12.03, 21.05 6.08, 29.65 3.35 C38.25 0.62, 53.79 1.47, 59.59 2.15 C65.38 2.83, 64.63 6.61, 64.41 7.43 M56.75 2.78 C63.69 5, 71.89 11.85, 77.25 17.95 C82.61 24.05, 88.11 31.55, 88.9 39.38 C89.7 47.21, 85.84 57.57, 82.01 64.95 C78.17 72.33, 72.43 79.29, 65.92 83.68 C59.41 88.07, 50.87 91.48, 42.94 91.29 C35 91.09, 25.11 87.43, 18.3 82.52 C11.49 77.61, 5.03 69.08, 2.07 61.82 C-0.9 54.56, -1.28 47.09, 0.52 38.96 C2.31 30.83, 7.31 19.13, 12.81 13.02 C18.32 6.91, 26 4.31, 33.55 2.3 C41.1 0.29, 54.04 0.95, 58.11 0.96 C62.18 0.96, 58.26 1.15, 57.97 2.35" stroke="#000000" stroke-width="1" fill="none"></path></g><g stroke-linecap="round"><g transform="translate(139.63980716394053 174.41705969353893) rotate(0 24.249328279645965 -25.493523690206473)"><path d="M0.07 0.52 C8.34 -7.91, 41.65 -41.16, 49.86 -49.87 M-1.36 -0.25 C6.8 -9.07, 40.94 -43.07, 49.27 -51.51" stroke="#000000" stroke-width="1" fill="none"></path></g></g><mask></mask><g stroke-linecap="round"><g transform="translate(148.48584935380313 180.0982242565467) rotate(0 19.706070344459135 -18.333483723874338)"><path d="M0.52 0.69 C7.08 -5.55, 33.79 -30.8, 40.08 -37.35 M-0.67 0 C5.76 -6.02, 32.73 -29.42, 39.62 -35.74" stroke="#000000" stroke-width="1" fill="none"></path></g></g><mask></mask><g stroke-linecap="round"><g transform="translate(77.36914736216295 237.26299715489017) rotate(0 -19.890458482155054 21.43936539626037)"><path d="M0.69 0.92 C-5.92 7.75, -32.67 34.73, -39.6 41.46 M-0.41 0.36 C-7.17 7.26, -34.1 35.57, -40.47 42.52" stroke="#000000" stroke-width="1" fill="none"></path></g></g><mask></mask><g stroke-linecap="round"><g transform="translate(85.19816260743937 244.1107914719439) rotate(0 -23.382427948636632 23.764078217492056)"><path d="M0.92 0.15 C-7.11 7.93, -39.56 39.49, -47.69 47.41 M-0.05 -0.82 C-7.76 7.01, -37.88 40.12, -45.45 48.35" stroke="#000000" stroke-width="1" fill="none"></path></g></g><mask></mask><g stroke-linecap="round"><g transform="translate(75.99814265010991 183.25876433747612) rotate(0 -19.0711646929077 -18.599315715382886)"><path d="M0.15 -0.91 C-6.35 -7.47, -31.93 -32.36, -38.29 -38.42 M-1.24 1.23 C-7.44 -5.3, -30.46 -31.26, -36.18 -37.45" stroke="#000000" stroke-width="1" fill="none"></path></g></g><mask></mask><g stroke-linecap="round"><g transform="translate(81.8261033752151 175.95680344707466) rotate(0 -22.059072451464203 -22.102104253432003)"><path d="M-0.91 -1.15 C-8.55 -8.68, -37.78 -37.7, -44.93 -45.07 M0.81 0.87 C-6.55 -6.55, -35.23 -36.4, -42.78 -43.98" stroke="#000000" stroke-width="1" fill="none"></path></g></g><mask></mask><g stroke-linecap="round"><g transform="translate(140.44625050635204 245.25564844644373) rotate(0 24.45743675699464 24.626524935268492)"><path d="M-1.15 -1.08 C6.8 7.2, 39.69 40.45, 47.8 48.76 M0.45 0.97 C8.76 9.54, 41.84 42.13, 50.06 50.33" stroke="#000000" stroke-width="1" fill="none"></path></g></g><mask></mask><g stroke-linecap="round"><g transform="translate(146.12027087607112 238.7338504731431) rotate(0 20.73677498011898 19.726138698540012)"><path d="M-1.08 -0.86 C6.17 5.89, 35.28 32.39, 42.55 39.38 M0.56 1.3 C7.73 8.26, 34.75 34.03, 41.63 40.31" stroke="#000000" stroke-width="1" fill="none"></path></g></g><mask></mask><g stroke-linecap="round" transform="translate(74.59209737097558 10) rotate(0 36.018981363095236 35.25931547673969)"><path d="M19.67 4.14 C25.51 0.48, 35.27 -1.32, 42.09 -0.45 C48.92 0.42, 55.78 4.24, 60.64 9.34 C65.51 14.44, 70.02 23.35, 71.27 30.15 C72.52 36.95, 71.2 43.92, 68.14 50.14 C65.08 56.37, 59.07 64.15, 52.91 67.49 C46.75 70.83, 38.33 71.44, 31.17 70.17 C24.02 68.91, 14.92 64.71, 9.96 59.9 C4.99 55.09, 2.44 47.93, 1.39 41.3 C0.34 34.68, -0.02 26.74, 3.65 20.15 C7.32 13.57, 19.81 4.75, 23.4 1.79 C26.98 -1.16, 25.19 1.65, 25.15 2.42 M48.43 2.15 C54.85 4.51, 61.44 11.41, 65.36 17.27 C69.27 23.13, 72.34 30.72, 71.93 37.31 C71.52 43.89, 67.67 51.44, 62.9 56.78 C58.13 62.11, 49.84 67.29, 43.33 69.31 C36.82 71.33, 30.42 71.39, 23.86 68.88 C17.29 66.36, 7.73 60.21, 3.92 54.2 C0.11 48.19, 0.46 39.73, 1 32.83 C1.53 25.92, 2.86 18.12, 7.12 12.79 C11.38 7.46, 19.24 2.6, 26.57 0.84 C33.91 -0.92, 47.55 1.71, 51.12 2.21 C54.69 2.71, 48.55 3.13, 47.98 3.85" stroke="#000000" stroke-width="1" fill="none"></path></g></svg>