<svg version="1.1" xmlns="http://www.w3.org/2000/svg" viewBox="0 0 339.32715426809955 331.6962628117021" width="678.6543085361991" height="663.3925256234043">
  <!-- svg-source:excalidraw -->
  
  <defs>
    <style class="style-fonts">
      @font-face {
        font-family: "Virgil";
        src: url("https://excalidraw.com/Virgil.woff2");
      }
      @font-face {
        font-family: "Cascadia";
        src: url("https://excalidraw.com/Cascadia.woff2");
      }
    </style>
  </defs>
  <g stroke-linecap="round" transform="translate(299.9017530108715 111.01961602528536) rotate(0 13.953374941938705 26.178875707074667)"><path d="M6.98 0 M6.98 0 C10.4 0.23, 13.22 -0.47, 20.93 0 M6.98 0 C9.68 0.32, 13.47 -0.5, 20.93 0 M20.93 0 C24.74 -0.09, 27.18 1.26, 27.91 6.98 M20.93 0 C26.65 0.4, 27.05 4.6, 27.91 6.98 M27.91 6.98 C29.67 16.18, 27.89 23.09, 27.91 45.38 M27.91 6.98 C27.37 17.53, 27.04 26.46, 27.91 45.38 M27.91 45.38 C28.94 50.87, 26.42 52.44, 20.93 52.36 M27.91 45.38 C26.66 52.16, 25.08 53.83, 20.93 52.36 M20.93 52.36 C18.04 53.74, 13.91 52.18, 6.98 52.36 M20.93 52.36 C16.46 52.84, 10.97 52.39, 6.98 52.36 M6.98 52.36 C0.43 50.7, 0.75 50.95, 0 45.38 M6.98 52.36 C0.24 52.95, -2.21 48.14, 0 45.38 M0 45.38 C0.38 33.46, -1.89 21.35, 0 6.98 M0 45.38 C0 30.08, -0.66 16.12, 0 6.98 M0 6.98 C-0.83 4.27, 2.28 -0.5, 6.98 0 M0 6.98 C2.24 4.44, 2.72 -1, 6.98 0" stroke="#000000" stroke-width="1" fill="none"></path></g><g stroke-linecap="round" transform="translate(122.11782262442057 115.09856766844041) rotate(0 13.953374941938705 26.178875707074667)"><path d="M6.98 0 M6.98 0 C10.39 0.59, 12.74 -1.09, 20.93 0 M6.98 0 C10.63 0.27, 13.07 -0.2, 20.93 0 M20.93 0 C25.5 -0.73, 26.84 3.25, 27.91 6.98 M20.93 0 C25.98 -0.85, 30.18 0.21, 27.91 6.98 M27.91 6.98 C29.49 18.98, 28.41 30.37, 27.91 45.38 M27.91 6.98 C28.37 15.11, 27.25 24.94, 27.91 45.38 M27.91 45.38 C28.74 50.87, 25.66 51.27, 20.93 52.36 M27.91 45.38 C30.04 49.53, 27.05 50.53, 20.93 52.36 M20.93 52.36 C19.13 51.51, 14.39 53.31, 6.98 52.36 M20.93 52.36 C17.68 52.77, 13.62 51.83, 6.98 52.36 M6.98 52.36 C0.67 53.1, 0.92 48.21, 0 45.38 M6.98 52.36 C2.92 50.15, -1.89 50.02, 0 45.38 M0 45.38 C-0.23 29.91, -0.83 19.34, 0 6.98 M0 45.38 C-0.81 31.16, -0.22 17.4, 0 6.98 M0 6.98 C1.94 2.28, 1.82 1.94, 6.98 0 M0 6.98 C2.12 2.72, 1.32 0.92, 6.98 0" stroke="#000000" stroke-width="1" fill="none"></path></g><g stroke-linecap="round" transform="translate(122.10659603496697 269.3385113975528) rotate(0 13.953374941938705 26.178875707074667)"><path d="M6.98 0 M6.98 0 C13 -0.39, 16.69 -0.97, 20.93 0 M6.98 0 C12.16 -0.5, 16.68 -0.11, 20.93 0 M20.93 0 C24.85 -1.07, 28.83 2.67, 27.91 6.98 M20.93 0 C24.73 2.28, 25.8 2.66, 27.91 6.98 M27.91 6.98 C28.16 22.44, 27.47 36.19, 27.91 45.38 M27.91 6.98 C27.22 17.49, 28.32 29.66, 27.91 45.38 M27.91 45.38 C28.75 50.11, 24.5 54.21, 20.93 52.36 M27.91 45.38 C27.41 51.5, 23.76 50.69, 20.93 52.36 M20.93 52.36 C15.81 52.31, 13.35 51.92, 6.98 52.36 M20.93 52.36 C15.87 52.35, 9.58 51.85, 6.98 52.36 M6.98 52.36 C3.07 53.28, -1.82 50.55, 0 45.38 M6.98 52.36 C0.12 50.47, -0.01 51.4, 0 45.38 M0 45.38 C-1.78 34.7, 1.46 27.23, 0 6.98 M0 45.38 C-0.53 33.16, -0.51 22.24, 0 6.98 M0 6.98 C-0.04 1.82, 4.27 1.84, 6.98 0 M0 6.98 C0.39 1.32, 3.25 1.69, 6.98 0" stroke="#000000" stroke-width="1" fill="none"></path></g><g stroke-linecap="round" transform="translate(301.42040438422214 268.40109117818247) rotate(0 13.953374941938705 26.178875707074667)"><path d="M6.98 0 M6.98 0 C11.44 -1.1, 15.68 0.75, 20.93 0 M6.98 0 C9.83 -0.33, 13.49 -0.29, 20.93 0 M20.93 0 C24.52 0.93, 28.26 1.58, 27.91 6.98 M20.93 0 C27.86 -2.11, 28.24 4.61, 27.91 6.98 M27.91 6.98 C28.26 21.01, 26.68 36.38, 27.91 45.38 M27.91 6.98 C27.49 18.02, 28.52 28.44, 27.91 45.38 M27.91 45.38 C27.98 48.95, 27.43 51.92, 20.93 52.36 M27.91 45.38 C29.37 48.21, 23.92 52.48, 20.93 52.36 M20.93 52.36 C16.36 53.2, 11.6 53.43, 6.98 52.36 M20.93 52.36 C15.36 51.75, 9.37 52.67, 6.98 52.36 M6.98 52.36 C3.25 50.54, 0.51 48.11, 0 45.38 M6.98 52.36 C0.43 52.35, 1.37 48.92, 0 45.38 M0 45.38 C-0.94 34.27, 1.26 20.28, 0 6.98 M0 45.38 C0.12 32.56, 1.26 20.55, 0 6.98 M0 6.98 C-0.5 4.27, 4.17 0.34, 6.98 0 M0 6.98 C-1 3.25, 4.01 1.29, 6.98 0" stroke="#000000" stroke-width="1" fill="none"></path></g><g stroke-linecap="round" transform="translate(180.3675773535117 171.41824203568467) rotate(0 43.993091772066805 45.6644928019216)"><path d="M30.18 2.77 C36.89 -0.35, 46.17 -0.97, 53.77 0.87 C61.37 2.7, 70.31 7.69, 75.79 13.79 C81.27 19.89, 85.12 29.41, 86.66 37.49 C88.19 45.57, 87.7 54.86, 85.01 62.27 C82.32 69.68, 76.96 76.94, 70.5 81.94 C64.04 86.94, 54.17 91.63, 46.23 92.27 C38.29 92.92, 29.75 90.08, 22.85 85.81 C15.95 81.54, 8.69 74.19, 4.85 66.65 C1.02 59.11, -0.93 48.84, -0.18 40.59 C0.56 32.35, 3.93 23.73, 9.31 17.18 C14.7 10.62, 28.13 3.67, 32.13 1.25 C36.12 -1.16, 33.07 1.78, 33.26 2.68 M44.52 0.97 C52 0.07, 60.65 2.19, 67.3 6.65 C73.96 11.11, 80.84 20.14, 84.44 27.71 C88.03 35.29, 90.21 43.86, 88.88 52.11 C87.56 60.37, 82.13 70.76, 76.47 77.23 C70.81 83.71, 62.33 88.84, 54.95 90.96 C47.57 93.09, 39.54 92.71, 32.18 90 C24.82 87.29, 16.34 81.37, 10.79 74.71 C5.25 68.05, -0.1 58.06, -1.09 50.04 C-2.07 42.02, 1.46 33.73, 4.9 26.58 C8.34 19.43, 13.15 11.8, 19.57 7.16 C25.99 2.53, 39.2 -0.33, 43.41 -1.23 C47.62 -2.12, 44.72 0.77, 44.83 1.81" stroke="#000000" stroke-width="1" fill="none"></path></g><g stroke-linecap="round"><g transform="translate(251.74640319890773 180.9971168621114) rotate(0 24.493069290753283 -25.091341222477695)"><path d="M-0.89 -0.8 C7.33 -9.34, 41.41 -43.3, 49.87 -51.58 M0.85 1.39 C8.92 -6.99, 41.19 -42.06, 49.29 -50.45" stroke="#000000" stroke-width="1" fill="none"></path></g></g><mask></mask><g stroke-linecap="round"><g transform="translate(260.59244538877033 186.67828142511917) rotate(0 19.934576630454444 -18.939371776103144)"><path d="M-0.8 0.7 C5.65 -5.29, 31.66 -30.33, 38.37 -36.81 M0.98 0.02 C7.84 -6.24, 34.35 -32.36, 40.67 -38.58" stroke="#000000" stroke-width="1" fill="none"></path></g></g><mask></mask><g stroke-linecap="round"><g transform="translate(189.47574339713015 243.84305432346264) rotate(0 -19.473490330079017 20.948188133130998)"><path d="M0.7 -0.79 C-5.66 6.46, -32.2 35.57, -39.06 42.68 M-0.39 1.41 C-6.77 8.35, -33.39 33.81, -39.65 40.73" stroke="#000000" stroke-width="1" fill="none"></path></g></g><mask></mask><g stroke-linecap="round"><g transform="translate(197.30475864240657 250.69084864051638) rotate(0 -23.121925571297993 24.5007924056506)"><path d="M-0.79 0.68 C-8.4 8.54, -38.71 39.87, -46.46 47.84 M1 0 C-6.67 7.94, -39.03 40.7, -47.24 49" stroke="#000000" stroke-width="1" fill="none"></path></g></g><mask></mask><g stroke-linecap="round"><g transform="translate(188.10473868507756 189.8388215060486) rotate(0 -18.588073421984063 -18.768786138479527)"><path d="M0.68 0.32 C-5.74 -5.86, -31.55 -31.5, -37.86 -37.85 M-0.42 -0.56 C-6.51 -6.51, -29.26 -30.56, -35.52 -36.58" stroke="#000000" stroke-width="1" fill="none"></path></g></g><mask></mask><g stroke-linecap="round"><g transform="translate(193.9326994101823 182.53686061564713) rotate(0 -22.62807356598171 -21.37122739564461)"><path d="M0.32 -0.72 C-6.95 -8.21, -36.92 -36.91, -44.36 -44.26 M-0.98 1.52 C-8.37 -5.83, -38.19 -35.19, -45.57 -42.75" stroke="#000000" stroke-width="1" fill="none"></path></g></g><mask></mask><g stroke-linecap="round"><g transform="translate(252.5528465413197 251.8357056150162) rotate(0 23.945500847240965 23.877266498195695)"><path d="M-0.72 -0.5 C7.27 7.49, 40.49 39.97, 48.61 48.26 M1.11 -1.81 C8.87 6.32, 40 41.4, 47.63 49.57" stroke="#000000" stroke-width="1" fill="none"></path></g></g><mask></mask><g stroke-linecap="round"><g transform="translate(258.22686691103877 245.31390764171556) rotate(0 20.77345662026721 19.98334351374524)"><path d="M-0.5 -0.05 C6.45 6.72, 34.79 33.09, 42.05 39.89 M1.43 -1.12 C8.16 5.85, 34.02 33.88, 40.87 41.09" stroke="#000000" stroke-width="1" fill="none"></path></g></g><mask></mask><g stroke-linecap="round" transform="translate(10 10) rotate(0 28.092669009221254 29.388404541983164)"><path d="M14.05 0 M14.05 0 C20.42 1.83, 28.43 0.99, 42.14 0 M14.05 0 C24.54 -0.72, 34.87 0.24, 42.14 0 M42.14 0 C49.82 1.87, 55.62 3.85, 56.19 14.05 M42.14 0 C52.93 -1.14, 56.95 4.26, 56.19 14.05 M56.19 14.05 C56.59 25.94, 54.41 36.97, 56.19 44.73 M56.19 14.05 C56.6 24.84, 56.39 36.57, 56.19 44.73 M56.19 44.73 C54.84 53.55, 52.41 58.39, 42.14 58.78 M56.19 44.73 C55.15 54.37, 51.1 56.62, 42.14 58.78 M42.14 58.78 C32.68 58.75, 22.8 59.45, 14.05 58.78 M42.14 58.78 C33.24 58.5, 24.32 58.21, 14.05 58.78 M14.05 58.78 C4.72 59.02, 1.16 53.38, 0 44.73 M14.05 58.78 C4.55 58.39, -1.23 52.83, 0 44.73 M0 44.73 C0.05 35.15, 1.62 28.15, 0 14.05 M0 44.73 C-0.34 36.27, 0.49 30.55, 0 14.05 M0 14.05 C-1.73 3.49, 3.89 -0.66, 14.05 0 M0 14.05 C-1.41 3.61, 5.57 0.49, 14.05 0" stroke="#000000" stroke-width="1" fill="none"></path></g><g stroke-linecap="round"><g transform="translate(66.766399072583 29.900660704947313) rotate(0 116.89655780564169 0.43027020868089494)"><path d="M-0.64 -0.66 C38.44 -0.74, 195.11 -0.8, 234.44 -0.68 M1.22 1.61 C40.1 1.67, 194.28 0.44, 233.2 0.4" stroke="#000000" stroke-width="1" fill="none"></path></g></g><mask></mask><g stroke-linecap="round"><g transform="translate(67.59389947475916 47.16102902734929) rotate(0 117.27433002288558 1.2290269598229315)"><path d="M-0.68 1.16 C38.42 1.17, 196.13 0.47, 235.23 0.38 M1.16 0.73 C40.08 0.92, 195.23 2.38, 234.41 2.02" stroke="#000000" stroke-width="1" fill="none"></path></g></g><mask></mask><g stroke-linecap="round"><g transform="translate(300.67545213404424 46.980640809694705) rotate(0 0.3149749765775596 -9.515729913902987)"><path d="M0.83 0.79 C0.87 -2.67, 0.72 -16.65, 0.66 -19.83 M-0.2 0.16 C-0.26 -3.22, 0.18 -15.14, 0.23 -18.49" stroke="#000000" stroke-width="1" fill="none"></path></g></g><mask></mask></svg>