<svg version="1.1" xmlns="http://www.w3.org/2000/svg" viewBox="0 0 227.22055823313235 300.0306041340134" width="454.4411164662647" height="600.0612082680268">
  <!-- svg-source:excalidraw -->
  
  <defs>
    <style class="style-fonts">
      @font-face {
        font-family: "Virgil";
        src: url("https://excalidraw.com/Virgil.woff2");
      }
      @font-face {
        font-family: "Cascadia";
        src: url("https://excalidraw.com/Cascadia.woff2");
      }
    </style>
  </defs>
  <g stroke-linecap="round" transform="translate(187.79515697590432 79.35395734759663) rotate(0 13.953374941938705 26.178875707074667)"><path d="M6.98 0 M6.98 0 C9.26 0.87, 14.27 0.81, 20.93 0 M6.98 0 C9.7 0.07, 12.94 -0.11, 20.93 0 M20.93 0 C26.25 -0.27, 27.28 3.86, 27.91 6.98 M20.93 0 C25.18 2.3, 28.52 4.17, 27.91 6.98 M27.91 6.98 C27.68 20.29, 30.03 36.46, 27.91 45.38 M27.91 6.98 C27.55 18.92, 27.28 29.74, 27.91 45.38 M27.91 45.38 C28.04 51.28, 25.29 52.63, 20.93 52.36 M27.91 45.38 C29.51 50.59, 25.57 51.26, 20.93 52.36 M20.93 52.36 C16.6 53.42, 9.5 53.15, 6.98 52.36 M20.93 52.36 C17.82 52.07, 15.16 51.7, 6.98 52.36 M6.98 52.36 C3.9 51.24, -0.73 48.24, 0 45.38 M6.98 52.36 C2.64 53.18, 1.57 51.25, 0 45.38 M0 45.38 C-0.8 37.24, 0.09 27.35, 0 6.98 M0 45.38 C0.01 31.17, 0.21 16.77, 0 6.98 M0 6.98 C0.99 1.94, 2.17 -0.78, 6.98 0 M0 6.98 C2.24 0.51, 0.32 0.21, 6.98 0" stroke="#000000" stroke-width="1" fill="none"></path></g><g stroke-linecap="round" transform="translate(10.0112265894536 83.43290899075168) rotate(0 13.953374941938705 26.178875707074667)"><path d="M6.98 0 M6.98 0 C11 1.07, 14.12 -1.03, 20.93 0 M6.98 0 C11.18 -0.11, 15.19 0.3, 20.93 0 M20.93 0 C25.31 -0.63, 29.45 1.98, 27.91 6.98 M20.93 0 C27.88 0.62, 29.75 4.25, 27.91 6.98 M27.91 6.98 C26.31 23.45, 27.75 36.48, 27.91 45.38 M27.91 6.98 C28 15.14, 26.97 24.02, 27.91 45.38 M27.91 45.38 C29.15 49.74, 25.86 53.75, 20.93 52.36 M27.91 45.38 C28.46 50.02, 24.48 54.09, 20.93 52.36 M20.93 52.36 C17.51 51.5, 12.81 51.23, 6.98 52.36 M20.93 52.36 C17.03 52.49, 12.93 52.88, 6.98 52.36 M6.98 52.36 C1.2 51.63, -1.8 50.3, 0 45.38 M6.98 52.36 C3.14 53.92, 1.22 49, 0 45.38 M0 45.38 C1.37 31.24, 1.28 17.69, 0 6.98 M0 45.38 C-0.14 31.17, -0.38 16.39, 0 6.98 M0 6.98 C-0.39 2.17, 1.54 1.94, 6.98 0 M0 6.98 C-1.82 0.32, 2.53 -2.24, 6.98 0" stroke="#000000" stroke-width="1" fill="none"></path></g><g stroke-linecap="round" transform="translate(10 237.67285271986407) rotate(0 13.953374941938705 26.178875707074667)"><path d="M6.98 0 M6.98 0 C11.88 0.7, 13.7 -0.08, 20.93 0 M6.98 0 C10.4 -0.17, 14.41 -0.1, 20.93 0 M20.93 0 C24.95 1.54, 27.56 4.32, 27.91 6.98 M20.93 0 C26.2 1.84, 29.83 4.21, 27.91 6.98 M27.91 6.98 C29.61 16.66, 27.97 24.7, 27.91 45.38 M27.91 6.98 C27.56 17.6, 27.95 30.73, 27.91 45.38 M27.91 45.38 C27.62 50.31, 26.98 52.84, 20.93 52.36 M27.91 45.38 C27.9 48.93, 27.32 52.76, 20.93 52.36 M20.93 52.36 C15.21 53.19, 10.17 51.99, 6.98 52.36 M20.93 52.36 C17.96 51.77, 15.21 51.93, 6.98 52.36 M6.98 52.36 C1.6 50.56, 0.27 50.74, 0 45.38 M6.98 52.36 C3.89 53.58, -1.03 51.84, 0 45.38 M0 45.38 C0.49 32.56, 1.47 18.29, 0 6.98 M0 45.38 C0.4 32.67, 0.37 20.35, 0 6.98 M0 6.98 C-0.16 1.54, 4.27 -1.58, 6.98 0 M0 6.98 C-2.01 2.53, 0.09 1.78, 6.98 0" stroke="#000000" stroke-width="1" fill="none"></path></g><g stroke-linecap="round" transform="translate(189.31380834925494 236.73543250049374) rotate(0 13.953374941938705 26.178875707074667)"><path d="M6.98 0 M6.98 0 C11.07 -1.21, 13.6 -0.68, 20.93 0 M6.98 0 C10.31 0.27, 13.87 -0.18, 20.93 0 M20.93 0 C27.12 -0.35, 29.9 2.86, 27.91 6.98 M20.93 0 C27.43 1.92, 29.79 1.21, 27.91 6.98 M27.91 6.98 C27.66 17.62, 26.05 27.95, 27.91 45.38 M27.91 6.98 C27 18.36, 28.56 29.47, 27.91 45.38 M27.91 45.38 C28.18 51.43, 26.07 52.35, 20.93 52.36 M27.91 45.38 C26.81 51.77, 25.98 53.32, 20.93 52.36 M20.93 52.36 C16.57 51.04, 10.28 51.21, 6.98 52.36 M20.93 52.36 C16.47 52.94, 12.73 52.14, 6.98 52.36 M6.98 52.36 C0.53 52.63, 0.71 51.39, 0 45.38 M6.98 52.36 C3.55 51.33, 1.8 51.75, 0 45.38 M0 45.38 C1.25 36.2, 1.36 24.73, 0 6.98 M0 45.38 C-0.27 33.09, -0.17 19.73, 0 6.98 M0 6.98 C-0.78 4.27, 0.75 -1.75, 6.98 0 M0 6.98 C0.21 0.09, 4.11 -1.56, 6.98 0" stroke="#000000" stroke-width="1" fill="none"></path></g><g stroke-linecap="round" transform="translate(68.26098131854451 139.75258335799595) rotate(0 43.993091772066805 45.6644928019216)"><path d="M44.09 -0.26 C51.66 -0.74, 60.98 3.18, 67.61 7.63 C74.25 12.09, 80.46 19.06, 83.91 26.46 C87.36 33.87, 89.25 43.84, 88.29 52.08 C87.34 60.32, 83.38 69.53, 78.18 75.91 C72.98 82.28, 64.75 88.16, 57.1 90.34 C49.46 92.52, 40.11 91.56, 32.33 88.97 C24.55 86.37, 15.58 80.94, 10.41 74.79 C5.25 68.64, 2.39 60.25, 1.34 52.09 C0.29 43.92, 0.94 33.31, 4.1 25.82 C7.26 18.33, 13.25 11.49, 20.29 7.15 C27.34 2.8, 41.86 0.73, 46.4 -0.26 C50.93 -1.25, 47.44 0.43, 47.49 1.22 M47.03 -0.61 C54.6 -0.72, 64.95 4.11, 71.41 9.31 C77.88 14.51, 83.03 23.1, 85.81 30.59 C88.59 38.08, 89.73 46.59, 88.08 54.25 C86.44 61.92, 81.81 70.76, 75.96 76.58 C70.1 82.39, 60.86 87.22, 52.94 89.13 C45.01 91.05, 35.69 90.96, 28.4 88.09 C21.11 85.22, 13.69 78.56, 9.18 71.91 C4.66 65.26, 2.03 56.41, 1.3 48.18 C0.57 39.95, 1.17 29.52, 4.79 22.52 C8.41 15.52, 15.82 9.77, 23.03 6.17 C30.24 2.56, 44.18 1.57, 48.06 0.91 C51.94 0.24, 46.34 1.63, 46.3 2.2" stroke="#000000" stroke-width="1" fill="none"></path></g><g stroke-linecap="round"><g transform="translate(139.63980716394053 149.33145818442267) rotate(0 23.854708766575754 -25.689501338935997)"><path d="M-0.96 0 C7.01 -8.67, 40.31 -42.87, 48.67 -51.38 M0.74 -1.04 C8.43 -9.62, 39.51 -42.01, 47.46 -50.16" stroke="#000000" stroke-width="1" fill="none"></path></g></g><mask></mask><g stroke-linecap="round"><g transform="translate(148.48584935380313 155.01262274743044) rotate(0 19.75629135410486 -18.99498352217222)"><path d="M0 -0.5 C6.32 -6.59, 32.09 -31.27, 38.56 -37.49 M-1.45 -1.81 C5.2 -7.61, 34.4 -30.14, 40.96 -35.94" stroke="#000000" stroke-width="1" fill="none"></path></g></g><mask></mask><g stroke-linecap="round"><g transform="translate(77.36914736216295 212.1773956457739) rotate(0 -19.61883239525872 21.421317987863972)"><path d="M-0.5 -0.59 C-6.96 6.42, -33.14 34.83, -39.73 42.06 M1.43 1.71 C-5.1 8.9, -33.61 36.95, -40.67 43.44" stroke="#000000" stroke-width="1" fill="none"></path></g></g><mask></mask><g stroke-linecap="round"><g transform="translate(85.19816260743937 219.02518996282765) rotate(0 -23.449366352295158 24.31685288612607)"><path d="M-0.59 0.01 C-8.44 8.14, -39.45 40.21, -47.09 48.27 M1.3 -1.03 C-6.74 7.33, -40.16 41.22, -48.19 49.66" stroke="#000000" stroke-width="1" fill="none"></path></g></g><mask></mask><g stroke-linecap="round"><g transform="translate(75.99814265011037 158.17316282835986) rotate(0 -19.25802918245745 -19.583299949268962)"><path d="M0.01 -0.31 C-6.14 -6.37, -31.21 -30.71, -37.43 -36.95 M-1.44 -1.52 C-7.73 -7.89, -32.41 -33.01, -38.53 -38.86" stroke="#000000" stroke-width="1" fill="none"></path></g></g><mask></mask><g stroke-linecap="round"><g transform="translate(81.8261033752151 150.8712019379584) rotate(0 -21.229461520093764 -22.330658559965173)"><path d="M-0.31 -0.29 C-7.45 -7.68, -36.13 -37.21, -43.45 -44.37 M1.73 -1.48 C-5.48 -8.69, -36.37 -35.65, -44.19 -42.92" stroke="#000000" stroke-width="1" fill="none"></path></g></g><mask></mask><g stroke-linecap="round"><g transform="translate(140.4462505063525 220.17004693732747) rotate(0 24.10496060504579 24.612269221531847)"><path d="M-0.29 0.4 C7.79 8.51, 40.19 40.3, 48.5 48.32 M1.76 -0.43 C9.67 7.87, 39.54 41.3, 47.46 49.66" stroke="#000000" stroke-width="1" fill="none"></path></g></g><mask></mask><g stroke-linecap="round"><g transform="translate(146.12027087607157 213.64824896402683) rotate(0 20.6313491431722 20.078805580667677)"><path d="M0.4 -0.16 C7.47 6.79, 35.13 34.47, 42.11 41.45 M-0.85 -1.29 C6.06 5.36, 33.92 32.93, 40.96 39.81" stroke="#000000" stroke-width="1" fill="none"></path></g></g><mask></mask><g stroke-linecap="round" transform="translate(71.594427887042 10) rotate(0 40.371411024341455 22.777814452095186)"><path d="M11.39 0 M11.39 0 C26.76 1.62, 43.05 2.07, 69.35 0 M11.39 0 C31.15 -0.97, 49.01 -1.19, 69.35 0 M69.35 0 C78.76 0.03, 80.92 2.22, 80.74 11.39 M69.35 0 C76.97 -0.12, 80.95 3.05, 80.74 11.39 M80.74 11.39 C80.47 16.35, 82.15 21.24, 80.74 34.17 M80.74 11.39 C80.81 18.63, 81.28 25.76, 80.74 34.17 M80.74 34.17 C79.38 42.81, 75.2 44.89, 69.35 45.56 M80.74 34.17 C79.01 41.29, 76.35 46.09, 69.35 45.56 M69.35 45.56 C55.86 43.43, 44.08 45.94, 11.39 45.56 M69.35 45.56 C48.8 46.04, 26.43 46.13, 11.39 45.56 M11.39 45.56 C4.19 47.12, 1.38 43.44, 0 34.17 M11.39 45.56 C4.33 46.31, -0.12 42.97, 0 34.17 M0 34.17 C-0.27 27.21, 1.83 20.24, 0 11.39 M0 34.17 C0.75 28.65, -0.54 24.99, 0 11.39 M0 11.39 C-0.42 3.34, 2.37 1.68, 11.39 0 M0 11.39 C-1.78 5.66, 1.91 0.05, 11.39 0" stroke="#000000" stroke-width="1" fill="none"></path></g></svg>