<svg version="1.1" xmlns="http://www.w3.org/2000/svg" viewBox="0 0 264.20715253723415 305.4628275808809" width="528.4143050744683" height="610.9256551617618">
  <!-- svg-source:excalidraw -->
  
  <defs>
    <style class="style-fonts">
      @font-face {
        font-family: "Virgil";
        src: url("https://excalidraw.com/Virgil.woff2");
      }
      @font-face {
        font-family: "Cascadia";
        src: url("https://excalidraw.com/Cascadia.woff2");
      }
    </style>
  </defs>
  <g stroke-linecap="round" transform="translate(187.79515697590477 84.78618079446414) rotate(0 13.953374941938705 26.178875707074667)"><path d="M6.98 0 M6.98 0 C10.63 1.02, 15.7 -0.8, 20.93 0 M6.98 0 C11.49 -0.51, 15.35 -0.18, 20.93 0 M20.93 0 C25.41 1.81, 29.73 1.9, 27.91 6.98 M20.93 0 C23.84 0.29, 25.91 0.5, 27.91 6.98 M27.91 6.98 C26.2 18.17, 28.2 28.84, 27.91 45.38 M27.91 6.98 C27.19 19.21, 27.94 33.3, 27.91 45.38 M27.91 45.38 C28.72 49.36, 26.24 53.53, 20.93 52.36 M27.91 45.38 C28.76 49.14, 24.6 52.28, 20.93 52.36 M20.93 52.36 C16.51 52.83, 13.03 53.15, 6.98 52.36 M20.93 52.36 C17.38 52.07, 15.08 52.7, 6.98 52.36 M6.98 52.36 C2.52 51.3, 0.56 49.81, 0 45.38 M6.98 52.36 C3.89 50.82, -1.74 50.86, 0 45.38 M0 45.38 C-1.89 32.52, 1.01 17.45, 0 6.98 M0 45.38 C0.37 36.01, 0.86 25.97, 0 6.98 M0 6.98 C-1.65 0.67, 1.35 -0.32, 6.98 0 M0 6.98 C-1.11 0.48, 0.29 -1.06, 6.98 0" stroke="#000000" stroke-width="1" fill="none"></path></g><g stroke-linecap="round" transform="translate(10.0112265894536 88.8651324376192) rotate(0 13.953374941938705 26.178875707074667)"><path d="M6.98 0 M6.98 0 C13.59 0.27, 17.29 0.34, 20.93 0 M6.98 0 C11.1 -0.57, 16.08 -0.07, 20.93 0 M20.93 0 C27.39 1.83, 27.48 0.81, 27.91 6.98 M20.93 0 C25.87 -2, 26.08 1.98, 27.91 6.98 M27.91 6.98 C28.36 17.02, 28.09 26.84, 27.91 45.38 M27.91 6.98 C26.9 18.55, 28.01 30.45, 27.91 45.38 M27.91 45.38 C27.23 50.69, 26.75 53.1, 20.93 52.36 M27.91 45.38 C27.01 49.05, 25.5 53.02, 20.93 52.36 M20.93 52.36 C16.86 53.65, 12.64 51.45, 6.98 52.36 M20.93 52.36 C15.36 52.97, 10.71 52.37, 6.98 52.36 M6.98 52.36 C1.27 52.91, -0.22 51.4, 0 45.38 M6.98 52.36 C0.79 50.62, 0.83 51.18, 0 45.38 M0 45.38 C0.41 34.4, -1.21 20.1, 0 6.98 M0 45.38 C-0.07 36.92, -0.88 26.42, 0 6.98 M0 6.98 C-1.66 1.35, 2.01 -0.96, 6.98 0 M0 6.98 C-1.85 0.29, 1.26 -2.04, 6.98 0" stroke="#000000" stroke-width="1" fill="none"></path></g><g stroke-linecap="round" transform="translate(10 243.10507616673158) rotate(0 13.953374941938705 26.178875707074667)"><path d="M6.98 0 M6.98 0 C12.08 -0.84, 17.05 0.36, 20.93 0 M6.98 0 C10.32 -0.11, 14.73 0.74, 20.93 0 M20.93 0 C27.41 -0.42, 26.39 2.58, 27.91 6.98 M20.93 0 C23.58 -1.82, 27.56 1.15, 27.91 6.98 M27.91 6.98 C28.11 20.6, 28.38 34.3, 27.91 45.38 M27.91 6.98 C27.67 16.3, 28.04 24.58, 27.91 45.38 M27.91 45.38 C28.56 51.2, 26.32 51.58, 20.93 52.36 M27.91 45.38 C26.92 49.95, 26.24 52.94, 20.93 52.36 M20.93 52.36 C17.97 53.19, 11.53 53.49, 6.98 52.36 M20.93 52.36 C17.28 52.63, 12.36 51.93, 6.98 52.36 M6.98 52.36 C2.88 52.13, 1.36 48.7, 0 45.38 M6.98 52.36 C0.59 53.19, 1.15 50.35, 0 45.38 M0 45.38 C1.42 31.17, -0.84 17.78, 0 6.98 M0 45.38 C0.57 33.53, -0.87 22.74, 0 6.98 M0 6.98 C-0.97 2.01, 1.36 -1.61, 6.98 0 M0 6.98 C-2.04 1.26, 0.28 -0.03, 6.98 0" stroke="#000000" stroke-width="1" fill="none"></path></g><g stroke-linecap="round" transform="translate(189.3138083492554 242.16765594736125) rotate(0 13.953374941938705 26.178875707074667)"><path d="M6.98 0 M6.98 0 C9.83 0.26, 14.6 -0.3, 20.93 0 M6.98 0 C11.04 0.05, 16.16 0.75, 20.93 0 M20.93 0 C25.16 -1.52, 28.16 0.59, 27.91 6.98 M20.93 0 C23.76 -0.34, 26.73 3.6, 27.91 6.98 M27.91 6.98 C27.92 16.37, 27.96 22.91, 27.91 45.38 M27.91 6.98 C27.97 16.16, 27.28 24.86, 27.91 45.38 M27.91 45.38 C29.08 50.78, 24.81 51.5, 20.93 52.36 M27.91 45.38 C27.83 50.7, 26.16 52.44, 20.93 52.36 M20.93 52.36 C17.37 51.56, 13.31 52.62, 6.98 52.36 M20.93 52.36 C17.65 52.56, 13.35 52.68, 6.98 52.36 M6.98 52.36 C2.1 53.72, -1.33 48.52, 0 45.38 M6.98 52.36 C3.16 53.51, 0.31 51.02, 0 45.38 M0 45.38 C-1.16 36.2, -1.39 29.09, 0 6.98 M0 45.38 C-0.89 32.56, -0.78 20.89, 0 6.98 M0 6.98 C-0.32 1.36, 0.72 -1.77, 6.98 0 M0 6.98 C-1.06 0.28, 2.3 -2.2, 6.98 0" stroke="#000000" stroke-width="1" fill="none"></path></g><g stroke-linecap="round" transform="translate(68.26098131854451 145.18480680486346) rotate(0 43.993091772066805 45.6644928019216)"><path d="M50.6 -0.16 C58.11 0.49, 67.2 6.01, 73.34 11.84 C79.47 17.67, 85.36 27, 87.41 34.84 C89.47 42.68, 88.22 51.35, 85.66 58.89 C83.11 66.42, 78.29 74.73, 72.07 80.06 C65.85 85.39, 56.33 89.67, 48.35 90.87 C40.37 92.07, 31.31 90.82, 24.19 87.26 C17.07 83.7, 9.62 76.61, 5.64 69.48 C1.65 62.35, -0.13 52.73, 0.26 44.48 C0.65 36.24, 3.68 26.93, 7.98 20.01 C12.29 13.08, 18.23 5.99, 26.08 2.94 C33.94 -0.11, 49.41 1.47, 55.11 1.73 C60.8 1.98, 60.39 3.7, 60.26 4.48 M56.03 1.89 C63.4 3.69, 72.6 10.08, 77.87 16.37 C83.13 22.67, 86.55 31.33, 87.63 39.65 C88.72 47.97, 87.6 59.02, 84.39 66.28 C81.18 73.55, 74.96 79.05, 68.37 83.25 C61.79 87.44, 53.04 91.47, 44.87 91.47 C36.69 91.47, 25.93 87.67, 19.34 83.27 C12.74 78.87, 8.4 72.6, 5.29 65.06 C2.17 57.53, -0.38 46.35, 0.64 38.07 C1.65 29.78, 5.98 21.58, 11.36 15.36 C16.74 9.14, 25.54 2.91, 32.91 0.76 C40.27 -1.38, 51.5 2.1, 55.54 2.48 C59.58 2.86, 57.08 2.61, 57.17 3.02" stroke="#000000" stroke-width="1" fill="none"></path></g><g stroke-linecap="round"><g transform="translate(139.639807163941 154.76368163129018) rotate(0 23.921791258307053 -25.1538077292214)"><path d="M0.24 0.4 C8.37 -7.94, 40.93 -42.02, 48.93 -50.71 M-1.09 -0.43 C6.84 -8.51, 39.23 -40.71, 47.86 -49.13" stroke="#000000" stroke-width="1" fill="none"></path></g></g><mask></mask><g stroke-linecap="round"><g transform="translate(148.4858493538036 160.44484619429795) rotate(0 19.196513292502573 -19.328748993153795)"><path d="M0.4 -0.24 C7.05 -6.68, 32.94 -32.15, 39.24 -38.42 M-0.84 -1.41 C5.7 -7.75, 31.43 -31.47, 38.33 -37.36" stroke="#000000" stroke-width="1" fill="none"></path></g></g><mask></mask><g stroke-linecap="round"><g transform="translate(77.36914736216295 217.60961909264142) rotate(0 -20.450132189705414 20.75339997684864)"><path d="M-0.24 0.08 C-7.06 6.91, -34.01 34.37, -40.66 41.4 M-1.83 -0.93 C-8.29 5.99, -31.89 35.02, -38.43 42.43" stroke="#000000" stroke-width="1" fill="none"></path></g></g><mask></mask><g stroke-linecap="round"><g transform="translate(85.19816260743983 224.45741340969516) rotate(0 -23.832241338414747 24.31101313589943)"><path d="M0.08 -0.92 C-7.95 7.15, -39.92 39.77, -47.74 48.19 M-1.34 1.21 C-9.03 9.48, -37.81 41.76, -45.54 49.54" stroke="#000000" stroke-width="1" fill="none"></path></g></g><mask></mask><g stroke-linecap="round"><g transform="translate(75.99814265011037 163.60538627522737) rotate(0 -18.923885533946645 -18.156449042211534)"><path d="M-0.92 -0.97 C-7.13 -7.22, -31.65 -31.57, -37.51 -37.45 M0.8 1.14 C-5.58 -4.93, -32.47 -29.44, -38.65 -35.97" stroke="#000000" stroke-width="1" fill="none"></path></g></g><mask></mask><g stroke-linecap="round"><g transform="translate(81.8261033752151 156.3034253848259) rotate(0 -22.117734778005 -22.522369333466713)"><path d="M-0.97 -0.37 C-8.31 -7.4, -36.99 -35.78, -43.96 -43.13 M0.73 -1.6 C-6.79 -8.87, -37.68 -37.73, -44.96 -44.68" stroke="#000000" stroke-width="1" fill="none"></path></g></g><mask></mask><g stroke-linecap="round"><g transform="translate(140.4462505063525 225.60227038419498) rotate(0 24.68959494485523 24.294102914833047)"><path d="M-0.37 -0.1 C8.08 8.36, 41.62 41.81, 49.75 49.79 M1.64 -1.21 C10.1 7.03, 41.72 39.94, 49.37 48.25" stroke="#000000" stroke-width="1" fill="none"></path></g></g><mask></mask><g stroke-linecap="round"><g transform="translate(146.12027087607157 219.08047241089434) rotate(0 20.98256692701068 21.144595219928078)"><path d="M-0.1 1.09 C7.32 7.86, 36.64 33.68, 43.58 40.28 M-1.62 0.61 C5.83 7.6, 35.61 34.77, 43.21 41.68" stroke="#000000" stroke-width="1" fill="none"></path></g></g><mask></mask><g stroke-linecap="round" transform="translate(208.03031901661507 10) rotate(0 23.088416760309542 23.520087629789714)"><path d="M11.54 0 M11.54 0 C19.59 -0.63, 22.47 0.04, 34.63 0 M11.54 0 C15.95 0.59, 20.63 0.15, 34.63 0 M34.63 0 C42.82 -0.03, 46.94 3.85, 46.18 11.54 M34.63 0 C40.8 -1.64, 44.45 3.93, 46.18 11.54 M46.18 11.54 C46.93 20.75, 47.02 26.85, 46.18 35.5 M46.18 11.54 C46.42 17.74, 46.29 24.21, 46.18 35.5 M46.18 35.5 C48 44.32, 41 48.6, 34.63 47.04 M46.18 35.5 C46.4 42.24, 41.35 49.24, 34.63 47.04 M34.63 47.04 C27.17 46.69, 19.97 45.58, 11.54 47.04 M34.63 47.04 C29.59 47.58, 23.35 47.44, 11.54 47.04 M11.54 47.04 C4.91 46, -1.19 41.92, 0 35.5 M11.54 47.04 C3.48 47.33, -0.31 44.6, 0 35.5 M0 35.5 C-0.77 30.26, -0.77 24.05, 0 11.54 M0 35.5 C0.1 29.47, 0.26 25.37, 0 11.54 M0 11.54 C1.53 4.85, 2.58 -1.39, 11.54 0 M0 11.54 C2.12 2.19, 2.76 0.52, 11.54 0" stroke="#000000" stroke-width="1" fill="none"></path></g><g stroke-linecap="round"><g transform="translate(207.87552816202765 38.12592352798765) rotate(0 0.044168077399262984 21.628479749354256)"><path d="M0.14 -1.12 C0.13 6.14, 0.13 36.46, -0.05 44.37" stroke="#d9480f" stroke-width="1.5" fill="none" stroke-dasharray="1.5 7"></path></g></g><mask></mask></svg>