<svg version="1.1" xmlns="http://www.w3.org/2000/svg" viewBox="0 0 341.4734385564891 370.2523705537201" width="682.9468771129782" height="740.5047411074402">
  <!-- svg-source:excalidraw -->
  
  <defs>
    <style class="style-fonts">
      @font-face {
        font-family: "Virgil";
        src: url("https://excalidraw.com/Virgil.woff2");
      }
      @font-face {
        font-family: "Cascadia";
        src: url("https://excalidraw.com/Cascadia.woff2");
      }
    </style>
  </defs>
  <g stroke-linecap="round" transform="translate(231.99165266153886 108.65994851700043) rotate(0 13.953374941938705 26.178875707074667)"><path d="M6.98 0 M6.98 0 C12.35 0.32, 14.91 1.14, 20.93 0 M6.98 0 C10.16 -0.67, 13.02 -0.32, 20.93 0 M20.93 0 C25.82 0.64, 29.21 3.16, 27.91 6.98 M20.93 0 C26.87 -2.1, 26.25 3.64, 27.91 6.98 M27.91 6.98 C27.96 22, 26.1 35.17, 27.91 45.38 M27.91 6.98 C27.35 17.34, 29.07 29.93, 27.91 45.38 M27.91 45.38 C26.22 51.04, 24.03 53.59, 20.93 52.36 M27.91 45.38 C28.07 49.67, 27.67 50.45, 20.93 52.36 M20.93 52.36 C14.92 51.02, 10.99 52.42, 6.98 52.36 M20.93 52.36 C15.73 53, 11.12 52.13, 6.98 52.36 M6.98 52.36 C1.16 52.2, -1.63 48.46, 0 45.38 M6.98 52.36 C3.91 54.18, -1.56 51.12, 0 45.38 M0 45.38 C0.43 33.14, 0.86 16.4, 0 6.98 M0 45.38 C0.05 35.73, -0.59 25.63, 0 6.98 M0 6.98 C-1.96 0.57, 0.42 -0.46, 6.98 0 M0 6.98 C1.81 3.52, 0.52 -2.03, 6.98 0" stroke="#000000" stroke-width="1" fill="none"></path></g><g stroke-linecap="round" transform="translate(54.207722275088145 112.73890016015639) rotate(0 13.953374941938705 26.178875707074667)"><path d="M6.98 0 M6.98 0 C11.24 -1.39, 15.96 -1.09, 20.93 0 M6.98 0 C10.75 -0.3, 15.54 0.08, 20.93 0 M20.93 0 C26.22 1.3, 28.74 3.45, 27.91 6.98 M20.93 0 C23.49 -1.66, 29.23 4.46, 27.91 6.98 M27.91 6.98 C27.84 16.56, 25.93 29.48, 27.91 45.38 M27.91 6.98 C26.92 21.76, 28.45 33.83, 27.91 45.38 M27.91 45.38 C28.92 48.48, 26.81 52.5, 20.93 52.36 M27.91 45.38 C27.55 52.12, 23.68 54.32, 20.93 52.36 M20.93 52.36 C14.46 53.11, 10.69 52.84, 6.98 52.36 M20.93 52.36 C17.4 51.91, 12.37 51.86, 6.98 52.36 M6.98 52.36 C2.17 50.72, -1.57 51.41, 0 45.38 M6.98 52.36 C4.15 50.8, 1.09 51.41, 0 45.38 M0 45.38 C1.64 33.05, -1.28 17.95, 0 6.98 M0 45.38 C0.55 33.01, 0.68 20.78, 0 6.98 M0 6.98 C-1.75 0.42, 1.86 1.57, 6.98 0 M0 6.98 C1.19 0.52, 0.3 1.52, 6.98 0" stroke="#000000" stroke-width="1" fill="none"></path></g><g stroke-linecap="round" transform="translate(54.196495685634545 266.97884388926786) rotate(0 13.953374941938705 26.178875707074667)"><path d="M6.98 0 M6.98 0 C10.39 1.16, 15.43 0.21, 20.93 0 M6.98 0 C10.94 -0.18, 15.58 0.35, 20.93 0 M20.93 0 C26.89 0.84, 29.03 0.5, 27.91 6.98 M20.93 0 C23.92 1.32, 30.04 2.23, 27.91 6.98 M27.91 6.98 C26.13 16.5, 27.68 31.19, 27.91 45.38 M27.91 6.98 C28.54 16.55, 26.76 25, 27.91 45.38 M27.91 45.38 C26.35 51.26, 25.73 52.05, 20.93 52.36 M27.91 45.38 C30 48.13, 27.55 54, 20.93 52.36 M20.93 52.36 C18.12 52.35, 14.21 52.21, 6.98 52.36 M20.93 52.36 C16.35 52.25, 12.08 52.43, 6.98 52.36 M6.98 52.36 C0.69 50.79, 1.38 51.62, 0 45.38 M6.98 52.36 C0.76 53.45, 1.38 51.14, 0 45.38 M0 45.38 C0.93 33.15, -0.8 23.76, 0 6.98 M0 45.38 C-0.59 34.44, -1.01 21.25, 0 6.98 M0 6.98 C-1.91 1.86, 3.9 1.03, 6.98 0 M0 6.98 C-1.8 0.3, 3.85 0.02, 6.98 0" stroke="#000000" stroke-width="1" fill="none"></path></g><g stroke-linecap="round" transform="translate(233.5103040348895 266.04142366989754) rotate(0 13.953374941938705 26.178875707074667)"><path d="M6.98 0 M6.98 0 C13.11 -0.88, 17.1 0.21, 20.93 0 M6.98 0 C10.88 0.14, 15.62 0.51, 20.93 0 M20.93 0 C26.42 1.12, 26.08 0.88, 27.91 6.98 M20.93 0 C26.9 2.14, 27.81 2.31, 27.91 6.98 M27.91 6.98 C25.92 18.39, 29.11 28.83, 27.91 45.38 M27.91 6.98 C28.45 14.64, 28.14 23.21, 27.91 45.38 M27.91 45.38 C29.14 50.18, 25.27 54.18, 20.93 52.36 M27.91 45.38 C26 52, 27.22 51.44, 20.93 52.36 M20.93 52.36 C17.5 52.98, 13.8 52.47, 6.98 52.36 M20.93 52.36 C17.46 51.88, 14.41 51.72, 6.98 52.36 M6.98 52.36 C0.76 53.74, 1.59 48.67, 0 45.38 M6.98 52.36 C3.41 53.73, 1.11 49.65, 0 45.38 M0 45.38 C-1.65 32.01, -0.15 20.05, 0 6.98 M0 45.38 C0.47 32.6, -1.09 20.81, 0 6.98 M0 6.98 C-0.46 3.9, 3.36 -1.57, 6.98 0 M0 6.98 C-2.03 3.85, 2.34 -1.25, 6.98 0" stroke="#000000" stroke-width="1" fill="none"></path></g><g stroke-linecap="round" transform="translate(112.45747700417905 169.05857452739974) rotate(0 43.993091772066805 45.6644928019216)"><path d="M46.97 -0.24 C54.45 -0.17, 64.07 4.5, 70.54 9.73 C77.01 14.95, 83.02 23.3, 85.8 31.13 C88.58 38.97, 89.25 48.96, 87.22 56.73 C85.19 64.51, 79.31 72.03, 73.63 77.81 C67.95 83.58, 60.77 89.66, 53.14 91.38 C45.51 93.1, 35.31 91.32, 27.84 88.15 C20.37 84.98, 13.12 79.18, 8.34 72.34 C3.56 65.5, -0.38 55.23, -0.83 47.11 C-1.28 39, 1.7 30.78, 5.65 23.67 C9.6 16.55, 15.51 8.11, 22.89 4.41 C30.27 0.71, 44.74 2.01, 49.92 1.46 C55.09 0.9, 53.84 0.62, 53.93 1.09 M58.7 0.91 C66.26 2.89, 74.43 11.18, 79.16 17.61 C83.89 24.05, 86.57 31.37, 87.07 39.51 C87.58 47.65, 85.54 58.83, 82.21 66.44 C78.87 74.06, 73.61 81.06, 67.07 85.21 C60.53 89.36, 51.1 91.41, 42.98 91.35 C34.86 91.3, 25.05 89.58, 18.36 84.88 C11.66 80.19, 5.92 71, 2.81 63.19 C-0.29 55.38, -1.5 46.26, -0.27 38.03 C0.96 29.8, 4.53 19.69, 10.18 13.81 C15.82 7.94, 25.9 4.59, 33.59 2.76 C41.28 0.94, 52.25 2.7, 56.32 2.86 C60.38 3.02, 58.06 3.06, 57.97 3.74" stroke="#000000" stroke-width="1" fill="none"></path></g><g stroke-linecap="round"><g transform="translate(183.83630284957508 178.63744935382738) rotate(0 24.18189512976619 -25.276563774533088)"><path d="M-0.87 0.21 C7.52 -8.42, 41.08 -42.18, 49.24 -50.77 M0.87 -0.72 C9.21 -8.62, 40.08 -40.96, 48.32 -49.22" stroke="#000000" stroke-width="1" fill="none"></path></g></g><mask></mask><g stroke-linecap="round"><g transform="translate(192.68234503943768 184.31861391683515) rotate(0 19.024007294161038 -19.285812233711567)"><path d="M0.21 0.06 C6.57 -6.23, 32.77 -32.29, 39.18 -38.64 M-1.13 -0.95 C4.98 -7.06, 31.79 -31.69, 38.24 -37.69" stroke="#000000" stroke-width="1" fill="none"></path></g></g><mask></mask><g stroke-linecap="round"><g transform="translate(121.5656430477975 241.4833868151777) rotate(0 -20.407195430263357 21.05888039633919)"><path d="M0.06 0.02 C-6.6 6.96, -34.16 34.78, -40.88 41.86 M-1.36 -1.01 C-7.6 6.07, -32.1 35.64, -38.76 43.13" stroke="#000000" stroke-width="1" fill="none"></path></g></g><mask></mask><g stroke-linecap="round"><g transform="translate(129.39465829307392 248.33118113223236) rotate(0 -24.239754018492647 24.07381786690894)"><path d="M0.02 -1.14 C-7.89 6.86, -39.51 39.68, -47.29 48.03 M-1.42 0.88 C-9.56 9.03, -40.85 41.63, -48.5 49.28" stroke="#000000" stroke-width="1" fill="none"></path></g></g><mask></mask><g stroke-linecap="round"><g transform="translate(120.19463833574491 187.47915399776457) rotate(0 -19.218556308678444 -18.85782699528795)"><path d="M-1.14 -0.51 C-7.43 -6.71, -31.74 -31.2, -37.68 -37.21 M0.47 -1.82 C-6.03 -7.81, -32.61 -29.48, -38.9 -35.59" stroke="#000000" stroke-width="1" fill="none"></path></g></g><mask></mask><g stroke-linecap="round"><g transform="translate(126.02259906084964 180.1771931073631) rotate(0 -21.580701856001554 -21.9750906772897)"><path d="M-0.51 -0.53 C-7.8 -7.65, -36.62 -36.63, -43.71 -43.83 M1.42 1.8 C-6.01 -5.59, -37.11 -37.82, -44.58 -45.75" stroke="#000000" stroke-width="1" fill="none"></path></g></g><mask></mask><g stroke-linecap="round"><g transform="translate(184.64274619198704 249.47603810673127) rotate(0 24.25430184780612 24.326033087844735)"><path d="M-0.53 0.14 C7.83 8.47, 40.76 41.27, 49.04 49.48 M1.39 -0.83 C9.73 7.21, 40.42 39.73, 48.29 47.77" stroke="#000000" stroke-width="1" fill="none"></path></g></g><mask></mask><g stroke-linecap="round"><g transform="translate(190.31676656170612 242.95424013343063) rotate(0 21.014497100022254 20.283830687364116)"><path d="M0.14 0.38 C7.44 7.31, 36.1 34.52, 43.27 41.03 M-1.24 -0.46 C6.01 6.15, 35.4 32.4, 42.73 39.17" stroke="#000000" stroke-width="1" fill="none"></path></g></g><mask></mask><g stroke-linecap="round" transform="translate(267.45296169852213 10) rotate(0 32.010238428983484 36.19526858498784)"><path d="M41.47 2.35 C47.46 3.87, 53.47 8.52, 57.23 13.96 C60.99 19.4, 63.97 28.05, 64.03 34.97 C64.1 41.9, 61.16 49.53, 57.62 55.51 C54.08 61.48, 48.65 68.39, 42.78 70.84 C36.91 73.28, 28.53 72.1, 22.41 70.18 C16.28 68.27, 9.64 64.96, 6.04 59.36 C2.44 53.75, 0.84 43.92, 0.83 36.55 C0.83 29.17, 2.53 20.84, 6.01 15.12 C9.5 9.4, 14.92 3.89, 21.74 2.23 C28.55 0.57, 41.98 3.89, 46.92 5.17 C51.85 6.44, 51.46 9.57, 51.36 9.89 M24.98 1.5 C30.92 -0.62, 38.96 0.02, 44.53 2.93 C50.11 5.84, 55.35 12.97, 58.45 18.96 C61.55 24.96, 63.66 32.08, 63.13 38.89 C62.6 45.71, 59.47 54.63, 55.27 59.86 C51.07 65.1, 43.74 68.49, 37.94 70.3 C32.15 72.1, 26.23 73.15, 20.5 70.68 C14.76 68.22, 6.78 61.67, 3.53 55.5 C0.29 49.34, 0.34 40.82, 1.02 33.72 C1.71 26.61, 3.46 18.21, 7.63 12.87 C11.8 7.53, 23.31 3.66, 26.04 1.7 C28.76 -0.26, 24.05 0.65, 23.99 1.11" stroke="#000000" stroke-width="1" fill="none"></path></g><g stroke-linecap="round" transform="translate(10 72.462917358514) rotate(0 148.2155602135307 143.8947265976028)"><path d="M217.78 16.54 C231.87 21.24, 244.21 33.21, 254.97 43.95 C265.72 54.7, 275.67 67.6, 282.33 81.03 C288.98 94.46, 292.78 109.9, 294.89 124.53 C297.01 139.16, 297.61 154.43, 295.01 168.81 C292.41 183.19, 286.72 197.58, 279.3 210.82 C271.89 224.06, 261.37 237.96, 250.53 248.26 C239.69 258.55, 227.94 266.12, 214.27 272.58 C200.59 279.04, 183.86 284.87, 168.48 287.04 C153.11 289.2, 137.11 288.31, 122.04 285.57 C106.97 282.82, 91.34 277.57, 78.08 270.57 C64.82 263.57, 52.95 254.22, 42.46 243.58 C31.97 232.94, 22.1 220.13, 15.14 206.74 C8.19 193.35, 2.91 177.93, 0.72 163.25 C-1.48 148.56, -0.68 133.01, 1.95 118.63 C4.59 104.26, 9.38 90.06, 16.55 77 C23.72 63.93, 33.82 50.69, 44.95 40.25 C56.09 29.82, 69.55 20.97, 83.36 14.37 C97.18 7.77, 112.82 2.68, 127.85 0.66 C142.88 -1.36, 157.99 -0.94, 173.54 2.24 C189.08 5.42, 212.58 16.32, 221.11 19.76 C229.65 23.19, 225.76 20.96, 224.75 22.86" stroke="#000000" stroke-width="1.5" fill="none" stroke-dasharray="1.5 7"></path></g><g stroke-linecap="round"><g transform="translate(268.06943901474233 41.43338955823356) rotate(0 0.7587745241559105 136.8598975362081)"><path d="M-0.47 -0.03 C-0.28 45.64, 1.49 228.22, 1.98 273.75" stroke="#d9480f" stroke-width="1.5" fill="none" stroke-dasharray="8 9"></path></g></g><mask></mask></svg>