<svg version="1.1" xmlns="http://www.w3.org/2000/svg" viewBox="0 0 258.02079144881736 334.57426705804994" width="516.0415828976347" height="669.1485341160999">
  <!-- svg-source:excalidraw -->
  
  <defs>
    <style class="style-fonts">
      @font-face {
        font-family: "Virgil";
        src: url("https://excalidraw.com/Virgil.woff2");
      }
      @font-face {
        font-family: "Cascadia";
        src: url("https://excalidraw.com/Cascadia.woff2");
      }
    </style>
  </defs>
  <g stroke-linecap="round" transform="translate(218.59539019158933 113.89762027163317) rotate(0 13.953374941938705 26.178875707074667)"><path d="M6.98 0 M6.98 0 C9.57 1.14, 11.83 1.12, 20.93 0 M6.98 0 C10.88 0.12, 12.94 -0.25, 20.93 0 M20.93 0 C25.59 -1.02, 27.72 0.9, 27.91 6.98 M20.93 0 C27.81 0.87, 26.34 2.66, 27.91 6.98 M27.91 6.98 C28.55 16.74, 28.03 26.23, 27.91 45.38 M27.91 6.98 C27.93 17.76, 28.31 29.54, 27.91 45.38 M27.91 45.38 C29.67 49.1, 23.92 53.26, 20.93 52.36 M27.91 45.38 C26.38 48.12, 23.8 54.39, 20.93 52.36 M20.93 52.36 C15.51 53.09, 12.53 52.47, 6.98 52.36 M20.93 52.36 C16.15 51.86, 10.83 52.65, 6.98 52.36 M6.98 52.36 C3.03 53.29, 0.42 49.52, 0 45.38 M6.98 52.36 C1.27 51.54, 0.67 48.33, 0 45.38 M0 45.38 C1.97 33.99, -0.98 20.62, 0 6.98 M0 45.38 C-0.14 36.05, -0.41 27.61, 0 6.98 M0 6.98 C-0.09 3.22, 1.14 1.78, 6.98 0 M0 6.98 C0.57 0.29, 2.2 -1.81, 6.98 0" stroke="#000000" stroke-width="1" fill="none"></path></g><g stroke-linecap="round" transform="translate(40.811459805138156 117.97657191478822) rotate(0 13.953374941938705 26.178875707074667)"><path d="M6.98 0 M6.98 0 C12.08 -0.85, 16.13 -0.83, 20.93 0 M6.98 0 C12.7 -0.81, 17.83 -0.11, 20.93 0 M20.93 0 C24.56 -0.19, 26.49 4.26, 27.91 6.98 M20.93 0 C26.45 -1.57, 28.24 1.38, 27.91 6.98 M27.91 6.98 C27.95 18.7, 27.51 29.89, 27.91 45.38 M27.91 6.98 C27.64 15.99, 28.49 24.44, 27.91 45.38 M27.91 45.38 C26.98 48.37, 26.48 51.03, 20.93 52.36 M27.91 45.38 C25.99 48.26, 27.61 53.28, 20.93 52.36 M20.93 52.36 C18.61 53.39, 15.04 52.91, 6.98 52.36 M20.93 52.36 C15.58 51.88, 11.47 52.61, 6.98 52.36 M6.98 52.36 C3.26 52.78, -0.51 49.11, 0 45.38 M6.98 52.36 C1.51 53.03, -1.7 50.87, 0 45.38 M0 45.38 C1.82 35.36, 1.38 26.66, 0 6.98 M0 45.38 C-0.26 30.48, 0.56 15.68, 0 6.98 M0 6.98 C0.9 1.14, 4.1 0.49, 6.98 0 M0 6.98 C-2.03 2.2, 0.52 -1.95, 6.98 0" stroke="#000000" stroke-width="1" fill="none"></path></g><g stroke-linecap="round" transform="translate(40.80023321568501 272.2165156439006) rotate(0 13.953374941938705 26.178875707074667)"><path d="M6.98 0 M6.98 0 C9.1 0.9, 12.13 1.21, 20.93 0 M6.98 0 C11.51 -0.19, 17.44 -0.4, 20.93 0 M20.93 0 C25.39 -1.42, 29.84 3.08, 27.91 6.98 M20.93 0 C24.01 0.33, 26.96 2.38, 27.91 6.98 M27.91 6.98 C28.15 20.1, 27.72 32.77, 27.91 45.38 M27.91 6.98 C28.76 18, 28.92 27.17, 27.91 45.38 M27.91 45.38 C26.24 50.93, 24.26 50.69, 20.93 52.36 M27.91 45.38 C26.13 52.06, 26.51 50.31, 20.93 52.36 M20.93 52.36 C16.71 52.41, 10.92 53.13, 6.98 52.36 M20.93 52.36 C16.66 52.6, 13.61 52.59, 6.98 52.36 M6.98 52.36 C2.75 51.84, -0.92 49.32, 0 45.38 M6.98 52.36 C2.99 50.66, 0.84 48.38, 0 45.38 M0 45.38 C-1.58 37.76, -1.51 29.67, 0 6.98 M0 45.38 C-0.15 32.76, -0.12 19.1, 0 6.98 M0 6.98 C-1.18 4.1, 2.82 -1.77, 6.98 0 M0 6.98 C-0.12 0.52, 0.38 -1.97, 6.98 0" stroke="#000000" stroke-width="1" fill="none"></path></g><g stroke-linecap="round" transform="translate(220.11404156493995 271.2790954245303) rotate(0 13.953374941938705 26.178875707074667)"><path d="M6.98 0 M6.98 0 C11.89 -0.77, 16.12 1.13, 20.93 0 M6.98 0 C12.16 0.14, 17.29 0.07, 20.93 0 M20.93 0 C24.16 1.94, 28.66 0.96, 27.91 6.98 M20.93 0 C25.91 -0.95, 27.96 3.65, 27.91 6.98 M27.91 6.98 C27.26 19.41, 26.19 31.83, 27.91 45.38 M27.91 6.98 C28.55 20.7, 27.39 31.82, 27.91 45.38 M27.91 45.38 C28.81 48.71, 23.92 50.81, 20.93 52.36 M27.91 45.38 C29.94 50.96, 23.53 54.22, 20.93 52.36 M20.93 52.36 C17.41 53.09, 14.62 52.07, 6.98 52.36 M20.93 52.36 C17.03 52.51, 12.78 52.41, 6.98 52.36 M6.98 52.36 C1.81 51.44, -0.71 50.61, 0 45.38 M6.98 52.36 C0.62 53.2, -1.65 48.35, 0 45.38 M0 45.38 C0.8 29.42, 1.43 16.78, 0 6.98 M0 45.38 C0.77 33.07, 0.48 20.25, 0 6.98 M0 6.98 C1.78 2.82, 0.56 -0.11, 6.98 0 M0 6.98 C-1.81 0.38, 0.36 0.77, 6.98 0" stroke="#000000" stroke-width="1" fill="none"></path></g><g stroke-linecap="round" transform="translate(99.06121453422952 174.29624628203248) rotate(0 43.993091772066805 45.6644928019216)"><path d="M64.29 3.98 C71.12 6.82, 77.91 15.39, 81.77 22.65 C85.63 29.91, 87.86 39.14, 87.44 47.53 C87.02 55.91, 83.66 66.32, 79.24 72.94 C74.82 79.57, 68.12 84.43, 60.91 87.3 C53.71 90.16, 43.87 91.44, 36.02 90.13 C28.17 88.82, 19.54 85.04, 13.81 79.44 C8.07 73.84, 3.51 64.69, 1.61 56.55 C-0.29 48.42, -0.07 38.54, 2.41 30.63 C4.89 22.71, 10.33 14.07, 16.48 9.06 C22.63 4.05, 30.93 0.86, 39.29 0.57 C47.66 0.28, 61.58 5.75, 66.65 7.34 C71.72 8.92, 70.13 9.7, 69.7 10.09 M52.67 2.48 C60.41 3.59, 70.11 6.86, 76.05 12.4 C81.99 17.94, 86.69 27.25, 88.3 35.73 C89.91 44.21, 88.76 55.37, 85.71 63.28 C82.65 71.19, 76.34 78.6, 69.96 83.19 C63.57 87.78, 55.31 90.59, 47.4 90.81 C39.5 91.03, 29.75 88.35, 22.53 84.51 C15.32 80.68, 7.74 74.8, 4.1 67.81 C0.46 60.83, -0.2 50.98, 0.68 42.6 C1.56 34.21, 4.77 24.25, 9.39 17.51 C14.01 10.77, 20.91 5.08, 28.39 2.17 C35.87 -0.74, 49.96 0.24, 54.26 0.04 C58.56 -0.15, 54.59 -0.17, 54.18 0.97" stroke="#000000" stroke-width="1" fill="none"></path></g><g stroke-linecap="round"><g transform="translate(170.44004037962554 183.8751211084592) rotate(0 24.667870991315567 -25.137654390465002)"><path d="M-0.73 1.13 C7.74 -7.31, 41.69 -40.95, 50.07 -49.8 M1.08 0.68 C9.54 -8.16, 41.61 -42.74, 49.59 -51.41" stroke="#000000" stroke-width="1" fill="none"></path></g></g><mask></mask><g stroke-linecap="round"><g transform="translate(179.28608256948814 189.55628567146698) rotate(0 20.20539955942138 -19.069372108073082)"><path d="M1.13 0.9 C7.68 -5.17, 34.01 -30.67, 40.15 -37.12 M0.27 0.32 C6.67 -6.05, 33.06 -32.89, 39.72 -39.04" stroke="#000000" stroke-width="1" fill="none"></path></g></g><mask></mask><g stroke-linecap="round"><g transform="translate(108.16938057784796 246.72105856981045) rotate(0 -19.603490662049012 21.270186555239434)"><path d="M0.9 0.99 C-5.54 7.66, -32.54 34.27, -39.36 41.17 M-0.09 0.46 C-6.59 7.75, -33.3 34.87, -40.11 42.08" stroke="#000000" stroke-width="1" fill="none"></path></g></g><mask></mask><g stroke-linecap="round"><g transform="translate(115.99839582312438 253.5688528868642) rotate(0 -23.493364893568355 24.622243297052194)"><path d="M0.99 0.38 C-7.2 8.28, -40.02 40.38, -47.97 48.3 M0.05 -0.46 C-7.89 7.54, -37.96 41.47, -45.89 49.71" stroke="#000000" stroke-width="1" fill="none"></path></g></g><mask></mask><g stroke-linecap="round"><g transform="translate(106.79837586579538 192.7168257523964) rotate(0 -19.050035893197332 -18.276993153371905)"><path d="M0.38 -1.2 C-6 -7.59, -31.04 -31.3, -37.4 -37.34 M-0.87 0.79 C-7.52 -5.48, -32.16 -29.64, -38.48 -35.8" stroke="#000000" stroke-width="1" fill="none"></path></g></g><mask></mask><g stroke-linecap="round"><g transform="translate(112.62633659090011 185.41486486199494) rotate(0 -22.20893570183148 -22.539331781583144)"><path d="M-1.2 -0.26 C-8.67 -7.79, -36.72 -37.35, -43.85 -44.82 M0.37 -1.44 C-7.34 -8.85, -37.26 -36.48, -44.79 -43.6" stroke="#000000" stroke-width="1" fill="none"></path></g></g><mask></mask><g stroke-linecap="round"><g transform="translate(171.2464837220375 254.713709861364) rotate(0 25.09220271297727 24.513021124384068)"><path d="M-0.26 0.01 C7.69 8.3, 40.04 40.27, 48.05 48.58 M1.81 -1.03 C10.12 7.56, 42.37 41.87, 50.44 50.06" stroke="#000000" stroke-width="1" fill="none"></path></g></g><mask></mask><g stroke-linecap="round"><g transform="translate(176.92050409175658 248.19191188806337) rotate(0 20.462612454500572 20.07776816662158)"><path d="M0.01 -0.61 C7.27 6.05, 35.1 32.74, 42.37 39.68 M-1.45 1.68 C5.75 8.49, 33.88 34.57, 41.37 40.77" stroke="#000000" stroke-width="1" fill="none"></path></g></g><mask></mask><g stroke-linecap="round" transform="translate(10 9.999999999999886) rotate(0 36.018981363095236 35.25931547673969)"><path d="M48.15 1.65 C54.76 3.6, 62.56 10.3, 66.48 16.16 C70.41 22.03, 72.13 30.06, 71.72 36.83 C71.31 43.6, 68.38 51.46, 64.03 56.76 C59.67 62.06, 52.21 66.7, 45.62 68.63 C39.03 70.55, 31.16 70.69, 24.49 68.32 C17.81 65.95, 9.6 60.02, 5.58 54.42 C1.56 48.81, -0.05 41.45, 0.39 34.69 C0.83 27.94, 3.93 19.46, 8.22 13.89 C12.51 8.32, 18.36 2.82, 26.13 1.28 C33.9 -0.25, 49.15 3.25, 54.86 4.68 C60.57 6.11, 60.65 9.37, 60.39 9.86 M22.04 2.02 C28.31 -1.01, 39.68 -2.06, 46.41 -0.08 C53.13 1.91, 58 8.34, 62.4 13.95 C66.8 19.55, 72.24 26.77, 72.83 33.53 C73.42 40.29, 69.65 48.96, 65.95 54.52 C62.26 60.07, 56.97 64.61, 50.67 66.84 C44.38 69.07, 35.22 69.32, 28.19 67.91 C21.16 66.5, 13.09 63.42, 8.5 58.37 C3.91 53.31, 1.24 44.52, 0.64 37.56 C0.04 30.61, 1.15 22.59, 4.91 16.62 C8.67 10.65, 20.04 4.2, 23.18 1.74 C26.32 -0.72, 23.37 1.34, 23.73 1.87" stroke="#000000" stroke-width="1" fill="none"></path></g></svg>