<svg version="1.1" xmlns="http://www.w3.org/2000/svg" viewBox="0 0 317.70108583403226 328.0113899733394" width="635.4021716680645" height="656.0227799466788">
  <!-- svg-source:excalidraw -->
  
  <defs>
    <style class="style-fonts">
      @font-face {
        font-family: "Virgil";
        src: url("https://excalidraw.com/Virgil.woff2");
      }
      @font-face {
        font-family: "Cascadia";
        src: url("https://excalidraw.com/Cascadia.woff2");
      }
    </style>
  </defs>
  <g stroke-linecap="round" transform="translate(9.999999999999886 10) rotate(0 148.85054291701618 25.03997222698183)"><path d="M204.57 1.82 C221.26 2.54, 236.14 5.42, 249.3 7.49 C262.46 9.56, 275.66 11.58, 283.55 14.25 C291.43 16.92, 295.33 20.47, 296.63 23.51 C297.93 26.54, 296.31 29.68, 291.35 32.45 C286.4 35.21, 277.73 37.79, 266.92 40.09 C256.12 42.39, 241.76 44.68, 226.51 46.26 C211.26 47.85, 193.17 48.89, 175.44 49.61 C157.71 50.32, 137.73 50.95, 120.12 50.54 C102.51 50.13, 84.95 48.89, 69.78 47.14 C54.6 45.39, 39.73 42.53, 29.08 40.02 C18.43 37.51, 10.71 34.87, 5.9 32.08 C1.08 29.28, -1.53 26.22, 0.2 23.24 C1.94 20.25, 8.27 16.88, 16.31 14.15 C24.35 11.42, 35.22 8.8, 48.44 6.86 C61.66 4.92, 78.7 3.64, 95.64 2.49 C112.57 1.34, 128.11 -0.23, 150.06 -0.04 C172 0.16, 211.3 2.55, 227.29 3.65 C243.28 4.75, 247.49 6.26, 245.99 6.56 M116.62 1.49 C132.84 0.5, 154.16 -0.58, 171.84 -0.19 C189.52 0.2, 207.22 2.05, 222.71 3.84 C238.2 5.63, 253.55 8.32, 264.76 10.55 C275.97 12.78, 284.47 14.72, 289.97 17.22 C295.46 19.72, 298.87 22.55, 297.74 25.56 C296.62 28.58, 290.58 32.51, 283.22 35.33 C275.86 38.15, 266.35 40.4, 253.61 42.47 C240.86 44.54, 223.05 46.68, 206.74 47.77 C190.43 48.86, 173.38 48.72, 155.77 49 C138.17 49.28, 118.46 50.29, 101.11 49.46 C83.77 48.64, 65.59 46.18, 51.71 44.03 C37.83 41.89, 26.04 39.11, 17.84 36.6 C9.65 34.09, 4.89 31.71, 2.51 29 C0.14 26.28, -0.45 23.36, 3.58 20.33 C7.61 17.3, 16.11 13.52, 26.71 10.81 C37.32 8.1, 52.55 5.54, 67.22 4.07 C81.89 2.61, 106.33 2.36, 114.73 2.01 C123.14 1.66, 116.89 1.93, 117.65 1.98" stroke="#000000" stroke-width="1" fill="none"></path></g><g stroke-linecap="round" transform="translate(234.91255756293663 107.33474318692265) rotate(0 13.953374941938705 26.178875707074667)"><path d="M6.98 0 M6.98 0 C11.2 -0.09, 17.91 0.56, 20.93 0 M6.98 0 C9.93 -0.68, 12.88 -0.44, 20.93 0 M20.93 0 C25.35 1.09, 29.48 3.91, 27.91 6.98 M20.93 0 C24.24 -1.73, 26.5 0.65, 27.91 6.98 M27.91 6.98 C26.18 13.73, 28.18 22.83, 27.91 45.38 M27.91 6.98 C28.02 17.71, 28.98 27.08, 27.91 45.38 M27.91 45.38 C27.94 49.63, 25.87 52.54, 20.93 52.36 M27.91 45.38 C25.63 48.42, 27.24 53.07, 20.93 52.36 M20.93 52.36 C16.73 53.76, 11.38 51.59, 6.98 52.36 M20.93 52.36 C18.26 51.75, 14.82 51.93, 6.98 52.36 M6.98 52.36 C3.8 53.38, 0.84 49.59, 0 45.38 M6.98 52.36 C3.02 54.41, 0.91 48.51, 0 45.38 M0 45.38 C-0.07 28.63, -1.68 14.6, 0 6.98 M0 45.38 C-0.67 31.03, 0.23 18.84, 0 6.98 M0 6.98 C1.53 0.89, 1.69 -0.02, 6.98 0 M0 6.98 C-1.84 3.97, 1.46 -0.8, 6.98 0" stroke="#000000" stroke-width="1" fill="none"></path></g><g stroke-linecap="round" transform="translate(57.12862717648568 111.4136948300777) rotate(0 13.953374941938705 26.178875707074667)"><path d="M6.98 0 M6.98 0 C10.43 0.37, 14.51 -1.23, 20.93 0 M6.98 0 C11.23 0.19, 16.31 -0.1, 20.93 0 M20.93 0 C26.67 1.58, 29.49 1.16, 27.91 6.98 M20.93 0 C23.85 -1.41, 26.24 0.41, 27.91 6.98 M27.91 6.98 C26.62 16.74, 27.4 24.7, 27.91 45.38 M27.91 6.98 C28.31 20.72, 27.72 32.59, 27.91 45.38 M27.91 45.38 C27.5 50.32, 25.76 50.38, 20.93 52.36 M27.91 45.38 C26.3 51.69, 26.29 53.4, 20.93 52.36 M20.93 52.36 C17.49 52.5, 10.48 51.25, 6.98 52.36 M20.93 52.36 C16.94 52.35, 13.67 52.94, 6.98 52.36 M6.98 52.36 C3.35 53.19, -0.44 50.64, 0 45.38 M6.98 52.36 C4.37 53.27, -1.52 52.32, 0 45.38 M0 45.38 C-1.16 34.33, 0.16 28.19, 0 6.98 M0 45.38 C-0.8 36.34, 0.57 28.1, 0 6.98 M0 6.98 C-1.44 1.69, 2.31 -1.6, 6.98 0 M0 6.98 C1.64 1.46, 1.53 -0.53, 6.98 0" stroke="#000000" stroke-width="1" fill="none"></path></g><g stroke-linecap="round" transform="translate(57.11740058703208 265.6536385591901) rotate(0 13.953374941938705 26.178875707074667)"><path d="M6.98 0 M6.98 0 C12.53 0.67, 16.23 0.65, 20.93 0 M6.98 0 C12.32 -0.23, 17.17 0.5, 20.93 0 M20.93 0 C27.16 1.58, 26.74 0.82, 27.91 6.98 M20.93 0 C24.18 -1.67, 25.99 0.97, 27.91 6.98 M27.91 6.98 C28.11 20.5, 26.81 36.28, 27.91 45.38 M27.91 6.98 C28.84 15.01, 27.92 22.49, 27.91 45.38 M27.91 45.38 C28.2 50.21, 23.6 50.96, 20.93 52.36 M27.91 45.38 C29.56 50.74, 26.62 53.43, 20.93 52.36 M20.93 52.36 C16.67 51.72, 11.08 51.77, 6.98 52.36 M20.93 52.36 C17.46 51.9, 14.66 52.61, 6.98 52.36 M6.98 52.36 C3.16 51.92, 0.6 51.81, 0 45.38 M6.98 52.36 C3.24 50.84, 2.29 48.6, 0 45.38 M0 45.38 C-1.87 36.28, 1.12 26.07, 0 6.98 M0 45.38 C0.33 34.33, 1.12 21.4, 0 6.98 M0 6.98 C-0.63 2.31, 0.73 1.43, 6.98 0 M0 6.98 C-0.87 1.53, 1.8 -2.18, 6.98 0" stroke="#000000" stroke-width="1" fill="none"></path></g><g stroke-linecap="round" transform="translate(236.43120893628725 264.71621833981976) rotate(0 13.953374941938705 26.178875707074667)"><path d="M6.98 0 M6.98 0 C10.73 -1.37, 13.79 0.92, 20.93 0 M6.98 0 C11.03 -0.12, 16.16 0.51, 20.93 0 M20.93 0 C27.16 -1.16, 26.4 1.1, 27.91 6.98 M20.93 0 C23.91 -1.92, 26.56 4, 27.91 6.98 M27.91 6.98 C26.82 14.8, 28.27 22.34, 27.91 45.38 M27.91 6.98 C28.38 18.47, 28 30.06, 27.91 45.38 M27.91 45.38 C28.08 48.05, 24.18 53.8, 20.93 52.36 M27.91 45.38 C28.61 51.07, 26.65 52.62, 20.93 52.36 M20.93 52.36 C15.35 51.2, 10.61 51.57, 6.98 52.36 M20.93 52.36 C15.71 52.86, 11.53 52.63, 6.98 52.36 M6.98 52.36 C1.88 52.96, 1.78 50.82, 0 45.38 M6.98 52.36 C0.81 54.65, -1.44 48.53, 0 45.38 M0 45.38 C0.18 35.52, -1.03 23.59, 0 6.98 M0 45.38 C0.88 38.15, -0.42 29.07, 0 6.98 M0 6.98 C-0.02 0.73, 3.75 -0.76, 6.98 0 M0 6.98 C-0.8 1.8, 0.15 1.46, 6.98 0" stroke="#000000" stroke-width="1" fill="none"></path></g><g stroke-linecap="round" transform="translate(115.37838190557682 167.73336919732196) rotate(0 43.993091772066805 45.6644928019216)"><path d="M53.36 1.55 C60.64 2.69, 69.5 7.9, 75.22 13.92 C80.94 19.93, 85.96 29.65, 87.7 37.64 C89.45 45.64, 88.82 54.48, 85.69 61.9 C82.55 69.31, 75.59 77.4, 68.89 82.15 C62.2 86.91, 53.41 89.79, 45.52 90.44 C37.63 91.08, 28.44 90.1, 21.55 86.02 C14.67 81.95, 7.74 73.45, 4.22 65.96 C0.7 58.47, -0.35 49.11, 0.43 41.1 C1.21 33.09, 4.23 24.33, 8.91 17.9 C13.58 11.48, 20.58 5.11, 28.5 2.55 C36.41 0, 51.63 2.5, 56.37 2.56 C61.1 2.62, 57.26 2.33, 56.9 2.93 M47.02 0.51 C54.93 0.5, 63.75 4.29, 70.07 9.08 C76.39 13.86, 81.84 21.68, 84.95 29.21 C88.06 36.74, 90.36 46.48, 88.71 54.25 C87.07 62.02, 80.92 69.99, 75.09 75.81 C69.26 81.63, 61.15 87.17, 53.72 89.15 C46.28 91.14, 37.88 90.37, 30.48 87.73 C23.09 85.08, 14.2 79.4, 9.34 73.26 C4.48 67.13, 1.97 59.04, 1.32 50.92 C0.67 42.8, 1.95 31.77, 5.45 24.54 C8.95 17.31, 15.48 11.78, 22.33 7.53 C29.17 3.28, 42.36 0.31, 46.54 -0.94 C50.72 -2.2, 47.69 -0.87, 47.4 0.02" stroke="#000000" stroke-width="1" fill="none"></path></g><g stroke-linecap="round"><g transform="translate(186.75720775097284 177.3122440237487) rotate(0 24.417470436181702 -25.020947789139598)"><path d="M-1.15 0.56 C7.14 -7.97, 41.77 -42.11, 49.99 -50.6 M0.44 -0.19 C8.63 -8.55, 41.12 -40.24, 49.47 -48.97" stroke="#000000" stroke-width="1" fill="none"></path></g></g><mask></mask><g stroke-linecap="round"><g transform="translate(195.60324994083544 182.99340858675646) rotate(0 19.370895208550564 -18.846581302906486)"><path d="M0.56 0.82 C7.02 -5.41, 32.85 -32.02, 39.34 -38.51 M-0.6 0.2 C5.67 -5.81, 31.9 -31.29, 38.49 -37.5" stroke="#000000" stroke-width="1" fill="none"></path></g></g><mask></mask><g stroke-linecap="round"><g transform="translate(124.48654794919526 240.15818148509993) rotate(0 -19.967964499458105 20.983160109615994)"><path d="M0.82 0.19 C-5.78 7.21, -33.89 35.72, -40.75 42.73 M-0.22 -0.76 C-6.35 5.84, -31.7 33.42, -38.57 40.79" stroke="#000000" stroke-width="1" fill="none"></path></g></g><mask></mask><g stroke-linecap="round"><g transform="translate(132.31556319447168 247.00597580215367) rotate(0 -23.49538261220573 24.08597074450796)"><path d="M0.19 -1.01 C-7.64 6.85, -38.57 39.59, -46.42 47.96 M-1.17 1.07 C-9.18 9.01, -39.41 41.49, -47.18 49.18" stroke="#000000" stroke-width="1" fill="none"></path></g></g><mask></mask><g stroke-linecap="round"><g transform="translate(123.11554323714267 186.15394866768588) rotate(0 -18.541343142415542 -18.56296464148636)"><path d="M-1.01 0.36 C-7.44 -5.92, -31.83 -31.36, -37.74 -37.49 M0.66 -0.5 C-5.44 -6.6, -29.08 -29.73, -35.35 -36.02" stroke="#000000" stroke-width="1" fill="none"></path></g></g><mask></mask><g stroke-linecap="round"><g transform="translate(128.9435039622474 178.85198777728442) rotate(0 -22.325772932519442 -21.82155312344264)"><path d="M0.36 -0.6 C-7 -7.69, -36.78 -36.45, -43.99 -43.56 M-0.91 1.7 C-8.46 -5.65, -37.97 -37.54, -45.01 -45.34" stroke="#000000" stroke-width="1" fill="none"></path></g></g><mask></mask><g stroke-linecap="round"><g transform="translate(187.5636510933848 248.1508327766535) rotate(0 24.354982210984417 24.194536292875796)"><path d="M-0.6 -0.14 C7.79 8.08, 40.94 41.62, 49.31 49.64 M1.28 -1.25 C9.66 6.61, 40.7 39.65, 48.7 48.02" stroke="#000000" stroke-width="1" fill="none"></path></g></g><mask></mask><g stroke-linecap="round"><g transform="translate(193.23767146310388 241.62903480335285) rotate(0 20.88300030505343 20.71204074632135)"><path d="M-0.14 0.65 C7.04 7.66, 36.45 34.98, 43.43 41.48 M-1.67 -0.05 C5.41 6.69, 35.32 33.1, 42.98 39.85" stroke="#000000" stroke-width="1" fill="none"></path></g></g><mask></mask></svg>