<svg version="1.1" xmlns="http://www.w3.org/2000/svg" viewBox="0 0 227.22055823313246 304.2461884738145" width="454.44111646626493" height="608.492376947629">
  <!-- svg-source:excalidraw -->
  
  <defs>
    <style class="style-fonts">
      @font-face {
        font-family: "Virgil";
        src: url("https://excalidraw.com/Virgil.woff2");
      }
      @font-face {
        font-family: "Cascadia";
        src: url("https://excalidraw.com/Cascadia.woff2");
      }
    </style>
  </defs>
  <g stroke-linecap="round" transform="translate(187.79515697590443 83.56954168739776) rotate(0 13.953374941938705 26.178875707074667)"><path d="M6.98 0 M6.98 0 C11.82 -0.76, 12.89 1.23, 20.93 0 M6.98 0 C10.85 -0.62, 15.68 -0.34, 20.93 0 M20.93 0 C25.64 1.12, 27.25 3.64, 27.91 6.98 M20.93 0 C26.58 -2.24, 26.83 1.62, 27.91 6.98 M27.91 6.98 C29.24 18.56, 27.06 25.68, 27.91 45.38 M27.91 6.98 C28.36 18.89, 27.15 32.43, 27.91 45.38 M27.91 45.38 C28.48 50.65, 24.46 53.11, 20.93 52.36 M27.91 45.38 C27.6 51.34, 24.9 52.95, 20.93 52.36 M20.93 52.36 C16.22 52.21, 13.51 51.25, 6.98 52.36 M20.93 52.36 C18.29 51.95, 14.86 51.94, 6.98 52.36 M6.98 52.36 C0.52 53.74, 0.68 49.62, 0 45.38 M6.98 52.36 C3.18 51.48, -1.61 48.37, 0 45.38 M0 45.38 C0.39 33.18, -0.9 23.05, 0 6.98 M0 45.38 C-0.72 37.74, -0.05 29.08, 0 6.98 M0 6.98 C-1.77 0.42, 4.21 -0.58, 6.98 0 M0 6.98 C-1.31 2.08, 4.13 -0.31, 6.98 0" stroke="#000000" stroke-width="1" fill="none"></path></g><g stroke-linecap="round" transform="translate(10.0112265894536 87.64849333055281) rotate(0 13.953374941938705 26.178875707074667)"><path d="M6.98 0 M6.98 0 C11.02 -1.19, 17.79 -0.23, 20.93 0 M6.98 0 C11.24 0.56, 16.47 0.06, 20.93 0 M20.93 0 C26.7 -0.65, 29.22 3.19, 27.91 6.98 M20.93 0 C23.34 -1.07, 27.21 1.21, 27.91 6.98 M27.91 6.98 C29.86 17.94, 27.31 31.31, 27.91 45.38 M27.91 6.98 C27.24 19.54, 28.03 34.3, 27.91 45.38 M27.91 45.38 C28.52 48.91, 26.33 52.1, 20.93 52.36 M27.91 45.38 C29.21 49.35, 26.17 51.58, 20.93 52.36 M20.93 52.36 C17.42 52.27, 13.09 51.3, 6.98 52.36 M20.93 52.36 C17.15 52.87, 13.78 51.85, 6.98 52.36 M6.98 52.36 C3.71 53.04, -0.41 50.77, 0 45.38 M6.98 52.36 C1.45 50.75, -1.66 50.32, 0 45.38 M0 45.38 C-0.42 30.51, 1.45 15.14, 0 6.98 M0 45.38 C0.36 32.72, -0.13 19.04, 0 6.98 M0 6.98 C-1.9 4.21, 1.74 -1.14, 6.98 0 M0 6.98 C-0.25 4.13, 2.01 -1.47, 6.98 0" stroke="#000000" stroke-width="1" fill="none"></path></g><g stroke-linecap="round" transform="translate(10 241.8884370596652) rotate(0 13.953374941938705 26.178875707074667)"><path d="M6.98 0 M6.98 0 C10.41 1.34, 15.86 0.84, 20.93 0 M6.98 0 C11.04 -0.27, 14.09 0.53, 20.93 0 M20.93 0 C24.93 1.32, 28.77 0.38, 27.91 6.98 M20.93 0 C24.51 -0.7, 26.79 2.52, 27.91 6.98 M27.91 6.98 C27.28 18.21, 28.8 31.74, 27.91 45.38 M27.91 6.98 C27.04 20.2, 28.29 33.84, 27.91 45.38 M27.91 45.38 C26.78 50.78, 25.32 53.49, 20.93 52.36 M27.91 45.38 C27.22 50.63, 24.8 51.02, 20.93 52.36 M20.93 52.36 C16.88 51.25, 11.85 51.51, 6.98 52.36 M20.93 52.36 C16.91 51.83, 11.48 52.75, 6.98 52.36 M6.98 52.36 C3.01 51.95, 0.74 49.27, 0 45.38 M6.98 52.36 C0.72 50.7, 0.29 51.67, 0 45.38 M0 45.38 C-0.75 33.37, -1.87 18.65, 0 6.98 M0 45.38 C0.3 32.2, -0.65 18, 0 6.98 M0 6.98 C1.88 1.74, 1.19 -0.21, 6.98 0 M0 6.98 C1.8 2.01, 0.85 -0.17, 6.98 0" stroke="#000000" stroke-width="1" fill="none"></path></g><g stroke-linecap="round" transform="translate(189.31380834925505 240.95101684029487) rotate(0 13.953374941938705 26.178875707074667)"><path d="M6.98 0 M6.98 0 C13.79 0.01, 18.83 -0.53, 20.93 0 M6.98 0 C10.33 -0.08, 14.88 -0.33, 20.93 0 M20.93 0 C26.9 0.87, 25.96 1.39, 27.91 6.98 M20.93 0 C24.88 -1.11, 28.1 2.53, 27.91 6.98 M27.91 6.98 C27.65 21.65, 29.32 35.95, 27.91 45.38 M27.91 6.98 C27.53 19.74, 27.89 31.38, 27.91 45.38 M27.91 45.38 C28.66 49.77, 26.72 51.76, 20.93 52.36 M27.91 45.38 C28.5 49.26, 24.24 52.15, 20.93 52.36 M20.93 52.36 C16.65 51.4, 13.72 52.58, 6.98 52.36 M20.93 52.36 C15.13 51.81, 10.7 52.67, 6.98 52.36 M6.98 52.36 C1.91 53.1, -0.76 48.63, 0 45.38 M6.98 52.36 C0.67 52.64, 1.63 51.32, 0 45.38 M0 45.38 C1.7 30.85, 0.67 20.69, 0 6.98 M0 45.38 C-0.17 35.29, -1.15 27.91, 0 6.98 M0 6.98 C-0.58 1.19, 2.11 1.57, 6.98 0 M0 6.98 C-0.31 0.85, 2.16 1.21, 6.98 0" stroke="#000000" stroke-width="1" fill="none"></path></g><g stroke-linecap="round" transform="translate(68.26098131854451 143.96816769779707) rotate(0 43.99309177206675 45.6644928019216)"><path d="M54.89 2.44 C62.29 3.99, 70.79 9.39, 76.31 15.36 C81.83 21.34, 86.59 30.08, 88.02 38.28 C89.45 46.48, 88.35 57.05, 84.89 64.55 C81.43 72.06, 74.03 78.92, 67.26 83.31 C60.48 87.69, 51.98 90.65, 44.23 90.84 C36.48 91.04, 27.31 88.59, 20.75 84.47 C14.19 80.35, 8.33 73.61, 4.86 66.1 C1.39 58.59, -1.04 47.64, -0.07 39.41 C0.91 31.18, 5.45 22.9, 10.71 16.71 C15.98 10.52, 23.15 4.55, 31.54 2.26 C39.92 -0.03, 55.11 2, 61.01 2.97 C66.91 3.94, 67.04 7.33, 66.94 8.09 M51.74 1.19 C59.21 1.73, 67.94 6.23, 73.75 11.65 C79.56 17.07, 84.63 25.55, 86.58 33.69 C88.53 41.83, 88.21 52.69, 85.46 60.48 C82.72 68.28, 76.45 75.3, 70.11 80.45 C63.77 85.59, 54.89 90.53, 47.41 91.35 C39.93 92.17, 31.98 89.34, 25.21 85.39 C18.44 81.44, 11.22 74.45, 6.8 67.66 C2.38 60.88, -1.61 52.78, -1.31 44.67 C-1.01 36.55, 3.7 25.96, 8.59 18.98 C13.49 11.99, 20.99 5.96, 28.08 2.75 C35.17 -0.46, 47.12 -0.28, 51.14 -0.28 C55.16 -0.28, 52.03 1.75, 52.21 2.76" stroke="#000000" stroke-width="1" fill="none"></path></g><g stroke-linecap="round"><g transform="translate(139.63980716394065 153.5470425242238) rotate(0 23.520251380802847 -25.25133796308137)"><path d="M-0.08 0.66 C8.17 -8.05, 40.61 -42.73, 48.62 -51.16 M-1.58 -0.05 C6.55 -8.07, 38.74 -41.19, 47.39 -49.81" stroke="#000000" stroke-width="1" fill="none"></path></g></g><mask></mask><g stroke-linecap="round"><g transform="translate(148.48584935380325 159.22820708723157) rotate(0 19.1650862915925 -18.44751898091954)"><path d="M0.66 -0.55 C6.94 -6.98, 32.22 -32.4, 38.79 -38.67 M-0.46 1.78 C5.54 -4.55, 30.95 -31.25, 37.65 -37.75" stroke="#000000" stroke-width="1" fill="none"></path></g></g><mask></mask><g stroke-linecap="round"><g transform="translate(77.36914736216295 216.39297998557504) rotate(0 -19.77566956947129 20.825564435248225)"><path d="M-0.55 -0.37 C-7.35 6.73, -34.27 36.13, -40.92 43.26 M1.36 -1.61 C-5.09 5.11, -31.66 34.05, -38.82 41.6" stroke="#000000" stroke-width="1" fill="none"></path></g></g><mask></mask><g stroke-linecap="round"><g transform="translate(85.19816260743949 223.24077430262878) rotate(0 -22.36437978956633 23.934082733531113)"><path d="M-0.37 -1.17 C-8.13 6.9, -38.16 39.47, -45.89 47.87 M1.64 0.82 C-6.25 9.09, -38.18 41.31, -46.37 49.04" stroke="#000000" stroke-width="1" fill="none"></path></g></g><mask></mask><g stroke-linecap="round"><g transform="translate(75.99814265011037 162.388747168161) rotate(0 -18.71214054187493 -18.21343876737842)"><path d="M-1.17 0.89 C-7.39 -5.27, -31.95 -30.88, -37.84 -37.32 M0.41 0.31 C-5.36 -5.61, -29.27 -29.61, -35.49 -35.76" stroke="#000000" stroke-width="1" fill="none"></path></g></g><mask></mask><g stroke-linecap="round"><g transform="translate(81.8261033752151 155.08678627775953) rotate(0 -21.931950795374178 -21.87726279025742)"><path d="M0.89 -0.69 C-6.35 -7.75, -36.3 -36.42, -43.82 -43.54 M-0.1 1.56 C-7.47 -5.75, -37.23 -37.49, -44.75 -45.31" stroke="#000000" stroke-width="1" fill="none"></path></g></g><mask></mask><g stroke-linecap="round"><g transform="translate(140.4462505063526 224.3856312771286) rotate(0 24.318451281925604 24.320176316487505)"><path d="M-0.69 0.03 C7.72 7.93, 40.97 40.11, 49.33 48.3 M1.14 -1 C9.57 7, 40.74 41.61, 48.73 49.64" stroke="#000000" stroke-width="1" fill="none"></path></g></g><mask></mask><g stroke-linecap="round"><g transform="translate(146.1202708760717 217.86383330382796) rotate(0 20.34281997122855 20.647146688035946)"><path d="M0.03 0.67 C6.9 7.67, 34.93 34.87, 42.1 41.32 M-1.41 -0.02 C5.19 6.7, 33.62 32.93, 40.94 39.61" stroke="#000000" stroke-width="1" fill="none"></path></g></g><mask></mask><g stroke-linecap="round" transform="translate(86.45026753118884 10) rotate(0 23.088416760309542 23.520087629789714)"><path d="M11.54 0 M11.54 0 C16.52 -0.28, 20.64 1.57, 34.63 0 M11.54 0 C19.62 -0.81, 29.56 -0.47, 34.63 0 M34.63 0 C43.36 0.94, 47.31 5.77, 46.18 11.54 M34.63 0 C41.22 0.8, 46.05 3.71, 46.18 11.54 M46.18 11.54 C45.71 21.81, 45.09 28.42, 46.18 35.5 M46.18 11.54 C46.99 19.8, 45.91 27.97, 46.18 35.5 M46.18 35.5 C46.09 42.91, 40.82 46.15, 34.63 47.04 M46.18 35.5 C45.52 44.96, 40.24 46.79, 34.63 47.04 M34.63 47.04 C25.39 47.25, 17.5 47.03, 11.54 47.04 M34.63 47.04 C29.22 46.25, 26.18 46.22, 11.54 47.04 M11.54 47.04 C5.22 46.99, 1.67 44.26, 0 35.5 M11.54 47.04 C5.09 45.23, -0.54 42.96, 0 35.5 M0 35.5 C1.58 29.55, 1.66 20.57, 0 11.54 M0 35.5 C0.68 26.15, -1.16 17.49, 0 11.54 M0 11.54 C0.07 2.54, 5.49 -0.75, 11.54 0 M0 11.54 C1.53 4.05, 3.52 -1.12, 11.54 0" stroke="#000000" stroke-width="1" fill="none"></path></g></svg>