<svg version="1.1" xmlns="http://www.w3.org/2000/svg" viewBox="0 0 227.22055823313258 230.67664678641677" width="454.44111646626516" height="461.35329357283354">
  <!-- svg-source:excalidraw -->
  
  <defs>
    <style class="style-fonts">
      @font-face {
        font-family: "Virgil";
        src: url("https://excalidraw.com/Virgil.woff2");
      }
      @font-face {
        font-family: "Cascadia";
        src: url("https://excalidraw.com/Cascadia.woff2");
      }
    </style>
  </defs>
  <g stroke-linecap="round" transform="translate(187.79515697590455 10) rotate(0 13.953374941938705 26.178875707074667)"><path d="M6.98 0 M6.98 0 C10.3 -0.99, 17.05 0.09, 20.93 0 M6.98 0 C11.3 -0.19, 15.92 -0.67, 20.93 0 M20.93 0 C25.8 0.7, 26.62 3.5, 27.91 6.98 M20.93 0 C26.79 -0.46, 27.45 4.22, 27.91 6.98 M27.91 6.98 C29.09 17.45, 27.69 28.5, 27.91 45.38 M27.91 6.98 C27.14 19.71, 28.45 32.6, 27.91 45.38 M27.91 45.38 C27.18 51.54, 24.16 51.57, 20.93 52.36 M27.91 45.38 C26.2 49.21, 27.79 51.75, 20.93 52.36 M20.93 52.36 C17.04 51.75, 14.36 51.84, 6.98 52.36 M20.93 52.36 C16.65 52.98, 12.69 52.61, 6.98 52.36 M6.98 52.36 C3 51.98, 1.61 50.13, 0 45.38 M6.98 52.36 C4.11 52.32, -0.08 52.14, 0 45.38 M0 45.38 C-1.54 32.76, 2.16 23.96, 0 6.98 M0 45.38 C-0.47 36.78, 0.1 27.1, 0 6.98 M0 6.98 C0.12 1.35, 1.27 1.1, 6.98 0 M0 6.98 C-1.41 1.32, 2.12 -0.72, 6.98 0" stroke="#000000" stroke-width="1" fill="none"></path></g><g stroke-linecap="round" transform="translate(10.0112265894536 14.078951643155051) rotate(0 13.953374941938705 26.178875707074667)"><path d="M6.98 0 M6.98 0 C10.13 1.41, 15.45 0.39, 20.93 0 M6.98 0 C12.35 0.02, 17.43 0.11, 20.93 0 M20.93 0 C26.28 -1.28, 29.08 3.37, 27.91 6.98 M20.93 0 C25.12 -0.46, 29.81 1.5, 27.91 6.98 M27.91 6.98 C28.46 18.15, 29.36 30.59, 27.91 45.38 M27.91 6.98 C27.77 18.56, 27.47 28.59, 27.91 45.38 M27.91 45.38 C29.42 48.61, 24.8 50.88, 20.93 52.36 M27.91 45.38 C27.09 52.24, 24.97 50.81, 20.93 52.36 M20.93 52.36 C17 52.22, 13.72 52.45, 6.98 52.36 M20.93 52.36 C18.09 52.82, 14.38 52.61, 6.98 52.36 M6.98 52.36 C1.95 53.97, 0.1 51.59, 0 45.38 M6.98 52.36 C2.29 52.28, 2.11 49.79, 0 45.38 M0 45.38 C-1.41 39.38, 0.91 28.51, 0 6.98 M0 45.38 C0.15 32.32, -0.5 18.75, 0 6.98 M0 6.98 C-0.97 1.27, 3.42 -1.22, 6.98 0 M0 6.98 C-1.01 2.12, 1.61 0.56, 6.98 0" stroke="#000000" stroke-width="1" fill="none"></path></g><g stroke-linecap="round" transform="translate(10 168.31889537226743) rotate(0 13.953374941938705 26.178875707074667)"><path d="M6.98 0 M6.98 0 C11.47 0.1, 13.63 1.48, 20.93 0 M6.98 0 C11.14 -0.63, 15.39 0.28, 20.93 0 M20.93 0 C24.3 1.18, 28.95 1.92, 27.91 6.98 M20.93 0 C25.12 1.9, 27.08 2.23, 27.91 6.98 M27.91 6.98 C27.94 22.02, 29.01 34.34, 27.91 45.38 M27.91 6.98 C28.22 21.01, 27.27 37.34, 27.91 45.38 M27.91 45.38 C26.48 49.25, 24.1 51.65, 20.93 52.36 M27.91 45.38 C30.11 49.42, 24.04 51.01, 20.93 52.36 M20.93 52.36 C17.1 51.83, 13.57 51.46, 6.98 52.36 M20.93 52.36 C16.07 52.6, 10.56 52.33, 6.98 52.36 M6.98 52.36 C3.94 52.46, 1.55 50, 0 45.38 M6.98 52.36 C2.24 54.46, -0.24 47.79, 0 45.38 M0 45.38 C2.15 35.61, -0.93 25.14, 0 6.98 M0 45.38 C0.39 30.91, 0.17 16.42, 0 6.98 M0 6.98 C-1.05 3.42, 1.1 -0.88, 6.98 0 M0 6.98 C-0.21 1.61, 2.88 0.38, 6.98 0" stroke="#000000" stroke-width="1" fill="none"></path></g><g stroke-linecap="round" transform="translate(189.31380834925517 167.3814751528971) rotate(0 13.953374941938705 26.178875707074667)"><path d="M6.98 0 M6.98 0 C10.09 0.16, 14.6 -0.15, 20.93 0 M6.98 0 C10.18 0.08, 14.98 -0.45, 20.93 0 M20.93 0 C26.76 1.05, 27.5 1.93, 27.91 6.98 M20.93 0 C27.48 -0.82, 27.82 3.7, 27.91 6.98 M27.91 6.98 C29.2 21.67, 27.69 36.33, 27.91 45.38 M27.91 6.98 C26.96 15.4, 28.48 23.83, 27.91 45.38 M27.91 45.38 C27.12 48.55, 24.87 54.27, 20.93 52.36 M27.91 45.38 C27.3 48.49, 24.23 51.65, 20.93 52.36 M20.93 52.36 C16.91 52.51, 13 53.47, 6.98 52.36 M20.93 52.36 C16.75 52.68, 12.15 53.01, 6.98 52.36 M6.98 52.36 C2.43 53.91, -0.03 49.96, 0 45.38 M6.98 52.36 C4.43 52.12, -2.24 49.48, 0 45.38 M0 45.38 C1.11 36.23, 1.24 31.09, 0 6.98 M0 45.38 C-0.39 35.01, -0.65 23.99, 0 6.98 M0 6.98 C1.1 1.1, 1.45 -0.18, 6.98 0 M0 6.98 C-0.72 2.88, 2.71 -1.06, 6.98 0" stroke="#000000" stroke-width="1" fill="none"></path></g><g stroke-linecap="round" transform="translate(68.26098131854474 70.39862601039931) rotate(0 43.993091772066805 45.6644928019216)"><path d="M64.52 5.41 C71.29 8.6, 77.53 16.51, 81.49 23.59 C85.44 30.68, 88.5 39.66, 88.25 47.95 C88 56.23, 84.79 66.59, 79.99 73.28 C75.2 79.98, 66.84 85.35, 59.47 88.13 C52.1 90.92, 43.52 91.55, 35.78 90 C28.05 88.44, 18.76 84.48, 13.08 78.79 C7.39 73.1, 3.43 63.89, 1.68 55.86 C-0.08 47.84, -0.13 38.42, 2.56 30.64 C5.25 22.85, 11.34 14.37, 17.81 9.17 C24.28 3.97, 32.82 -0.58, 41.39 -0.57 C49.96 -0.57, 63.99 6.98, 69.23 9.2 C74.46 11.41, 73.01 12.32, 72.78 12.72 M36.84 0.48 C44.12 -1.73, 52.02 -0.67, 59.09 2.29 C66.15 5.25, 74.51 11.45, 79.21 18.26 C83.92 25.07, 86.9 34.77, 87.32 43.13 C87.74 51.49, 85.69 61.06, 81.71 68.42 C77.74 75.79, 70.4 83.36, 63.49 87.33 C56.58 91.29, 47.82 93.12, 40.23 92.24 C32.64 91.35, 24.17 87.31, 17.97 82.04 C11.77 76.76, 5.61 68.38, 3.02 60.58 C0.42 52.78, 0.45 43.21, 2.39 35.25 C4.32 27.28, 9.11 18.29, 14.61 12.79 C20.1 7.29, 31.88 4.33, 35.35 2.25 C38.82 0.17, 35.33 0.04, 35.42 0.32" stroke="#000000" stroke-width="1" fill="none"></path></g><g stroke-linecap="round"><g transform="translate(139.63980716394076 79.97750083682604) rotate(0 24.039259945453978 -24.93697341058362)"><path d="M0.25 1.18 C8.25 -7.33, 41.06 -42.39, 49.16 -51.06 M-1.08 0.76 C6.67 -7.57, 40.04 -41.28, 48.2 -49.66" stroke="#000000" stroke-width="1" fill="none"></path></g></g><mask></mask><g stroke-linecap="round"><g transform="translate(148.48584935380336 85.65866539983381) rotate(0 19.617510560612914 -18.919354025597727)"><path d="M1.18 -0.01 C7.67 -6.36, 32.56 -31.39, 38.89 -37.83 M0.34 -1.07 C6.65 -7.26, 31.47 -30.31, 37.8 -36.46" stroke="#000000" stroke-width="1" fill="none"></path></g></g><mask></mask><g stroke-linecap="round"><g transform="translate(77.36914736216318 142.82343829817728) rotate(0 -20.600454956987278 21.217730292736633)"><path d="M-0.01 -0.27 C-6.73 6.6, -33.25 35.23, -40.07 42.35 M-1.48 -1.45 C-8.41 6.12, -35 36.33, -41.19 43.89" stroke="#000000" stroke-width="1" fill="none"></path></g></g><mask></mask><g stroke-linecap="round"><g transform="translate(85.1981626074396 149.67123261523102) rotate(0 -22.974436909293445 23.39599602346175)"><path d="M-0.27 -0.33 C-8.26 7.58, -39.06 39.19, -46.79 47.4 M1.8 -1.54 C-6.46 6.46, -39.56 40.27, -47.75 48.34" stroke="#000000" stroke-width="1" fill="none"></path></g></g><mask></mask><g stroke-linecap="round"><g transform="translate(75.9981426501106 88.81920548076323) rotate(0 -18.29779443373633 -18.615451473181224)"><path d="M-0.33 -0.01 C-6.71 -6.17, -32.23 -30.87, -38.3 -37.22 M1.7 -1.07 C-4.33 -6.99, -29.7 -29.59, -36.19 -35.61" stroke="#000000" stroke-width="1" fill="none"></path></g></g><mask></mask><g stroke-linecap="round"><g transform="translate(81.82610337521533 81.51724459036177) rotate(0 -22.308018834016593 -22.41912855451767)"><path d="M-0.01 -1.16 C-7.26 -8.4, -36.29 -36.73, -43.72 -43.79 M-1.48 0.85 C-8.85 -6.73, -37.83 -37.97, -44.6 -45.69" stroke="#000000" stroke-width="1" fill="none"></path></g></g><mask></mask><g stroke-linecap="round"><g transform="translate(140.44625050635273 150.81608958973084) rotate(0 23.96312946929595 24.10786970792958)"><path d="M-1.16 0.13 C7.08 8.12, 40.66 39.73, 49.08 47.93 M0.44 -0.85 C8.58 7.28, 40.27 41.03, 48.36 49.06" stroke="#000000" stroke-width="1" fill="none"></path></g></g><mask></mask><g stroke-linecap="round"><g transform="translate(146.1202708760718 144.2942916164302) rotate(0 21.383598362682847 20.41673146270898)"><path d="M0.13 0.42 C7.09 7.49, 34.55 34.59, 41.72 41.24 M-1.26 -0.4 C6.08 6.42, 36.7 32.5, 44.03 39.48" stroke="#000000" stroke-width="1" fill="none"></path></g></g><mask></mask></svg>